%TF.GenerationSoftware,KiCad,Pcbnew,10.0.4*%
%TF.CreationDate,2026-08-17T00:52:35+01:00*%
%TF.ProjectId,LogicAnalyzer_RP2350,4c6f6769-6341-46e6-916c-797a65725f52,rev?*%
%TF.SameCoordinates,Original*%
%TF.FileFunction,Copper,L2,Inr*%
%TF.FilePolarity,Positive*%
%FSLAX46Y46*%
G04 Gerber Fmt 4.6, Leading zero omitted, Abs format (unit mm)*
G04 Created by KiCad (PCBNEW 10.0.4) date 2026-08-17 00:52:35*
%MOMM*%
%LPD*%
G01*
G04 APERTURE LIST*
%TA.AperFunction,ComponentPad*%
%ADD10R,1.390000X1.390000*%
%TD*%
%TA.AperFunction,ComponentPad*%
%ADD11C,1.390000*%
%TD*%
%TA.AperFunction,ComponentPad*%
%ADD12C,0.508000*%
%TD*%
%TA.AperFunction,ComponentPad*%
%ADD13C,1.600200*%
%TD*%
%TA.AperFunction,ComponentPad*%
%ADD14R,1.500000X1.500000*%
%TD*%
%TA.AperFunction,ComponentPad*%
%ADD15C,1.500000*%
%TD*%
%TA.AperFunction,ComponentPad*%
%ADD16O,1.000000X1.800000*%
%TD*%
%TA.AperFunction,ComponentPad*%
%ADD17O,1.000000X2.100000*%
%TD*%
%TA.AperFunction,ViaPad*%
%ADD18C,0.700000*%
%TD*%
G04 APERTURE END LIST*
D10*
%TO.N,/FrontPanelInterface/EXTVREF*%
%TO.C,J3*%
X80777500Y9669742D03*
D11*
%TO.N,/LevelShifters/EXT_TRIG*%
X83317500Y9669742D03*
%TO.N,GND*%
X85857500Y9669742D03*
%TO.N,+3.3V*%
X88397500Y9669742D03*
%TO.N,+5V*%
X90937500Y9669742D03*
%TO.N,GND*%
X93477500Y9669742D03*
%TD*%
D12*
%TO.N,GND*%
%TO.C,U2*%
X28993701Y62050000D03*
X28206301Y62050000D03*
%TD*%
D13*
%TO.N,/LevelShifters/EXT_CHAIN*%
%TO.C,J4*%
X9203100Y47268342D03*
%TO.N,unconnected-(J4-Pad2)*%
X9203100Y44768342D03*
%TO.N,GND*%
X9203100Y42268342D03*
%TD*%
%TO.N,/LevelShifters/EXT_CHAIN*%
%TO.C,J5*%
X90750000Y42250242D03*
%TO.N,unconnected-(J5-Pad2)*%
X90750000Y44750242D03*
%TO.N,GND*%
X90750000Y47250242D03*
%TD*%
D14*
%TO.N,/LevelShifters/DI24*%
%TO.C,J6*%
X71230000Y12790242D03*
D15*
%TO.N,GND*%
X71230000Y10250242D03*
%TO.N,/LevelShifters/DI23*%
X68690000Y12790242D03*
%TO.N,GND*%
X68690000Y10250242D03*
%TO.N,/LevelShifters/DI22*%
X66150000Y12790242D03*
%TO.N,GND*%
X66150000Y10250242D03*
%TO.N,/LevelShifters/DI21*%
X63610000Y12790242D03*
%TO.N,GND*%
X63610000Y10250242D03*
%TO.N,/LevelShifters/DI20*%
X61070000Y12790242D03*
%TO.N,GND*%
X61070000Y10250242D03*
%TO.N,/LevelShifters/DI19*%
X58530000Y12790242D03*
%TO.N,GND*%
X58530000Y10250242D03*
%TO.N,/LevelShifters/DI18*%
X55990000Y12790242D03*
%TO.N,GND*%
X55990000Y10250242D03*
%TO.N,/LevelShifters/DI17*%
X53450000Y12790242D03*
%TO.N,GND*%
X53450000Y10250242D03*
%TO.N,/LevelShifters/DI16*%
X50910000Y12790242D03*
%TO.N,GND*%
X50910000Y10250242D03*
%TO.N,/LevelShifters/DI15*%
X48370000Y12790242D03*
%TO.N,GND*%
X48370000Y10250242D03*
%TO.N,/LevelShifters/DI14*%
X45830000Y12790242D03*
%TO.N,GND*%
X45830000Y10250242D03*
%TO.N,/LevelShifters/DI13*%
X43290000Y12790242D03*
%TO.N,GND*%
X43290000Y10250242D03*
%TO.N,/LevelShifters/DI12*%
X40750000Y12790242D03*
%TO.N,GND*%
X40750000Y10250242D03*
%TO.N,/LevelShifters/DI11*%
X38210000Y12790242D03*
%TO.N,GND*%
X38210000Y10250242D03*
%TO.N,/LevelShifters/DI10*%
X35670000Y12790242D03*
%TO.N,GND*%
X35670000Y10250242D03*
%TO.N,/LevelShifters/DI9*%
X33130000Y12790242D03*
%TO.N,GND*%
X33130000Y10250242D03*
%TO.N,/LevelShifters/DI8*%
X30590000Y12790242D03*
%TO.N,GND*%
X30590000Y10250242D03*
%TO.N,/LevelShifters/DI7*%
X28050000Y12790242D03*
%TO.N,GND*%
X28050000Y10250242D03*
%TO.N,/LevelShifters/DI6*%
X25510000Y12790242D03*
%TO.N,GND*%
X25510000Y10250242D03*
%TO.N,/LevelShifters/DI5*%
X22970000Y12790242D03*
%TO.N,GND*%
X22970000Y10250242D03*
%TO.N,/LevelShifters/DI4*%
X20430000Y12790242D03*
%TO.N,GND*%
X20430000Y10250242D03*
%TO.N,/LevelShifters/DI3*%
X17890000Y12790242D03*
%TO.N,GND*%
X17890000Y10250242D03*
%TO.N,/LevelShifters/DI2*%
X15350000Y12790242D03*
%TO.N,GND*%
X15350000Y10250242D03*
%TO.N,/LevelShifters/DI1*%
X12810000Y12790242D03*
%TO.N,GND*%
X12810000Y10250242D03*
X10270000Y12790242D03*
X10270000Y10250242D03*
%TD*%
D16*
%TO.N,GND*%
%TO.C,J1*%
X40680000Y67825000D03*
D17*
X40680000Y63645000D03*
D16*
X49320000Y67825000D03*
D17*
X49320000Y63645000D03*
%TD*%
D18*
%TO.N,GND*%
X76040000Y23200000D03*
X67730000Y48000000D03*
X66410000Y43570000D03*
X64630000Y41780000D03*
X59200000Y40470000D03*
X51990000Y40090000D03*
X67930000Y42560000D03*
X69270000Y45840000D03*
X69110000Y44110000D03*
X66000000Y40660000D03*
X60750000Y38470000D03*
X55670000Y38530000D03*
X51500000Y38550000D03*
X45350000Y44425000D03*
X46175000Y43525000D03*
X44525000Y43500000D03*
X46175000Y45325000D03*
X44475000Y45325000D03*
%TO.N,/FrontPanelInterface/VREF*%
X87250000Y24275000D03*
%TO.N,/FrontPanelInterface/LEDA*%
X76950000Y36100000D03*
%TO.N,/FrontPanelInterface/LEDB*%
X82275000Y24200000D03*
%TO.N,/RP2350_Main/VBUS_SENSE*%
X51775000Y50300000D03*
%TO.N,/RP2350_Main/SWCLK*%
X70750000Y46275000D03*
%TO.N,/RP2350_Main/SWDIO*%
X70625000Y47850000D03*
%TO.N,Net-(U4-RUN)*%
X66650000Y50275000D03*
%TO.N,/LevelShifters/EXT_CHAIN*%
X87275000Y41275000D03*
%TO.N,/LevelShifters/EXT_TRIG*%
X83375000Y13775000D03*
X17650000Y43100000D03*
%TO.N,/FrontPanelInterface/LEDA*%
X83300000Y24125000D03*
%TO.N,/FrontPanelInterface/LEDB*%
X72750000Y34325000D03*
%TO.N,Net-(U11-PB0)*%
X80500000Y25575000D03*
X76200000Y44400000D03*
%TO.N,Net-(U11-~{RESET}{slash}PA0)*%
X90500000Y34900000D03*
X76375000Y38075000D03*
%TO.N,GND*%
X92725000Y12600000D03*
X86425000Y12625000D03*
X85250000Y12625000D03*
X78850000Y12650000D03*
X86075000Y43325000D03*
X70525000Y40775000D03*
X73250000Y53700000D03*
X76950000Y56175000D03*
X69425000Y56000000D03*
X65275000Y49675000D03*
X60150000Y58100000D03*
X55200000Y55375000D03*
X51300000Y61575000D03*
X17600000Y41325000D03*
X13000000Y40250000D03*
X13000000Y49225000D03*
X34900000Y52550000D03*
X24875000Y51275000D03*
%TO.N,+5V*%
X90850000Y13600000D03*
X85275000Y24300000D03*
%TO.N,/FrontPanelInterface/VREF*%
X71525000Y34575000D03*
%TO.N,+5V*%
X57175000Y59250000D03*
X55050000Y59100000D03*
%TO.N,GND*%
X51175000Y49450000D03*
%TO.N,+1V1*%
X51050000Y44375000D03*
%TO.N,+3.3V*%
X26875000Y52375000D03*
%TO.N,GND*%
X84275000Y24275000D03*
X80325000Y24225000D03*
X92875000Y30475000D03*
X81600000Y29700000D03*
X81525000Y31300000D03*
X74650000Y31975000D03*
%TO.N,+3.3V*%
X88425000Y13625000D03*
X86250000Y24275000D03*
X80250000Y27600000D03*
X77200000Y27800000D03*
X92900000Y31675000D03*
X85525000Y29750000D03*
X85525000Y31275000D03*
%TO.N,GND*%
X18900000Y63650000D03*
X18900000Y64525000D03*
X21275000Y65875000D03*
X21300000Y66775000D03*
%TO.N,+3.3V*%
X17650000Y59050000D03*
X18975000Y59050000D03*
X16300000Y59050000D03*
X17650000Y60375000D03*
X18975000Y60375000D03*
X16300000Y60375000D03*
X18975000Y61575000D03*
X17650000Y61575000D03*
X16300000Y61575000D03*
%TO.N,+5V*%
X29950000Y66600000D03*
X15225000Y65475000D03*
X12675000Y65450000D03*
%TO.N,/USB & POWER/VBUS_FILT*%
X33650000Y59750000D03*
X30125000Y60950000D03*
X32350000Y59750000D03*
X31100000Y59750000D03*
X32350000Y58850000D03*
X31125000Y58875000D03*
X29650000Y59750000D03*
X23075000Y61325000D03*
X23100000Y62725000D03*
X24350000Y60075000D03*
%TO.N,GND*%
X26050000Y56175000D03*
X26075000Y57025000D03*
X27475000Y57600000D03*
X28225000Y57600000D03*
X28575000Y60150000D03*
%TO.N,+3.3V*%
X42700000Y57800000D03*
X42700000Y58700000D03*
%TO.N,GND*%
X13400000Y60800000D03*
X12400000Y60800000D03*
X23250000Y64250000D03*
X24250000Y65250000D03*
X27500000Y66500000D03*
X28250000Y66500000D03*
X39750000Y57750000D03*
X39750000Y58750000D03*
X41500000Y60250000D03*
X37750000Y62500000D03*
X31000000Y64250000D03*
X32000000Y64250000D03*
X33000000Y64250000D03*
X34000000Y64250000D03*
X36000000Y64250000D03*
X35000000Y64250000D03*
X45750000Y56000000D03*
%TO.N,+5V*%
X43250000Y56000000D03*
%TO.N,GND*%
X48550000Y49400000D03*
%TO.N,+1V1*%
X45900000Y50398576D03*
X45940000Y49650000D03*
%TO.N,GND*%
X48500000Y50100000D03*
X71100000Y30500000D03*
X40500000Y49200000D03*
X51200000Y43300000D03*
X30400000Y30600000D03*
X53300000Y23600000D03*
X40900000Y37400000D03*
X44560000Y17900000D03*
X54720000Y17900000D03*
X13500000Y27200000D03*
X63600000Y23600000D03*
X45000000Y33800000D03*
X40500000Y23600000D03*
X23700000Y27100000D03*
X60900000Y23600000D03*
X64880000Y17900000D03*
X12600000Y23600000D03*
X14080000Y17900000D03*
X39480000Y17900000D03*
X43100000Y23600000D03*
X51025000Y48300000D03*
X51000000Y40700000D03*
X29320000Y17900000D03*
X50700000Y30500000D03*
X24240000Y17900000D03*
X34400000Y17900000D03*
X33900000Y27000000D03*
X22800000Y23600000D03*
X42875000Y37925000D03*
X50600000Y23600000D03*
X59800000Y17900000D03*
X71200000Y23600000D03*
X19160000Y17900000D03*
X40500000Y30600000D03*
X20100000Y30600000D03*
X20200000Y23600000D03*
X54300000Y27000000D03*
X64500000Y27000000D03*
X30400000Y23600000D03*
X33000000Y23600000D03*
X69960000Y17900000D03*
X55000000Y48400000D03*
X49640000Y17900000D03*
X44100000Y27000000D03*
X46400000Y33800000D03*
X60800000Y30500000D03*
%TO.N,+5V*%
X24240000Y14600000D03*
X14080000Y14600000D03*
X64880000Y14600000D03*
X54720000Y14600000D03*
X29320000Y14600000D03*
X19160000Y14600000D03*
X44560000Y14600000D03*
X49640000Y14600000D03*
X69960000Y14600000D03*
X39480000Y14600000D03*
X59800000Y14600000D03*
X34400000Y14600000D03*
%TO.N,+3.3V*%
X12700000Y19700000D03*
X47670000Y45400242D03*
X50700000Y19700000D03*
X51102880Y47297120D03*
X20200000Y19700000D03*
X46170000Y46525244D03*
X30400000Y19700000D03*
X42920000Y44000242D03*
X63600000Y19700000D03*
X22900000Y19700000D03*
X40500000Y19700000D03*
X43120824Y41757044D03*
X43300000Y19700000D03*
X39670000Y47240242D03*
X51800000Y53800000D03*
X71100000Y19700000D03*
X33100000Y19700000D03*
X53500000Y19700000D03*
X49800000Y40700000D03*
X60900000Y19700000D03*
X43300000Y46800000D03*
%TO.N,/FrontPanelInterface/VREF*%
X41600000Y27600000D03*
X31500000Y27600000D03*
X62000000Y27600000D03*
X51800000Y27600000D03*
X72100000Y27600000D03*
X21300000Y27500000D03*
%TO.N,/RP2350_Main/SWCLK*%
X45638669Y39894821D03*
%TO.N,/RP2350_Main/VBUS_SENSE*%
X47670000Y43200242D03*
%TO.N,/RP2350_Main/SWDIO*%
X46325000Y39300000D03*
%TO.N,+1V1*%
X42920000Y45985242D03*
X45973127Y41675242D03*
%TO.N,Net-(U4-RUN)*%
X47670000Y41800242D03*
%TO.N,/LevelShifters/EXT_CHAIN*%
X30500000Y50225000D03*
%TD*%
%TA.AperFunction,Conductor*%
%TO.N,GND*%
G36*
X95753032Y70249352D02*
G01*
X96111433Y70231744D01*
X96123541Y70230552D01*
X96475475Y70178347D01*
X96487393Y70175976D01*
X96832517Y70089528D01*
X96844160Y70085995D01*
X96963202Y70043401D01*
X97179138Y69966138D01*
X97190359Y69961491D01*
X97512012Y69809361D01*
X97522720Y69803637D01*
X97827881Y69620730D01*
X97837999Y69613970D01*
X98123769Y69402029D01*
X98133175Y69394309D01*
X98396790Y69155382D01*
X98405381Y69146791D01*
X98488690Y69054874D01*
X98644308Y68883176D01*
X98652028Y68873770D01*
X98863969Y68588000D01*
X98870729Y68577882D01*
X98982427Y68391525D01*
X99053629Y68272733D01*
X99059364Y68262005D01*
X99063345Y68253587D01*
X99211484Y67940374D01*
X99216140Y67929131D01*
X99335994Y67594161D01*
X99339527Y67582516D01*
X99425973Y67237402D01*
X99428347Y67225468D01*
X99480550Y66873543D01*
X99481743Y66861433D01*
X99499351Y66503034D01*
X99499500Y66496949D01*
X99499500Y4357084D01*
X99499328Y4350548D01*
X99498642Y4337560D01*
X99494296Y4321338D01*
X99494296Y4255446D01*
X99494138Y4252245D01*
X99494136Y4252193D01*
X99476539Y3894014D01*
X99475346Y3881904D01*
X99423143Y3529979D01*
X99420769Y3518045D01*
X99334323Y3172931D01*
X99330790Y3161286D01*
X99210936Y2826316D01*
X99206280Y2815073D01*
X99054162Y2493446D01*
X99048425Y2482714D01*
X98865525Y2177565D01*
X98858765Y2167447D01*
X98646824Y1881677D01*
X98639104Y1872271D01*
X98400184Y1608663D01*
X98391579Y1600058D01*
X98127971Y1361138D01*
X98118565Y1353418D01*
X97832795Y1141477D01*
X97822677Y1134717D01*
X97517528Y951817D01*
X97506796Y946080D01*
X97185169Y793962D01*
X97173926Y789306D01*
X96838956Y669452D01*
X96827311Y665919D01*
X96482197Y579473D01*
X96470263Y577099D01*
X96118338Y524896D01*
X96106227Y523703D01*
X95747820Y506096D01*
X95741823Y505947D01*
X95740425Y505947D01*
X95740339Y505946D01*
X95672393Y505946D01*
X95672329Y505943D01*
X4254400Y500742D01*
X4253051Y500742D01*
X4246968Y500891D01*
X4224856Y501978D01*
X3888567Y518499D01*
X3876457Y519692D01*
X3524532Y571895D01*
X3512598Y574269D01*
X3167484Y660715D01*
X3155839Y664248D01*
X2820869Y784102D01*
X2809630Y788757D01*
X2487995Y940878D01*
X2477272Y946611D01*
X2172118Y1129513D01*
X2162000Y1136273D01*
X1876230Y1348214D01*
X1866824Y1355934D01*
X1826635Y1392359D01*
X1603209Y1594861D01*
X1594618Y1603452D01*
X1355691Y1867067D01*
X1347971Y1876473D01*
X1347737Y1876788D01*
X1136028Y2162246D01*
X1129270Y2172361D01*
X974504Y2430572D01*
X946363Y2477522D01*
X940639Y2488230D01*
X788509Y2809883D01*
X783859Y2821112D01*
X664005Y3156082D01*
X660472Y3167727D01*
X574024Y3512849D01*
X571652Y3524775D01*
X519449Y3876700D01*
X518256Y3888811D01*
X518000Y3894014D01*
X500649Y4247210D01*
X500500Y4253294D01*
X500500Y10412607D01*
X79582000Y10412607D01*
X79582000Y8926872D01*
X79582001Y8926866D01*
X79588408Y8867259D01*
X79638702Y8732414D01*
X79638706Y8732407D01*
X79724952Y8617198D01*
X79724955Y8617195D01*
X79840164Y8530949D01*
X79840171Y8530945D01*
X79975017Y8480651D01*
X79975016Y8480651D01*
X79981944Y8479907D01*
X80034627Y8474242D01*
X81520372Y8474243D01*
X81579983Y8480651D01*
X81714831Y8530946D01*
X81830046Y8617196D01*
X81916296Y8732411D01*
X81966591Y8867259D01*
X81973000Y8926869D01*
X81972999Y9158660D01*
X81992683Y9225697D01*
X82045487Y9271452D01*
X82114646Y9281396D01*
X82178201Y9252371D01*
X82207484Y9214953D01*
X82295016Y9043163D01*
X82405623Y8890926D01*
X82538684Y8757865D01*
X82690921Y8647258D01*
X82749917Y8617198D01*
X82858586Y8561828D01*
X82858589Y8561827D01*
X82948070Y8532754D01*
X83037553Y8503679D01*
X83123632Y8490046D01*
X83223407Y8474242D01*
X83223412Y8474242D01*
X83411593Y8474242D01*
X83501693Y8488514D01*
X83597447Y8503679D01*
X83776413Y8561828D01*
X83944079Y8647258D01*
X84096316Y8757865D01*
X84229377Y8890926D01*
X84339984Y9043163D01*
X84425414Y9210829D01*
X84483563Y9389795D01*
X84498728Y9485549D01*
X84513000Y9575649D01*
X84513000Y9763836D01*
X87202000Y9763836D01*
X87202000Y9575649D01*
X87231437Y9389794D01*
X87289584Y9210832D01*
X87289585Y9210829D01*
X87375016Y9043163D01*
X87485623Y8890926D01*
X87618684Y8757865D01*
X87770921Y8647258D01*
X87829917Y8617198D01*
X87938586Y8561828D01*
X87938589Y8561827D01*
X88028070Y8532754D01*
X88117553Y8503679D01*
X88203632Y8490046D01*
X88303407Y8474242D01*
X88303412Y8474242D01*
X88491593Y8474242D01*
X88581693Y8488514D01*
X88677447Y8503679D01*
X88856413Y8561828D01*
X89024079Y8647258D01*
X89176316Y8757865D01*
X89309377Y8890926D01*
X89419984Y9043163D01*
X89505414Y9210829D01*
X89549569Y9346725D01*
X89589006Y9404400D01*
X89653365Y9431599D01*
X89722211Y9419685D01*
X89773687Y9372441D01*
X89785431Y9346725D01*
X89829584Y9210832D01*
X89829585Y9210829D01*
X89915016Y9043163D01*
X90025623Y8890926D01*
X90158684Y8757865D01*
X90310921Y8647258D01*
X90369917Y8617198D01*
X90478586Y8561828D01*
X90478589Y8561827D01*
X90568070Y8532754D01*
X90657553Y8503679D01*
X90743632Y8490046D01*
X90843407Y8474242D01*
X90843412Y8474242D01*
X91031593Y8474242D01*
X91121693Y8488514D01*
X91217447Y8503679D01*
X91396413Y8561828D01*
X91564079Y8647258D01*
X91716316Y8757865D01*
X91849377Y8890926D01*
X91959984Y9043163D01*
X92045414Y9210829D01*
X92103563Y9389795D01*
X92118728Y9485549D01*
X92133000Y9575649D01*
X92133000Y9763836D01*
X92108297Y9919800D01*
X92103563Y9949689D01*
X92068715Y10056940D01*
X92045415Y10128653D01*
X92045414Y10128656D01*
X91959983Y10296322D01*
X91849377Y10448558D01*
X91716316Y10581619D01*
X91564079Y10692226D01*
X91396413Y10777657D01*
X91396410Y10777658D01*
X91217448Y10835805D01*
X91031593Y10865242D01*
X91031588Y10865242D01*
X90843412Y10865242D01*
X90843407Y10865242D01*
X90657551Y10835805D01*
X90478589Y10777658D01*
X90478586Y10777657D01*
X90310920Y10692226D01*
X90224063Y10629121D01*
X90158684Y10581619D01*
X90158682Y10581617D01*
X90158681Y10581617D01*
X90025625Y10448561D01*
X90025625Y10448560D01*
X90025623Y10448558D01*
X89999503Y10412607D01*
X89915016Y10296322D01*
X89829585Y10128656D01*
X89829584Y10128653D01*
X89785431Y9992760D01*
X89745994Y9935085D01*
X89681635Y9907886D01*
X89612789Y9919800D01*
X89561313Y9967044D01*
X89549569Y9992760D01*
X89505415Y10128653D01*
X89505414Y10128656D01*
X89419983Y10296322D01*
X89309377Y10448558D01*
X89176316Y10581619D01*
X89024079Y10692226D01*
X88856413Y10777657D01*
X88856410Y10777658D01*
X88677448Y10835805D01*
X88491593Y10865242D01*
X88491588Y10865242D01*
X88303412Y10865242D01*
X88303407Y10865242D01*
X88117551Y10835805D01*
X87938589Y10777658D01*
X87938586Y10777657D01*
X87770920Y10692226D01*
X87684063Y10629121D01*
X87618684Y10581619D01*
X87618682Y10581617D01*
X87618681Y10581617D01*
X87485625Y10448561D01*
X87485625Y10448560D01*
X87485623Y10448558D01*
X87459503Y10412607D01*
X87375016Y10296322D01*
X87289585Y10128656D01*
X87289584Y10128653D01*
X87231437Y9949691D01*
X87202000Y9763836D01*
X84513000Y9763836D01*
X84488297Y9919800D01*
X84483563Y9949689D01*
X84448715Y10056940D01*
X84425415Y10128653D01*
X84425414Y10128656D01*
X84339983Y10296322D01*
X84229377Y10448558D01*
X84096316Y10581619D01*
X83944079Y10692226D01*
X83776413Y10777657D01*
X83776410Y10777658D01*
X83597448Y10835805D01*
X83411593Y10865242D01*
X83411588Y10865242D01*
X83223412Y10865242D01*
X83223407Y10865242D01*
X83037551Y10835805D01*
X82858589Y10777658D01*
X82858586Y10777657D01*
X82690920Y10692226D01*
X82604063Y10629121D01*
X82538684Y10581619D01*
X82538682Y10581617D01*
X82538681Y10581617D01*
X82405625Y10448561D01*
X82405625Y10448560D01*
X82405623Y10448558D01*
X82379503Y10412607D01*
X82295016Y10296322D01*
X82207484Y10124531D01*
X82159509Y10073735D01*
X82091688Y10056940D01*
X82025553Y10079478D01*
X81982102Y10134193D01*
X81972999Y10180826D01*
X81972999Y10412613D01*
X81972998Y10412619D01*
X81972997Y10412626D01*
X81966591Y10472225D01*
X81925790Y10581617D01*
X81916297Y10607071D01*
X81916293Y10607078D01*
X81830047Y10722287D01*
X81830044Y10722290D01*
X81714835Y10808536D01*
X81714828Y10808540D01*
X81579982Y10858834D01*
X81579983Y10858834D01*
X81520383Y10865241D01*
X81520381Y10865242D01*
X81520373Y10865242D01*
X81520364Y10865242D01*
X80034629Y10865242D01*
X80034623Y10865241D01*
X79975016Y10858834D01*
X79840171Y10808540D01*
X79840164Y10808536D01*
X79724955Y10722290D01*
X79724952Y10722287D01*
X79638706Y10607078D01*
X79638702Y10607071D01*
X79588408Y10472225D01*
X79585864Y10448558D01*
X79582001Y10412619D01*
X79582000Y10412607D01*
X500500Y10412607D01*
X500500Y12888665D01*
X11559500Y12888665D01*
X11559500Y12691820D01*
X11590290Y12497416D01*
X11651117Y12310213D01*
X11721781Y12171528D01*
X11740476Y12134837D01*
X11856172Y11975596D01*
X11995354Y11836414D01*
X12154595Y11720718D01*
X12229214Y11682698D01*
X12329970Y11631360D01*
X12329972Y11631360D01*
X12329975Y11631358D01*
X12430317Y11598755D01*
X12517173Y11570533D01*
X12711578Y11539742D01*
X12711583Y11539742D01*
X12908422Y11539742D01*
X13102826Y11570533D01*
X13182574Y11596445D01*
X13290025Y11631358D01*
X13465405Y11720718D01*
X13624646Y11836414D01*
X13763828Y11975596D01*
X13879524Y12134837D01*
X13968884Y12310217D01*
X13969515Y12311455D01*
X14017489Y12362252D01*
X14085310Y12379047D01*
X14151445Y12356510D01*
X14190485Y12311455D01*
X14280474Y12134839D01*
X14284817Y12128862D01*
X14396172Y11975596D01*
X14535354Y11836414D01*
X14694595Y11720718D01*
X14769214Y11682698D01*
X14869970Y11631360D01*
X14869972Y11631360D01*
X14869975Y11631358D01*
X14970317Y11598755D01*
X15057173Y11570533D01*
X15251578Y11539742D01*
X15251583Y11539742D01*
X15448422Y11539742D01*
X15642826Y11570533D01*
X15722574Y11596445D01*
X15830025Y11631358D01*
X16005405Y11720718D01*
X16164646Y11836414D01*
X16303828Y11975596D01*
X16419524Y12134837D01*
X16508884Y12310217D01*
X16509515Y12311455D01*
X16557489Y12362252D01*
X16625310Y12379047D01*
X16691445Y12356510D01*
X16730485Y12311455D01*
X16820474Y12134839D01*
X16824817Y12128862D01*
X16936172Y11975596D01*
X17075354Y11836414D01*
X17234595Y11720718D01*
X17309214Y11682698D01*
X17409970Y11631360D01*
X17409972Y11631360D01*
X17409975Y11631358D01*
X17510317Y11598755D01*
X17597173Y11570533D01*
X17791578Y11539742D01*
X17791583Y11539742D01*
X17988422Y11539742D01*
X18182826Y11570533D01*
X18262574Y11596445D01*
X18370025Y11631358D01*
X18545405Y11720718D01*
X18704646Y11836414D01*
X18843828Y11975596D01*
X18959524Y12134837D01*
X19048884Y12310217D01*
X19049515Y12311455D01*
X19097489Y12362252D01*
X19165310Y12379047D01*
X19231445Y12356510D01*
X19270485Y12311455D01*
X19360474Y12134839D01*
X19364817Y12128862D01*
X19476172Y11975596D01*
X19615354Y11836414D01*
X19774595Y11720718D01*
X19849214Y11682698D01*
X19949970Y11631360D01*
X19949972Y11631360D01*
X19949975Y11631358D01*
X20050317Y11598755D01*
X20137173Y11570533D01*
X20331578Y11539742D01*
X20331583Y11539742D01*
X20528422Y11539742D01*
X20722826Y11570533D01*
X20802574Y11596445D01*
X20910025Y11631358D01*
X21085405Y11720718D01*
X21244646Y11836414D01*
X21383828Y11975596D01*
X21499524Y12134837D01*
X21588884Y12310217D01*
X21589515Y12311455D01*
X21637489Y12362252D01*
X21705310Y12379047D01*
X21771445Y12356510D01*
X21810485Y12311455D01*
X21900474Y12134839D01*
X21904817Y12128862D01*
X22016172Y11975596D01*
X22155354Y11836414D01*
X22314595Y11720718D01*
X22389214Y11682698D01*
X22489970Y11631360D01*
X22489972Y11631360D01*
X22489975Y11631358D01*
X22590317Y11598755D01*
X22677173Y11570533D01*
X22871578Y11539742D01*
X22871583Y11539742D01*
X23068422Y11539742D01*
X23262826Y11570533D01*
X23342574Y11596445D01*
X23450025Y11631358D01*
X23625405Y11720718D01*
X23784646Y11836414D01*
X23923828Y11975596D01*
X24039524Y12134837D01*
X24128884Y12310217D01*
X24129515Y12311455D01*
X24177489Y12362252D01*
X24245310Y12379047D01*
X24311445Y12356510D01*
X24350485Y12311455D01*
X24440474Y12134839D01*
X24444817Y12128862D01*
X24556172Y11975596D01*
X24695354Y11836414D01*
X24854595Y11720718D01*
X24929214Y11682698D01*
X25029970Y11631360D01*
X25029972Y11631360D01*
X25029975Y11631358D01*
X25130317Y11598755D01*
X25217173Y11570533D01*
X25411578Y11539742D01*
X25411583Y11539742D01*
X25608422Y11539742D01*
X25802826Y11570533D01*
X25882574Y11596445D01*
X25990025Y11631358D01*
X26165405Y11720718D01*
X26324646Y11836414D01*
X26463828Y11975596D01*
X26579524Y12134837D01*
X26668884Y12310217D01*
X26669515Y12311455D01*
X26717489Y12362252D01*
X26785310Y12379047D01*
X26851445Y12356510D01*
X26890485Y12311455D01*
X26980474Y12134839D01*
X26984817Y12128862D01*
X27096172Y11975596D01*
X27235354Y11836414D01*
X27394595Y11720718D01*
X27469214Y11682698D01*
X27569970Y11631360D01*
X27569972Y11631360D01*
X27569975Y11631358D01*
X27670317Y11598755D01*
X27757173Y11570533D01*
X27951578Y11539742D01*
X27951583Y11539742D01*
X28148422Y11539742D01*
X28342826Y11570533D01*
X28422574Y11596445D01*
X28530025Y11631358D01*
X28705405Y11720718D01*
X28864646Y11836414D01*
X29003828Y11975596D01*
X29119524Y12134837D01*
X29208884Y12310217D01*
X29209515Y12311455D01*
X29257489Y12362252D01*
X29325310Y12379047D01*
X29391445Y12356510D01*
X29430485Y12311455D01*
X29520474Y12134839D01*
X29524817Y12128862D01*
X29636172Y11975596D01*
X29775354Y11836414D01*
X29934595Y11720718D01*
X30009214Y11682698D01*
X30109970Y11631360D01*
X30109972Y11631360D01*
X30109975Y11631358D01*
X30210317Y11598755D01*
X30297173Y11570533D01*
X30491578Y11539742D01*
X30491583Y11539742D01*
X30688422Y11539742D01*
X30882826Y11570533D01*
X30962574Y11596445D01*
X31070025Y11631358D01*
X31245405Y11720718D01*
X31404646Y11836414D01*
X31543828Y11975596D01*
X31659524Y12134837D01*
X31748884Y12310217D01*
X31749515Y12311455D01*
X31797489Y12362252D01*
X31865310Y12379047D01*
X31931445Y12356510D01*
X31970485Y12311455D01*
X32060474Y12134839D01*
X32064817Y12128862D01*
X32176172Y11975596D01*
X32315354Y11836414D01*
X32474595Y11720718D01*
X32549214Y11682698D01*
X32649970Y11631360D01*
X32649972Y11631360D01*
X32649975Y11631358D01*
X32750317Y11598755D01*
X32837173Y11570533D01*
X33031578Y11539742D01*
X33031583Y11539742D01*
X33228422Y11539742D01*
X33422826Y11570533D01*
X33502574Y11596445D01*
X33610025Y11631358D01*
X33785405Y11720718D01*
X33944646Y11836414D01*
X34083828Y11975596D01*
X34199524Y12134837D01*
X34288884Y12310217D01*
X34289515Y12311455D01*
X34337489Y12362252D01*
X34405310Y12379047D01*
X34471445Y12356510D01*
X34510485Y12311455D01*
X34600474Y12134839D01*
X34604817Y12128862D01*
X34716172Y11975596D01*
X34855354Y11836414D01*
X35014595Y11720718D01*
X35089214Y11682698D01*
X35189970Y11631360D01*
X35189972Y11631360D01*
X35189975Y11631358D01*
X35290317Y11598755D01*
X35377173Y11570533D01*
X35571578Y11539742D01*
X35571583Y11539742D01*
X35768422Y11539742D01*
X35962826Y11570533D01*
X36042574Y11596445D01*
X36150025Y11631358D01*
X36325405Y11720718D01*
X36484646Y11836414D01*
X36623828Y11975596D01*
X36739524Y12134837D01*
X36828884Y12310217D01*
X36829515Y12311455D01*
X36877489Y12362252D01*
X36945310Y12379047D01*
X37011445Y12356510D01*
X37050485Y12311455D01*
X37140474Y12134839D01*
X37144817Y12128862D01*
X37256172Y11975596D01*
X37395354Y11836414D01*
X37554595Y11720718D01*
X37629214Y11682698D01*
X37729970Y11631360D01*
X37729972Y11631360D01*
X37729975Y11631358D01*
X37830317Y11598755D01*
X37917173Y11570533D01*
X38111578Y11539742D01*
X38111583Y11539742D01*
X38308422Y11539742D01*
X38502826Y11570533D01*
X38582574Y11596445D01*
X38690025Y11631358D01*
X38865405Y11720718D01*
X39024646Y11836414D01*
X39163828Y11975596D01*
X39279524Y12134837D01*
X39368884Y12310217D01*
X39369515Y12311455D01*
X39417489Y12362252D01*
X39485310Y12379047D01*
X39551445Y12356510D01*
X39590485Y12311455D01*
X39680474Y12134839D01*
X39684817Y12128862D01*
X39796172Y11975596D01*
X39935354Y11836414D01*
X40094595Y11720718D01*
X40169214Y11682698D01*
X40269970Y11631360D01*
X40269972Y11631360D01*
X40269975Y11631358D01*
X40370317Y11598755D01*
X40457173Y11570533D01*
X40651578Y11539742D01*
X40651583Y11539742D01*
X40848422Y11539742D01*
X41042826Y11570533D01*
X41122574Y11596445D01*
X41230025Y11631358D01*
X41405405Y11720718D01*
X41564646Y11836414D01*
X41703828Y11975596D01*
X41819524Y12134837D01*
X41908884Y12310217D01*
X41909515Y12311455D01*
X41957489Y12362252D01*
X42025310Y12379047D01*
X42091445Y12356510D01*
X42130485Y12311455D01*
X42220474Y12134839D01*
X42224817Y12128862D01*
X42336172Y11975596D01*
X42475354Y11836414D01*
X42634595Y11720718D01*
X42709214Y11682698D01*
X42809970Y11631360D01*
X42809972Y11631360D01*
X42809975Y11631358D01*
X42910317Y11598755D01*
X42997173Y11570533D01*
X43191578Y11539742D01*
X43191583Y11539742D01*
X43388422Y11539742D01*
X43582826Y11570533D01*
X43662574Y11596445D01*
X43770025Y11631358D01*
X43945405Y11720718D01*
X44104646Y11836414D01*
X44243828Y11975596D01*
X44359524Y12134837D01*
X44448884Y12310217D01*
X44449515Y12311455D01*
X44497489Y12362252D01*
X44565310Y12379047D01*
X44631445Y12356510D01*
X44670485Y12311455D01*
X44760474Y12134839D01*
X44764817Y12128862D01*
X44876172Y11975596D01*
X45015354Y11836414D01*
X45174595Y11720718D01*
X45249214Y11682698D01*
X45349970Y11631360D01*
X45349972Y11631360D01*
X45349975Y11631358D01*
X45450317Y11598755D01*
X45537173Y11570533D01*
X45731578Y11539742D01*
X45731583Y11539742D01*
X45928422Y11539742D01*
X46122826Y11570533D01*
X46202574Y11596445D01*
X46310025Y11631358D01*
X46485405Y11720718D01*
X46644646Y11836414D01*
X46783828Y11975596D01*
X46899524Y12134837D01*
X46988884Y12310217D01*
X46989515Y12311455D01*
X47037489Y12362252D01*
X47105310Y12379047D01*
X47171445Y12356510D01*
X47210485Y12311455D01*
X47300474Y12134839D01*
X47304817Y12128862D01*
X47416172Y11975596D01*
X47555354Y11836414D01*
X47714595Y11720718D01*
X47789214Y11682698D01*
X47889970Y11631360D01*
X47889972Y11631360D01*
X47889975Y11631358D01*
X47990317Y11598755D01*
X48077173Y11570533D01*
X48271578Y11539742D01*
X48271583Y11539742D01*
X48468422Y11539742D01*
X48662826Y11570533D01*
X48742574Y11596445D01*
X48850025Y11631358D01*
X49025405Y11720718D01*
X49184646Y11836414D01*
X49323828Y11975596D01*
X49439524Y12134837D01*
X49528884Y12310217D01*
X49529515Y12311455D01*
X49577489Y12362252D01*
X49645310Y12379047D01*
X49711445Y12356510D01*
X49750485Y12311455D01*
X49840474Y12134839D01*
X49844817Y12128862D01*
X49956172Y11975596D01*
X50095354Y11836414D01*
X50254595Y11720718D01*
X50329214Y11682698D01*
X50429970Y11631360D01*
X50429972Y11631360D01*
X50429975Y11631358D01*
X50530317Y11598755D01*
X50617173Y11570533D01*
X50811578Y11539742D01*
X50811583Y11539742D01*
X51008422Y11539742D01*
X51202826Y11570533D01*
X51282574Y11596445D01*
X51390025Y11631358D01*
X51565405Y11720718D01*
X51724646Y11836414D01*
X51863828Y11975596D01*
X51979524Y12134837D01*
X52068884Y12310217D01*
X52069515Y12311455D01*
X52117489Y12362252D01*
X52185310Y12379047D01*
X52251445Y12356510D01*
X52290485Y12311455D01*
X52380474Y12134839D01*
X52384817Y12128862D01*
X52496172Y11975596D01*
X52635354Y11836414D01*
X52794595Y11720718D01*
X52869214Y11682698D01*
X52969970Y11631360D01*
X52969972Y11631360D01*
X52969975Y11631358D01*
X53070317Y11598755D01*
X53157173Y11570533D01*
X53351578Y11539742D01*
X53351583Y11539742D01*
X53548422Y11539742D01*
X53742826Y11570533D01*
X53822574Y11596445D01*
X53930025Y11631358D01*
X54105405Y11720718D01*
X54264646Y11836414D01*
X54403828Y11975596D01*
X54519524Y12134837D01*
X54608884Y12310217D01*
X54609515Y12311455D01*
X54657489Y12362252D01*
X54725310Y12379047D01*
X54791445Y12356510D01*
X54830485Y12311455D01*
X54920474Y12134839D01*
X54924817Y12128862D01*
X55036172Y11975596D01*
X55175354Y11836414D01*
X55334595Y11720718D01*
X55409214Y11682698D01*
X55509970Y11631360D01*
X55509972Y11631360D01*
X55509975Y11631358D01*
X55610317Y11598755D01*
X55697173Y11570533D01*
X55891578Y11539742D01*
X55891583Y11539742D01*
X56088422Y11539742D01*
X56282826Y11570533D01*
X56362574Y11596445D01*
X56470025Y11631358D01*
X56645405Y11720718D01*
X56804646Y11836414D01*
X56943828Y11975596D01*
X57059524Y12134837D01*
X57148884Y12310217D01*
X57149515Y12311455D01*
X57197489Y12362252D01*
X57265310Y12379047D01*
X57331445Y12356510D01*
X57370485Y12311455D01*
X57460474Y12134839D01*
X57464817Y12128862D01*
X57576172Y11975596D01*
X57715354Y11836414D01*
X57874595Y11720718D01*
X57949214Y11682698D01*
X58049970Y11631360D01*
X58049972Y11631360D01*
X58049975Y11631358D01*
X58150317Y11598755D01*
X58237173Y11570533D01*
X58431578Y11539742D01*
X58431583Y11539742D01*
X58628422Y11539742D01*
X58822826Y11570533D01*
X58902574Y11596445D01*
X59010025Y11631358D01*
X59185405Y11720718D01*
X59344646Y11836414D01*
X59483828Y11975596D01*
X59599524Y12134837D01*
X59688884Y12310217D01*
X59689515Y12311455D01*
X59737489Y12362252D01*
X59805310Y12379047D01*
X59871445Y12356510D01*
X59910485Y12311455D01*
X60000474Y12134839D01*
X60004817Y12128862D01*
X60116172Y11975596D01*
X60255354Y11836414D01*
X60414595Y11720718D01*
X60489214Y11682698D01*
X60589970Y11631360D01*
X60589972Y11631360D01*
X60589975Y11631358D01*
X60690317Y11598755D01*
X60777173Y11570533D01*
X60971578Y11539742D01*
X60971583Y11539742D01*
X61168422Y11539742D01*
X61362826Y11570533D01*
X61442574Y11596445D01*
X61550025Y11631358D01*
X61725405Y11720718D01*
X61884646Y11836414D01*
X62023828Y11975596D01*
X62139524Y12134837D01*
X62228884Y12310217D01*
X62229515Y12311455D01*
X62277489Y12362252D01*
X62345310Y12379047D01*
X62411445Y12356510D01*
X62450485Y12311455D01*
X62540474Y12134839D01*
X62544817Y12128862D01*
X62656172Y11975596D01*
X62795354Y11836414D01*
X62954595Y11720718D01*
X63029214Y11682698D01*
X63129970Y11631360D01*
X63129972Y11631360D01*
X63129975Y11631358D01*
X63230317Y11598755D01*
X63317173Y11570533D01*
X63511578Y11539742D01*
X63511583Y11539742D01*
X63708422Y11539742D01*
X63902826Y11570533D01*
X63982574Y11596445D01*
X64090025Y11631358D01*
X64265405Y11720718D01*
X64424646Y11836414D01*
X64563828Y11975596D01*
X64679524Y12134837D01*
X64768884Y12310217D01*
X64769515Y12311455D01*
X64817489Y12362252D01*
X64885310Y12379047D01*
X64951445Y12356510D01*
X64990485Y12311455D01*
X65080474Y12134839D01*
X65084817Y12128862D01*
X65196172Y11975596D01*
X65335354Y11836414D01*
X65494595Y11720718D01*
X65569214Y11682698D01*
X65669970Y11631360D01*
X65669972Y11631360D01*
X65669975Y11631358D01*
X65770317Y11598755D01*
X65857173Y11570533D01*
X66051578Y11539742D01*
X66051583Y11539742D01*
X66248422Y11539742D01*
X66442826Y11570533D01*
X66522574Y11596445D01*
X66630025Y11631358D01*
X66805405Y11720718D01*
X66964646Y11836414D01*
X67103828Y11975596D01*
X67219524Y12134837D01*
X67308884Y12310217D01*
X67309515Y12311455D01*
X67357489Y12362252D01*
X67425310Y12379047D01*
X67491445Y12356510D01*
X67530485Y12311455D01*
X67620474Y12134839D01*
X67624817Y12128862D01*
X67736172Y11975596D01*
X67875354Y11836414D01*
X68034595Y11720718D01*
X68109214Y11682698D01*
X68209970Y11631360D01*
X68209972Y11631360D01*
X68209975Y11631358D01*
X68310317Y11598755D01*
X68397173Y11570533D01*
X68591578Y11539742D01*
X68591583Y11539742D01*
X68788422Y11539742D01*
X68982826Y11570533D01*
X69062574Y11596445D01*
X69170025Y11631358D01*
X69345405Y11720718D01*
X69504646Y11836414D01*
X69643828Y11975596D01*
X69755184Y12128864D01*
X69810512Y12171528D01*
X69880125Y12177507D01*
X69941920Y12144901D01*
X69976277Y12084063D01*
X69979500Y12055979D01*
X69979500Y11992373D01*
X69979501Y11992366D01*
X69985908Y11932759D01*
X70036202Y11797914D01*
X70036206Y11797907D01*
X70122452Y11682698D01*
X70122455Y11682695D01*
X70237664Y11596449D01*
X70237671Y11596445D01*
X70372517Y11546151D01*
X70372516Y11546151D01*
X70379444Y11545407D01*
X70432127Y11539742D01*
X72027872Y11539743D01*
X72087483Y11546151D01*
X72222331Y11596446D01*
X72337546Y11682696D01*
X72423796Y11797911D01*
X72474091Y11932759D01*
X72480500Y11992369D01*
X72480499Y13588114D01*
X72474091Y13647725D01*
X72472802Y13651180D01*
X72423797Y13782571D01*
X72423793Y13782577D01*
X72417826Y13790549D01*
X72417825Y13790550D01*
X72366754Y13858772D01*
X82524500Y13858772D01*
X82524500Y13691229D01*
X82557182Y13526926D01*
X82557184Y13526918D01*
X82621295Y13372140D01*
X82714373Y13232838D01*
X82832837Y13114374D01*
X82917450Y13057838D01*
X82972137Y13021297D01*
X83126918Y12957184D01*
X83291228Y12924501D01*
X83291232Y12924500D01*
X83291233Y12924500D01*
X83458768Y12924500D01*
X83458769Y12924501D01*
X83623082Y12957184D01*
X83777863Y13021297D01*
X83917162Y13114374D01*
X84035626Y13232838D01*
X84128703Y13372137D01*
X84192816Y13526918D01*
X84225500Y13691233D01*
X84225500Y13708772D01*
X87574500Y13708772D01*
X87574500Y13541229D01*
X87607182Y13376926D01*
X87607184Y13376918D01*
X87671295Y13222140D01*
X87764373Y13082838D01*
X87882837Y12964374D01*
X87942512Y12924501D01*
X88022137Y12871297D01*
X88176918Y12807184D01*
X88302598Y12782185D01*
X88341228Y12774501D01*
X88341232Y12774500D01*
X88341233Y12774500D01*
X88508768Y12774500D01*
X88508769Y12774501D01*
X88673082Y12807184D01*
X88827863Y12871297D01*
X88967162Y12964374D01*
X89085626Y13082838D01*
X89178703Y13222137D01*
X89242816Y13376918D01*
X89275500Y13541233D01*
X89275500Y13683772D01*
X89999500Y13683772D01*
X89999500Y13516229D01*
X90032182Y13351926D01*
X90032184Y13351918D01*
X90096295Y13197140D01*
X90189373Y13057838D01*
X90307837Y12939374D01*
X90330098Y12924500D01*
X90447137Y12846297D01*
X90601918Y12782184D01*
X90766228Y12749501D01*
X90766232Y12749500D01*
X90766233Y12749500D01*
X90933768Y12749500D01*
X90933769Y12749501D01*
X91098082Y12782184D01*
X91252863Y12846297D01*
X91392162Y12939374D01*
X91510626Y13057838D01*
X91603703Y13197137D01*
X91667816Y13351918D01*
X91700500Y13516233D01*
X91700500Y13683767D01*
X91667816Y13848082D01*
X91612398Y13981871D01*
X91603704Y14002861D01*
X91510626Y14142163D01*
X91392162Y14260627D01*
X91252860Y14353705D01*
X91098082Y14417816D01*
X91098074Y14417818D01*
X90933771Y14450500D01*
X90933767Y14450500D01*
X90766233Y14450500D01*
X90766228Y14450500D01*
X90601925Y14417818D01*
X90601917Y14417816D01*
X90447139Y14353705D01*
X90307837Y14260627D01*
X90189373Y14142163D01*
X90096295Y14002861D01*
X90032184Y13848083D01*
X90032182Y13848075D01*
X89999500Y13683772D01*
X89275500Y13683772D01*
X89275500Y13708767D01*
X89242816Y13873082D01*
X89186151Y14009882D01*
X89178704Y14027861D01*
X89085626Y14167163D01*
X88967162Y14285627D01*
X88827860Y14378705D01*
X88673082Y14442816D01*
X88673074Y14442818D01*
X88508771Y14475500D01*
X88508767Y14475500D01*
X88341233Y14475500D01*
X88341228Y14475500D01*
X88176925Y14442818D01*
X88176917Y14442816D01*
X88022139Y14378705D01*
X87882837Y14285627D01*
X87764373Y14167163D01*
X87671295Y14027861D01*
X87607184Y13873083D01*
X87607182Y13873075D01*
X87574500Y13708772D01*
X84225500Y13708772D01*
X84225500Y13858767D01*
X84192816Y14023082D01*
X84128703Y14177863D01*
X84097537Y14224506D01*
X84035626Y14317163D01*
X83917162Y14435627D01*
X83777860Y14528705D01*
X83623082Y14592816D01*
X83623074Y14592818D01*
X83458771Y14625500D01*
X83458767Y14625500D01*
X83291233Y14625500D01*
X83291228Y14625500D01*
X83126925Y14592818D01*
X83126917Y14592816D01*
X82972139Y14528705D01*
X82832837Y14435627D01*
X82714373Y14317163D01*
X82621295Y14177861D01*
X82557184Y14023083D01*
X82557182Y14023075D01*
X82524500Y13858772D01*
X72366754Y13858772D01*
X72337547Y13897787D01*
X72337544Y13897790D01*
X72222335Y13984036D01*
X72222328Y13984040D01*
X72087482Y14034334D01*
X72087483Y14034334D01*
X72027883Y14040741D01*
X72027881Y14040742D01*
X72027873Y14040742D01*
X72027865Y14040742D01*
X70834501Y14040742D01*
X70767462Y14060427D01*
X70721707Y14113231D01*
X70711763Y14182389D01*
X70719940Y14212195D01*
X70740001Y14260626D01*
X70777816Y14351918D01*
X70810500Y14516233D01*
X70810500Y14683767D01*
X70777816Y14848082D01*
X70713703Y15002863D01*
X70682537Y15049506D01*
X70620626Y15142163D01*
X70502162Y15260627D01*
X70362860Y15353705D01*
X70208082Y15417816D01*
X70208074Y15417818D01*
X70043771Y15450500D01*
X70043767Y15450500D01*
X69876233Y15450500D01*
X69876228Y15450500D01*
X69711925Y15417818D01*
X69711917Y15417816D01*
X69557139Y15353705D01*
X69417837Y15260627D01*
X69299373Y15142163D01*
X69206295Y15002861D01*
X69142184Y14848083D01*
X69142182Y14848075D01*
X69109500Y14683772D01*
X69109500Y14516229D01*
X69142182Y14351926D01*
X69142184Y14351918D01*
X69200059Y14212195D01*
X69206297Y14197137D01*
X69219176Y14177863D01*
X69229362Y14162618D01*
X69250239Y14095940D01*
X69231754Y14028560D01*
X69179775Y13981871D01*
X69110804Y13970695D01*
X69087941Y13975797D01*
X69062578Y13984038D01*
X68982826Y14009952D01*
X68788422Y14040742D01*
X68788417Y14040742D01*
X68591583Y14040742D01*
X68591578Y14040742D01*
X68397173Y14009952D01*
X68209970Y13949125D01*
X68034594Y13859766D01*
X67943741Y13793757D01*
X67875354Y13744070D01*
X67875352Y13744068D01*
X67875351Y13744068D01*
X67736174Y13604891D01*
X67736174Y13604890D01*
X67736172Y13604888D01*
X67689924Y13541233D01*
X67620476Y13445648D01*
X67530485Y13269029D01*
X67482511Y13218233D01*
X67414690Y13201438D01*
X67348555Y13223975D01*
X67309515Y13269029D01*
X67219523Y13445648D01*
X67219521Y13445651D01*
X67103828Y13604888D01*
X66964646Y13744070D01*
X66805405Y13859766D01*
X66630029Y13949125D01*
X66442826Y14009952D01*
X66248422Y14040742D01*
X66248417Y14040742D01*
X66051583Y14040742D01*
X66051578Y14040742D01*
X65857172Y14009951D01*
X65857169Y14009951D01*
X65752058Y13975797D01*
X65682217Y13973802D01*
X65622384Y14009882D01*
X65591556Y14072583D01*
X65599521Y14141997D01*
X65610632Y14162610D01*
X65633703Y14197137D01*
X65697816Y14351918D01*
X65730500Y14516233D01*
X65730500Y14683767D01*
X65697816Y14848082D01*
X65633703Y15002863D01*
X65602537Y15049506D01*
X65540626Y15142163D01*
X65422162Y15260627D01*
X65282860Y15353705D01*
X65128082Y15417816D01*
X65128074Y15417818D01*
X64963771Y15450500D01*
X64963767Y15450500D01*
X64796233Y15450500D01*
X64796228Y15450500D01*
X64631925Y15417818D01*
X64631917Y15417816D01*
X64477139Y15353705D01*
X64337837Y15260627D01*
X64219373Y15142163D01*
X64126295Y15002861D01*
X64062184Y14848083D01*
X64062182Y14848075D01*
X64029500Y14683772D01*
X64029500Y14516229D01*
X64062182Y14351926D01*
X64062184Y14351918D01*
X64120059Y14212195D01*
X64126297Y14197137D01*
X64139176Y14177863D01*
X64149362Y14162618D01*
X64170239Y14095940D01*
X64151754Y14028560D01*
X64099775Y13981871D01*
X64030804Y13970695D01*
X64007941Y13975797D01*
X63982578Y13984038D01*
X63902826Y14009952D01*
X63708422Y14040742D01*
X63708417Y14040742D01*
X63511583Y14040742D01*
X63511578Y14040742D01*
X63317173Y14009952D01*
X63129970Y13949125D01*
X62954594Y13859766D01*
X62863741Y13793757D01*
X62795354Y13744070D01*
X62795352Y13744068D01*
X62795351Y13744068D01*
X62656174Y13604891D01*
X62656174Y13604890D01*
X62656172Y13604888D01*
X62609924Y13541233D01*
X62540476Y13445648D01*
X62450485Y13269029D01*
X62402511Y13218233D01*
X62334690Y13201438D01*
X62268555Y13223975D01*
X62229515Y13269029D01*
X62139523Y13445648D01*
X62139521Y13445651D01*
X62023828Y13604888D01*
X61884646Y13744070D01*
X61725405Y13859766D01*
X61550029Y13949125D01*
X61362826Y14009952D01*
X61168422Y14040742D01*
X61168417Y14040742D01*
X60971583Y14040742D01*
X60971578Y14040742D01*
X60777172Y14009951D01*
X60777169Y14009951D01*
X60672058Y13975797D01*
X60602217Y13973802D01*
X60542384Y14009882D01*
X60511556Y14072583D01*
X60519521Y14141997D01*
X60530632Y14162610D01*
X60553703Y14197137D01*
X60617816Y14351918D01*
X60650500Y14516233D01*
X60650500Y14683767D01*
X60617816Y14848082D01*
X60553703Y15002863D01*
X60522537Y15049506D01*
X60460626Y15142163D01*
X60342162Y15260627D01*
X60202860Y15353705D01*
X60048082Y15417816D01*
X60048074Y15417818D01*
X59883771Y15450500D01*
X59883767Y15450500D01*
X59716233Y15450500D01*
X59716228Y15450500D01*
X59551925Y15417818D01*
X59551917Y15417816D01*
X59397139Y15353705D01*
X59257837Y15260627D01*
X59139373Y15142163D01*
X59046295Y15002861D01*
X58982184Y14848083D01*
X58982182Y14848075D01*
X58949500Y14683772D01*
X58949500Y14516229D01*
X58982182Y14351926D01*
X58982184Y14351918D01*
X59040059Y14212195D01*
X59046297Y14197137D01*
X59059176Y14177863D01*
X59069362Y14162618D01*
X59090239Y14095940D01*
X59071754Y14028560D01*
X59019775Y13981871D01*
X58950804Y13970695D01*
X58927941Y13975797D01*
X58902578Y13984038D01*
X58822826Y14009952D01*
X58628422Y14040742D01*
X58628417Y14040742D01*
X58431583Y14040742D01*
X58431578Y14040742D01*
X58237173Y14009952D01*
X58049970Y13949125D01*
X57874594Y13859766D01*
X57783741Y13793757D01*
X57715354Y13744070D01*
X57715352Y13744068D01*
X57715351Y13744068D01*
X57576174Y13604891D01*
X57576174Y13604890D01*
X57576172Y13604888D01*
X57529924Y13541233D01*
X57460476Y13445648D01*
X57370485Y13269029D01*
X57322511Y13218233D01*
X57254690Y13201438D01*
X57188555Y13223975D01*
X57149515Y13269029D01*
X57059523Y13445648D01*
X57059521Y13445651D01*
X56943828Y13604888D01*
X56804646Y13744070D01*
X56645405Y13859766D01*
X56470029Y13949125D01*
X56282826Y14009952D01*
X56088422Y14040742D01*
X56088417Y14040742D01*
X55891583Y14040742D01*
X55891578Y14040742D01*
X55697172Y14009951D01*
X55697169Y14009951D01*
X55592058Y13975797D01*
X55522217Y13973802D01*
X55462384Y14009882D01*
X55431556Y14072583D01*
X55439521Y14141997D01*
X55450632Y14162610D01*
X55473703Y14197137D01*
X55537816Y14351918D01*
X55570500Y14516233D01*
X55570500Y14683767D01*
X55537816Y14848082D01*
X55473703Y15002863D01*
X55442537Y15049506D01*
X55380626Y15142163D01*
X55262162Y15260627D01*
X55122860Y15353705D01*
X54968082Y15417816D01*
X54968074Y15417818D01*
X54803771Y15450500D01*
X54803767Y15450500D01*
X54636233Y15450500D01*
X54636228Y15450500D01*
X54471925Y15417818D01*
X54471917Y15417816D01*
X54317139Y15353705D01*
X54177837Y15260627D01*
X54059373Y15142163D01*
X53966295Y15002861D01*
X53902184Y14848083D01*
X53902182Y14848075D01*
X53869500Y14683772D01*
X53869500Y14516229D01*
X53902182Y14351926D01*
X53902184Y14351918D01*
X53960059Y14212195D01*
X53966297Y14197137D01*
X53979176Y14177863D01*
X53989362Y14162618D01*
X54010239Y14095940D01*
X53991754Y14028560D01*
X53939775Y13981871D01*
X53870804Y13970695D01*
X53847941Y13975797D01*
X53822578Y13984038D01*
X53742826Y14009952D01*
X53548422Y14040742D01*
X53548417Y14040742D01*
X53351583Y14040742D01*
X53351578Y14040742D01*
X53157173Y14009952D01*
X52969970Y13949125D01*
X52794594Y13859766D01*
X52703741Y13793757D01*
X52635354Y13744070D01*
X52635352Y13744068D01*
X52635351Y13744068D01*
X52496174Y13604891D01*
X52496174Y13604890D01*
X52496172Y13604888D01*
X52449924Y13541233D01*
X52380476Y13445648D01*
X52290485Y13269029D01*
X52242511Y13218233D01*
X52174690Y13201438D01*
X52108555Y13223975D01*
X52069515Y13269029D01*
X51979523Y13445648D01*
X51979521Y13445651D01*
X51863828Y13604888D01*
X51724646Y13744070D01*
X51565405Y13859766D01*
X51390029Y13949125D01*
X51202826Y14009952D01*
X51008422Y14040742D01*
X51008417Y14040742D01*
X50811583Y14040742D01*
X50811578Y14040742D01*
X50617172Y14009951D01*
X50617169Y14009951D01*
X50512058Y13975797D01*
X50442217Y13973802D01*
X50382384Y14009882D01*
X50351556Y14072583D01*
X50359521Y14141997D01*
X50370632Y14162610D01*
X50393703Y14197137D01*
X50457816Y14351918D01*
X50490500Y14516233D01*
X50490500Y14683767D01*
X50457816Y14848082D01*
X50393703Y15002863D01*
X50362537Y15049506D01*
X50300626Y15142163D01*
X50182162Y15260627D01*
X50042860Y15353705D01*
X49888082Y15417816D01*
X49888074Y15417818D01*
X49723771Y15450500D01*
X49723767Y15450500D01*
X49556233Y15450500D01*
X49556228Y15450500D01*
X49391925Y15417818D01*
X49391917Y15417816D01*
X49237139Y15353705D01*
X49097837Y15260627D01*
X48979373Y15142163D01*
X48886295Y15002861D01*
X48822184Y14848083D01*
X48822182Y14848075D01*
X48789500Y14683772D01*
X48789500Y14516229D01*
X48822182Y14351926D01*
X48822184Y14351918D01*
X48880059Y14212195D01*
X48886297Y14197137D01*
X48899176Y14177863D01*
X48909362Y14162618D01*
X48930239Y14095940D01*
X48911754Y14028560D01*
X48859775Y13981871D01*
X48790804Y13970695D01*
X48767941Y13975797D01*
X48742578Y13984038D01*
X48662826Y14009952D01*
X48468422Y14040742D01*
X48468417Y14040742D01*
X48271583Y14040742D01*
X48271578Y14040742D01*
X48077173Y14009952D01*
X47889970Y13949125D01*
X47714594Y13859766D01*
X47623741Y13793757D01*
X47555354Y13744070D01*
X47555352Y13744068D01*
X47555351Y13744068D01*
X47416174Y13604891D01*
X47416174Y13604890D01*
X47416172Y13604888D01*
X47369924Y13541233D01*
X47300476Y13445648D01*
X47210485Y13269029D01*
X47162511Y13218233D01*
X47094690Y13201438D01*
X47028555Y13223975D01*
X46989515Y13269029D01*
X46899523Y13445648D01*
X46899521Y13445651D01*
X46783828Y13604888D01*
X46644646Y13744070D01*
X46485405Y13859766D01*
X46310029Y13949125D01*
X46122826Y14009952D01*
X45928422Y14040742D01*
X45928417Y14040742D01*
X45731583Y14040742D01*
X45731578Y14040742D01*
X45537172Y14009951D01*
X45537169Y14009951D01*
X45432058Y13975797D01*
X45362217Y13973802D01*
X45302384Y14009882D01*
X45271556Y14072583D01*
X45279521Y14141997D01*
X45290632Y14162610D01*
X45313703Y14197137D01*
X45377816Y14351918D01*
X45410500Y14516233D01*
X45410500Y14683767D01*
X45377816Y14848082D01*
X45313703Y15002863D01*
X45282537Y15049506D01*
X45220626Y15142163D01*
X45102162Y15260627D01*
X44962860Y15353705D01*
X44808082Y15417816D01*
X44808074Y15417818D01*
X44643771Y15450500D01*
X44643767Y15450500D01*
X44476233Y15450500D01*
X44476228Y15450500D01*
X44311925Y15417818D01*
X44311917Y15417816D01*
X44157139Y15353705D01*
X44017837Y15260627D01*
X43899373Y15142163D01*
X43806295Y15002861D01*
X43742184Y14848083D01*
X43742182Y14848075D01*
X43709500Y14683772D01*
X43709500Y14516229D01*
X43742182Y14351926D01*
X43742184Y14351918D01*
X43800059Y14212195D01*
X43806297Y14197137D01*
X43819176Y14177863D01*
X43829362Y14162618D01*
X43850239Y14095940D01*
X43831754Y14028560D01*
X43779775Y13981871D01*
X43710804Y13970695D01*
X43687941Y13975797D01*
X43662578Y13984038D01*
X43582826Y14009952D01*
X43388422Y14040742D01*
X43388417Y14040742D01*
X43191583Y14040742D01*
X43191578Y14040742D01*
X42997173Y14009952D01*
X42809970Y13949125D01*
X42634594Y13859766D01*
X42543741Y13793757D01*
X42475354Y13744070D01*
X42475352Y13744068D01*
X42475351Y13744068D01*
X42336174Y13604891D01*
X42336174Y13604890D01*
X42336172Y13604888D01*
X42289924Y13541233D01*
X42220476Y13445648D01*
X42130485Y13269029D01*
X42082511Y13218233D01*
X42014690Y13201438D01*
X41948555Y13223975D01*
X41909515Y13269029D01*
X41819523Y13445648D01*
X41819521Y13445651D01*
X41703828Y13604888D01*
X41564646Y13744070D01*
X41405405Y13859766D01*
X41230029Y13949125D01*
X41042826Y14009952D01*
X40848422Y14040742D01*
X40848417Y14040742D01*
X40651583Y14040742D01*
X40651578Y14040742D01*
X40457172Y14009951D01*
X40457169Y14009951D01*
X40352058Y13975797D01*
X40282217Y13973802D01*
X40222384Y14009882D01*
X40191556Y14072583D01*
X40199521Y14141997D01*
X40210632Y14162610D01*
X40233703Y14197137D01*
X40297816Y14351918D01*
X40330500Y14516233D01*
X40330500Y14683767D01*
X40297816Y14848082D01*
X40233703Y15002863D01*
X40202537Y15049506D01*
X40140626Y15142163D01*
X40022162Y15260627D01*
X39882860Y15353705D01*
X39728082Y15417816D01*
X39728074Y15417818D01*
X39563771Y15450500D01*
X39563767Y15450500D01*
X39396233Y15450500D01*
X39396228Y15450500D01*
X39231925Y15417818D01*
X39231917Y15417816D01*
X39077139Y15353705D01*
X38937837Y15260627D01*
X38819373Y15142163D01*
X38726295Y15002861D01*
X38662184Y14848083D01*
X38662182Y14848075D01*
X38629500Y14683772D01*
X38629500Y14516229D01*
X38662182Y14351926D01*
X38662184Y14351918D01*
X38720059Y14212195D01*
X38726297Y14197137D01*
X38739176Y14177863D01*
X38749362Y14162618D01*
X38770239Y14095940D01*
X38751754Y14028560D01*
X38699775Y13981871D01*
X38630804Y13970695D01*
X38607941Y13975797D01*
X38582578Y13984038D01*
X38502826Y14009952D01*
X38308422Y14040742D01*
X38308417Y14040742D01*
X38111583Y14040742D01*
X38111578Y14040742D01*
X37917173Y14009952D01*
X37729970Y13949125D01*
X37554594Y13859766D01*
X37463741Y13793757D01*
X37395354Y13744070D01*
X37395352Y13744068D01*
X37395351Y13744068D01*
X37256174Y13604891D01*
X37256174Y13604890D01*
X37256172Y13604888D01*
X37209924Y13541233D01*
X37140476Y13445648D01*
X37050485Y13269029D01*
X37002511Y13218233D01*
X36934690Y13201438D01*
X36868555Y13223975D01*
X36829515Y13269029D01*
X36739523Y13445648D01*
X36739521Y13445651D01*
X36623828Y13604888D01*
X36484646Y13744070D01*
X36325405Y13859766D01*
X36150029Y13949125D01*
X35962826Y14009952D01*
X35768422Y14040742D01*
X35768417Y14040742D01*
X35571583Y14040742D01*
X35571578Y14040742D01*
X35377172Y14009951D01*
X35377169Y14009951D01*
X35272058Y13975797D01*
X35202217Y13973802D01*
X35142384Y14009882D01*
X35111556Y14072583D01*
X35119521Y14141997D01*
X35130632Y14162610D01*
X35153703Y14197137D01*
X35217816Y14351918D01*
X35250500Y14516233D01*
X35250500Y14683767D01*
X35217816Y14848082D01*
X35153703Y15002863D01*
X35122537Y15049506D01*
X35060626Y15142163D01*
X34942162Y15260627D01*
X34802860Y15353705D01*
X34648082Y15417816D01*
X34648074Y15417818D01*
X34483771Y15450500D01*
X34483767Y15450500D01*
X34316233Y15450500D01*
X34316228Y15450500D01*
X34151925Y15417818D01*
X34151917Y15417816D01*
X33997139Y15353705D01*
X33857837Y15260627D01*
X33739373Y15142163D01*
X33646295Y15002861D01*
X33582184Y14848083D01*
X33582182Y14848075D01*
X33549500Y14683772D01*
X33549500Y14516229D01*
X33582182Y14351926D01*
X33582184Y14351918D01*
X33640059Y14212195D01*
X33646297Y14197137D01*
X33659176Y14177863D01*
X33669362Y14162618D01*
X33690239Y14095940D01*
X33671754Y14028560D01*
X33619775Y13981871D01*
X33550804Y13970695D01*
X33527941Y13975797D01*
X33502578Y13984038D01*
X33422826Y14009952D01*
X33228422Y14040742D01*
X33228417Y14040742D01*
X33031583Y14040742D01*
X33031578Y14040742D01*
X32837173Y14009952D01*
X32649970Y13949125D01*
X32474594Y13859766D01*
X32383741Y13793757D01*
X32315354Y13744070D01*
X32315352Y13744068D01*
X32315351Y13744068D01*
X32176174Y13604891D01*
X32176174Y13604890D01*
X32176172Y13604888D01*
X32129924Y13541233D01*
X32060476Y13445648D01*
X31970485Y13269029D01*
X31922511Y13218233D01*
X31854690Y13201438D01*
X31788555Y13223975D01*
X31749515Y13269029D01*
X31659523Y13445648D01*
X31659521Y13445651D01*
X31543828Y13604888D01*
X31404646Y13744070D01*
X31245405Y13859766D01*
X31070029Y13949125D01*
X30882826Y14009952D01*
X30688422Y14040742D01*
X30688417Y14040742D01*
X30491583Y14040742D01*
X30491578Y14040742D01*
X30297172Y14009951D01*
X30297169Y14009951D01*
X30192058Y13975797D01*
X30122217Y13973802D01*
X30062384Y14009882D01*
X30031556Y14072583D01*
X30039521Y14141997D01*
X30050632Y14162610D01*
X30073703Y14197137D01*
X30137816Y14351918D01*
X30170500Y14516233D01*
X30170500Y14683767D01*
X30137816Y14848082D01*
X30073703Y15002863D01*
X30042537Y15049506D01*
X29980626Y15142163D01*
X29862162Y15260627D01*
X29722860Y15353705D01*
X29568082Y15417816D01*
X29568074Y15417818D01*
X29403771Y15450500D01*
X29403767Y15450500D01*
X29236233Y15450500D01*
X29236228Y15450500D01*
X29071925Y15417818D01*
X29071917Y15417816D01*
X28917139Y15353705D01*
X28777837Y15260627D01*
X28659373Y15142163D01*
X28566295Y15002861D01*
X28502184Y14848083D01*
X28502182Y14848075D01*
X28469500Y14683772D01*
X28469500Y14516229D01*
X28502182Y14351926D01*
X28502184Y14351918D01*
X28560059Y14212195D01*
X28566297Y14197137D01*
X28579176Y14177863D01*
X28589362Y14162618D01*
X28610239Y14095940D01*
X28591754Y14028560D01*
X28539775Y13981871D01*
X28470804Y13970695D01*
X28447941Y13975797D01*
X28422578Y13984038D01*
X28342826Y14009952D01*
X28148422Y14040742D01*
X28148417Y14040742D01*
X27951583Y14040742D01*
X27951578Y14040742D01*
X27757173Y14009952D01*
X27569970Y13949125D01*
X27394594Y13859766D01*
X27303741Y13793757D01*
X27235354Y13744070D01*
X27235352Y13744068D01*
X27235351Y13744068D01*
X27096174Y13604891D01*
X27096174Y13604890D01*
X27096172Y13604888D01*
X27049924Y13541233D01*
X26980476Y13445648D01*
X26890485Y13269029D01*
X26842511Y13218233D01*
X26774690Y13201438D01*
X26708555Y13223975D01*
X26669515Y13269029D01*
X26579523Y13445648D01*
X26579521Y13445651D01*
X26463828Y13604888D01*
X26324646Y13744070D01*
X26165405Y13859766D01*
X25990029Y13949125D01*
X25802826Y14009952D01*
X25608422Y14040742D01*
X25608417Y14040742D01*
X25411583Y14040742D01*
X25411578Y14040742D01*
X25217172Y14009951D01*
X25217169Y14009951D01*
X25112058Y13975797D01*
X25042217Y13973802D01*
X24982384Y14009882D01*
X24951556Y14072583D01*
X24959521Y14141997D01*
X24970632Y14162610D01*
X24993703Y14197137D01*
X25057816Y14351918D01*
X25090500Y14516233D01*
X25090500Y14683767D01*
X25057816Y14848082D01*
X24993703Y15002863D01*
X24962537Y15049506D01*
X24900626Y15142163D01*
X24782162Y15260627D01*
X24642860Y15353705D01*
X24488082Y15417816D01*
X24488074Y15417818D01*
X24323771Y15450500D01*
X24323767Y15450500D01*
X24156233Y15450500D01*
X24156228Y15450500D01*
X23991925Y15417818D01*
X23991917Y15417816D01*
X23837139Y15353705D01*
X23697837Y15260627D01*
X23579373Y15142163D01*
X23486295Y15002861D01*
X23422184Y14848083D01*
X23422182Y14848075D01*
X23389500Y14683772D01*
X23389500Y14516229D01*
X23422182Y14351926D01*
X23422184Y14351918D01*
X23480059Y14212195D01*
X23486297Y14197137D01*
X23499176Y14177863D01*
X23509362Y14162618D01*
X23530239Y14095940D01*
X23511754Y14028560D01*
X23459775Y13981871D01*
X23390804Y13970695D01*
X23367941Y13975797D01*
X23342578Y13984038D01*
X23262826Y14009952D01*
X23068422Y14040742D01*
X23068417Y14040742D01*
X22871583Y14040742D01*
X22871578Y14040742D01*
X22677173Y14009952D01*
X22489970Y13949125D01*
X22314594Y13859766D01*
X22223741Y13793757D01*
X22155354Y13744070D01*
X22155352Y13744068D01*
X22155351Y13744068D01*
X22016174Y13604891D01*
X22016174Y13604890D01*
X22016172Y13604888D01*
X21969924Y13541233D01*
X21900476Y13445648D01*
X21810485Y13269029D01*
X21762511Y13218233D01*
X21694690Y13201438D01*
X21628555Y13223975D01*
X21589515Y13269029D01*
X21499523Y13445648D01*
X21499521Y13445651D01*
X21383828Y13604888D01*
X21244646Y13744070D01*
X21085405Y13859766D01*
X20910029Y13949125D01*
X20722826Y14009952D01*
X20528422Y14040742D01*
X20528417Y14040742D01*
X20331583Y14040742D01*
X20331578Y14040742D01*
X20137172Y14009951D01*
X20137169Y14009951D01*
X20032058Y13975797D01*
X19962217Y13973802D01*
X19902384Y14009882D01*
X19871556Y14072583D01*
X19879521Y14141997D01*
X19890632Y14162610D01*
X19913703Y14197137D01*
X19977816Y14351918D01*
X20010500Y14516233D01*
X20010500Y14683767D01*
X19977816Y14848082D01*
X19913703Y15002863D01*
X19882537Y15049506D01*
X19820626Y15142163D01*
X19702162Y15260627D01*
X19562860Y15353705D01*
X19408082Y15417816D01*
X19408074Y15417818D01*
X19243771Y15450500D01*
X19243767Y15450500D01*
X19076233Y15450500D01*
X19076228Y15450500D01*
X18911925Y15417818D01*
X18911917Y15417816D01*
X18757139Y15353705D01*
X18617837Y15260627D01*
X18499373Y15142163D01*
X18406295Y15002861D01*
X18342184Y14848083D01*
X18342182Y14848075D01*
X18309500Y14683772D01*
X18309500Y14516229D01*
X18342182Y14351926D01*
X18342184Y14351918D01*
X18400059Y14212195D01*
X18406297Y14197137D01*
X18419176Y14177863D01*
X18429362Y14162618D01*
X18450239Y14095940D01*
X18431754Y14028560D01*
X18379775Y13981871D01*
X18310804Y13970695D01*
X18287941Y13975797D01*
X18262578Y13984038D01*
X18182826Y14009952D01*
X17988422Y14040742D01*
X17988417Y14040742D01*
X17791583Y14040742D01*
X17791578Y14040742D01*
X17597173Y14009952D01*
X17409970Y13949125D01*
X17234594Y13859766D01*
X17143741Y13793757D01*
X17075354Y13744070D01*
X17075352Y13744068D01*
X17075351Y13744068D01*
X16936174Y13604891D01*
X16936174Y13604890D01*
X16936172Y13604888D01*
X16889924Y13541233D01*
X16820476Y13445648D01*
X16730485Y13269029D01*
X16682511Y13218233D01*
X16614690Y13201438D01*
X16548555Y13223975D01*
X16509515Y13269029D01*
X16419523Y13445648D01*
X16419521Y13445651D01*
X16303828Y13604888D01*
X16164646Y13744070D01*
X16005405Y13859766D01*
X15830029Y13949125D01*
X15642826Y14009952D01*
X15448422Y14040742D01*
X15448417Y14040742D01*
X15251583Y14040742D01*
X15251578Y14040742D01*
X15057172Y14009951D01*
X15057169Y14009951D01*
X14952058Y13975797D01*
X14882217Y13973802D01*
X14822384Y14009882D01*
X14791556Y14072583D01*
X14799521Y14141997D01*
X14810632Y14162610D01*
X14833703Y14197137D01*
X14897816Y14351918D01*
X14930500Y14516233D01*
X14930500Y14683767D01*
X14897816Y14848082D01*
X14833703Y15002863D01*
X14802537Y15049506D01*
X14740626Y15142163D01*
X14622162Y15260627D01*
X14482860Y15353705D01*
X14328082Y15417816D01*
X14328074Y15417818D01*
X14163771Y15450500D01*
X14163767Y15450500D01*
X13996233Y15450500D01*
X13996228Y15450500D01*
X13831925Y15417818D01*
X13831917Y15417816D01*
X13677139Y15353705D01*
X13537837Y15260627D01*
X13419373Y15142163D01*
X13326295Y15002861D01*
X13262184Y14848083D01*
X13262182Y14848075D01*
X13229500Y14683772D01*
X13229500Y14516229D01*
X13262182Y14351926D01*
X13262184Y14351918D01*
X13320059Y14212195D01*
X13326297Y14197137D01*
X13339176Y14177863D01*
X13349362Y14162618D01*
X13370239Y14095940D01*
X13351754Y14028560D01*
X13299775Y13981871D01*
X13230804Y13970695D01*
X13207941Y13975797D01*
X13182578Y13984038D01*
X13102826Y14009952D01*
X12908422Y14040742D01*
X12908417Y14040742D01*
X12711583Y14040742D01*
X12711578Y14040742D01*
X12517173Y14009952D01*
X12329970Y13949125D01*
X12154594Y13859766D01*
X12063741Y13793757D01*
X11995354Y13744070D01*
X11995352Y13744068D01*
X11995351Y13744068D01*
X11856174Y13604891D01*
X11856174Y13604890D01*
X11856172Y13604888D01*
X11809924Y13541233D01*
X11740476Y13445648D01*
X11651117Y13270272D01*
X11590290Y13083069D01*
X11559500Y12888665D01*
X500500Y12888665D01*
X500500Y19888179D01*
X2145500Y19888179D01*
X2145500Y19612306D01*
X2181506Y19338804D01*
X2181507Y19338799D01*
X2181508Y19338793D01*
X2181509Y19338791D01*
X2252908Y19072323D01*
X2358475Y18817460D01*
X2358482Y18817445D01*
X2496413Y18578540D01*
X2664362Y18359666D01*
X2859423Y18164605D01*
X2859427Y18164602D01*
X2859429Y18164600D01*
X3078293Y17996659D01*
X3078297Y17996656D01*
X3317202Y17858725D01*
X3317217Y17858718D01*
X3449020Y17804124D01*
X3572079Y17753151D01*
X3838551Y17681750D01*
X4031718Y17656320D01*
X4112063Y17645742D01*
X4112064Y17645742D01*
X4387937Y17645742D01*
X4450038Y17653918D01*
X4661449Y17681750D01*
X4927921Y17753151D01*
X5182794Y17858723D01*
X5421707Y17996659D01*
X5640571Y18164600D01*
X5835642Y18359671D01*
X6003583Y18578535D01*
X6141519Y18817448D01*
X6247091Y19072321D01*
X6318492Y19338793D01*
X6354500Y19612306D01*
X6354500Y19783772D01*
X11849500Y19783772D01*
X11849500Y19616229D01*
X11882182Y19451926D01*
X11882184Y19451918D01*
X11946295Y19297140D01*
X12039373Y19157838D01*
X12157837Y19039374D01*
X12250494Y18977463D01*
X12297137Y18946297D01*
X12451918Y18882184D01*
X12616228Y18849501D01*
X12616232Y18849500D01*
X12616233Y18849500D01*
X12783768Y18849500D01*
X12783769Y18849501D01*
X12948082Y18882184D01*
X13102863Y18946297D01*
X13242162Y19039374D01*
X13360626Y19157838D01*
X13453703Y19297137D01*
X13517816Y19451918D01*
X13550500Y19616233D01*
X13550500Y19783767D01*
X13550499Y19783772D01*
X19349500Y19783772D01*
X19349500Y19616229D01*
X19382182Y19451926D01*
X19382184Y19451918D01*
X19446295Y19297140D01*
X19539373Y19157838D01*
X19657837Y19039374D01*
X19750494Y18977463D01*
X19797137Y18946297D01*
X19951918Y18882184D01*
X20116228Y18849501D01*
X20116232Y18849500D01*
X20116233Y18849500D01*
X20283768Y18849500D01*
X20283769Y18849501D01*
X20448082Y18882184D01*
X20602863Y18946297D01*
X20742162Y19039374D01*
X20860626Y19157838D01*
X20953703Y19297137D01*
X21017816Y19451918D01*
X21050500Y19616233D01*
X21050500Y19783767D01*
X21050499Y19783772D01*
X22049500Y19783772D01*
X22049500Y19616229D01*
X22082182Y19451926D01*
X22082184Y19451918D01*
X22146295Y19297140D01*
X22239373Y19157838D01*
X22357837Y19039374D01*
X22450494Y18977463D01*
X22497137Y18946297D01*
X22651918Y18882184D01*
X22816228Y18849501D01*
X22816232Y18849500D01*
X22816233Y18849500D01*
X22983768Y18849500D01*
X22983769Y18849501D01*
X23148082Y18882184D01*
X23302863Y18946297D01*
X23442162Y19039374D01*
X23560626Y19157838D01*
X23653703Y19297137D01*
X23717816Y19451918D01*
X23750500Y19616233D01*
X23750500Y19783767D01*
X23750499Y19783772D01*
X29549500Y19783772D01*
X29549500Y19616229D01*
X29582182Y19451926D01*
X29582184Y19451918D01*
X29646295Y19297140D01*
X29739373Y19157838D01*
X29857837Y19039374D01*
X29950494Y18977463D01*
X29997137Y18946297D01*
X30151918Y18882184D01*
X30316228Y18849501D01*
X30316232Y18849500D01*
X30316233Y18849500D01*
X30483768Y18849500D01*
X30483769Y18849501D01*
X30648082Y18882184D01*
X30802863Y18946297D01*
X30942162Y19039374D01*
X31060626Y19157838D01*
X31153703Y19297137D01*
X31217816Y19451918D01*
X31250500Y19616233D01*
X31250500Y19783767D01*
X31250499Y19783772D01*
X32249500Y19783772D01*
X32249500Y19616229D01*
X32282182Y19451926D01*
X32282184Y19451918D01*
X32346295Y19297140D01*
X32439373Y19157838D01*
X32557837Y19039374D01*
X32650494Y18977463D01*
X32697137Y18946297D01*
X32851918Y18882184D01*
X33016228Y18849501D01*
X33016232Y18849500D01*
X33016233Y18849500D01*
X33183768Y18849500D01*
X33183769Y18849501D01*
X33348082Y18882184D01*
X33502863Y18946297D01*
X33642162Y19039374D01*
X33760626Y19157838D01*
X33853703Y19297137D01*
X33917816Y19451918D01*
X33950500Y19616233D01*
X33950500Y19783767D01*
X33950499Y19783772D01*
X39649500Y19783772D01*
X39649500Y19616229D01*
X39682182Y19451926D01*
X39682184Y19451918D01*
X39746295Y19297140D01*
X39839373Y19157838D01*
X39957837Y19039374D01*
X40050494Y18977463D01*
X40097137Y18946297D01*
X40251918Y18882184D01*
X40416228Y18849501D01*
X40416232Y18849500D01*
X40416233Y18849500D01*
X40583768Y18849500D01*
X40583769Y18849501D01*
X40748082Y18882184D01*
X40902863Y18946297D01*
X41042162Y19039374D01*
X41160626Y19157838D01*
X41253703Y19297137D01*
X41317816Y19451918D01*
X41350500Y19616233D01*
X41350500Y19783767D01*
X41350499Y19783772D01*
X42449500Y19783772D01*
X42449500Y19616229D01*
X42482182Y19451926D01*
X42482184Y19451918D01*
X42546295Y19297140D01*
X42639373Y19157838D01*
X42757837Y19039374D01*
X42850494Y18977463D01*
X42897137Y18946297D01*
X43051918Y18882184D01*
X43216228Y18849501D01*
X43216232Y18849500D01*
X43216233Y18849500D01*
X43383768Y18849500D01*
X43383769Y18849501D01*
X43548082Y18882184D01*
X43702863Y18946297D01*
X43842162Y19039374D01*
X43960626Y19157838D01*
X44053703Y19297137D01*
X44117816Y19451918D01*
X44150500Y19616233D01*
X44150500Y19783767D01*
X44150499Y19783772D01*
X49849500Y19783772D01*
X49849500Y19616229D01*
X49882182Y19451926D01*
X49882184Y19451918D01*
X49946295Y19297140D01*
X50039373Y19157838D01*
X50157837Y19039374D01*
X50250494Y18977463D01*
X50297137Y18946297D01*
X50451918Y18882184D01*
X50616228Y18849501D01*
X50616232Y18849500D01*
X50616233Y18849500D01*
X50783768Y18849500D01*
X50783769Y18849501D01*
X50948082Y18882184D01*
X51102863Y18946297D01*
X51242162Y19039374D01*
X51360626Y19157838D01*
X51453703Y19297137D01*
X51517816Y19451918D01*
X51550500Y19616233D01*
X51550500Y19783767D01*
X51550499Y19783772D01*
X52649500Y19783772D01*
X52649500Y19616229D01*
X52682182Y19451926D01*
X52682184Y19451918D01*
X52746295Y19297140D01*
X52839373Y19157838D01*
X52957837Y19039374D01*
X53050494Y18977463D01*
X53097137Y18946297D01*
X53251918Y18882184D01*
X53416228Y18849501D01*
X53416232Y18849500D01*
X53416233Y18849500D01*
X53583768Y18849500D01*
X53583769Y18849501D01*
X53748082Y18882184D01*
X53902863Y18946297D01*
X54042162Y19039374D01*
X54160626Y19157838D01*
X54253703Y19297137D01*
X54317816Y19451918D01*
X54350500Y19616233D01*
X54350500Y19783767D01*
X54350499Y19783772D01*
X60049500Y19783772D01*
X60049500Y19616229D01*
X60082182Y19451926D01*
X60082184Y19451918D01*
X60146295Y19297140D01*
X60239373Y19157838D01*
X60357837Y19039374D01*
X60450494Y18977463D01*
X60497137Y18946297D01*
X60651918Y18882184D01*
X60816228Y18849501D01*
X60816232Y18849500D01*
X60816233Y18849500D01*
X60983768Y18849500D01*
X60983769Y18849501D01*
X61148082Y18882184D01*
X61302863Y18946297D01*
X61442162Y19039374D01*
X61560626Y19157838D01*
X61653703Y19297137D01*
X61717816Y19451918D01*
X61750500Y19616233D01*
X61750500Y19783767D01*
X61750499Y19783772D01*
X62749500Y19783772D01*
X62749500Y19616229D01*
X62782182Y19451926D01*
X62782184Y19451918D01*
X62846295Y19297140D01*
X62939373Y19157838D01*
X63057837Y19039374D01*
X63150494Y18977463D01*
X63197137Y18946297D01*
X63351918Y18882184D01*
X63516228Y18849501D01*
X63516232Y18849500D01*
X63516233Y18849500D01*
X63683768Y18849500D01*
X63683769Y18849501D01*
X63848082Y18882184D01*
X64002863Y18946297D01*
X64142162Y19039374D01*
X64260626Y19157838D01*
X64353703Y19297137D01*
X64417816Y19451918D01*
X64450500Y19616233D01*
X64450500Y19783767D01*
X64450499Y19783772D01*
X70249500Y19783772D01*
X70249500Y19616229D01*
X70282182Y19451926D01*
X70282184Y19451918D01*
X70346295Y19297140D01*
X70439373Y19157838D01*
X70557837Y19039374D01*
X70650494Y18977463D01*
X70697137Y18946297D01*
X70851918Y18882184D01*
X71016228Y18849501D01*
X71016232Y18849500D01*
X71016233Y18849500D01*
X71183768Y18849500D01*
X71183769Y18849501D01*
X71348082Y18882184D01*
X71502863Y18946297D01*
X71642162Y19039374D01*
X71760626Y19157838D01*
X71853703Y19297137D01*
X71917816Y19451918D01*
X71950500Y19616233D01*
X71950500Y19783767D01*
X71933736Y19868047D01*
X71933736Y19868050D01*
X71929732Y19888179D01*
X93645500Y19888179D01*
X93645500Y19612306D01*
X93681506Y19338804D01*
X93681507Y19338799D01*
X93681508Y19338793D01*
X93681509Y19338791D01*
X93752908Y19072323D01*
X93858475Y18817460D01*
X93858482Y18817445D01*
X93996413Y18578540D01*
X94164362Y18359666D01*
X94359423Y18164605D01*
X94359427Y18164602D01*
X94359429Y18164600D01*
X94578293Y17996659D01*
X94578297Y17996656D01*
X94817202Y17858725D01*
X94817217Y17858718D01*
X94949020Y17804124D01*
X95072079Y17753151D01*
X95338551Y17681750D01*
X95531718Y17656320D01*
X95612063Y17645742D01*
X95612064Y17645742D01*
X95887937Y17645742D01*
X95950038Y17653918D01*
X96161449Y17681750D01*
X96427921Y17753151D01*
X96682794Y17858723D01*
X96921707Y17996659D01*
X97140571Y18164600D01*
X97335642Y18359671D01*
X97503583Y18578535D01*
X97641519Y18817448D01*
X97747091Y19072321D01*
X97818492Y19338793D01*
X97854500Y19612306D01*
X97854500Y19888178D01*
X97818492Y20161691D01*
X97747091Y20428163D01*
X97641519Y20683036D01*
X97641517Y20683040D01*
X97503586Y20921945D01*
X97335637Y21140819D01*
X97140576Y21335880D01*
X96921702Y21503829D01*
X96682797Y21641760D01*
X96682782Y21641767D01*
X96427919Y21747334D01*
X96294685Y21783034D01*
X96161449Y21818734D01*
X96161443Y21818735D01*
X96161438Y21818736D01*
X95887937Y21854742D01*
X95887936Y21854742D01*
X95612064Y21854742D01*
X95612063Y21854742D01*
X95338561Y21818736D01*
X95338554Y21818735D01*
X95338551Y21818734D01*
X95282236Y21803645D01*
X95072080Y21747334D01*
X94817217Y21641767D01*
X94817202Y21641760D01*
X94578297Y21503829D01*
X94359423Y21335880D01*
X94164362Y21140819D01*
X93996413Y20921945D01*
X93858482Y20683040D01*
X93858475Y20683025D01*
X93752908Y20428162D01*
X93681509Y20161694D01*
X93681506Y20161681D01*
X93645500Y19888179D01*
X71929732Y19888179D01*
X71917817Y19948077D01*
X71917816Y19948078D01*
X71917816Y19948082D01*
X71853703Y20102863D01*
X71814393Y20161694D01*
X71760626Y20242163D01*
X71642162Y20360627D01*
X71502860Y20453705D01*
X71348082Y20517816D01*
X71348074Y20517818D01*
X71183771Y20550500D01*
X71183767Y20550500D01*
X71016233Y20550500D01*
X71016228Y20550500D01*
X70851925Y20517818D01*
X70851917Y20517816D01*
X70697139Y20453705D01*
X70557837Y20360627D01*
X70439373Y20242163D01*
X70346295Y20102861D01*
X70282184Y19948083D01*
X70282182Y19948075D01*
X70249500Y19783772D01*
X64450499Y19783772D01*
X64417816Y19948082D01*
X64353703Y20102863D01*
X64314393Y20161694D01*
X64260626Y20242163D01*
X64142162Y20360627D01*
X64002860Y20453705D01*
X63848082Y20517816D01*
X63848074Y20517818D01*
X63683771Y20550500D01*
X63683767Y20550500D01*
X63516233Y20550500D01*
X63516228Y20550500D01*
X63351925Y20517818D01*
X63351917Y20517816D01*
X63197139Y20453705D01*
X63057837Y20360627D01*
X62939373Y20242163D01*
X62846295Y20102861D01*
X62782184Y19948083D01*
X62782182Y19948075D01*
X62749500Y19783772D01*
X61750499Y19783772D01*
X61717816Y19948082D01*
X61653703Y20102863D01*
X61614393Y20161694D01*
X61560626Y20242163D01*
X61442162Y20360627D01*
X61302860Y20453705D01*
X61148082Y20517816D01*
X61148074Y20517818D01*
X60983771Y20550500D01*
X60983767Y20550500D01*
X60816233Y20550500D01*
X60816228Y20550500D01*
X60651925Y20517818D01*
X60651917Y20517816D01*
X60497139Y20453705D01*
X60357837Y20360627D01*
X60239373Y20242163D01*
X60146295Y20102861D01*
X60082184Y19948083D01*
X60082182Y19948075D01*
X60049500Y19783772D01*
X54350499Y19783772D01*
X54317816Y19948082D01*
X54253703Y20102863D01*
X54214393Y20161694D01*
X54160626Y20242163D01*
X54042162Y20360627D01*
X53902860Y20453705D01*
X53748082Y20517816D01*
X53748074Y20517818D01*
X53583771Y20550500D01*
X53583767Y20550500D01*
X53416233Y20550500D01*
X53416228Y20550500D01*
X53251925Y20517818D01*
X53251917Y20517816D01*
X53097139Y20453705D01*
X52957837Y20360627D01*
X52839373Y20242163D01*
X52746295Y20102861D01*
X52682184Y19948083D01*
X52682182Y19948075D01*
X52649500Y19783772D01*
X51550499Y19783772D01*
X51517816Y19948082D01*
X51453703Y20102863D01*
X51414393Y20161694D01*
X51360626Y20242163D01*
X51242162Y20360627D01*
X51102860Y20453705D01*
X50948082Y20517816D01*
X50948074Y20517818D01*
X50783771Y20550500D01*
X50783767Y20550500D01*
X50616233Y20550500D01*
X50616228Y20550500D01*
X50451925Y20517818D01*
X50451917Y20517816D01*
X50297139Y20453705D01*
X50157837Y20360627D01*
X50039373Y20242163D01*
X49946295Y20102861D01*
X49882184Y19948083D01*
X49882182Y19948075D01*
X49849500Y19783772D01*
X44150499Y19783772D01*
X44117816Y19948082D01*
X44053703Y20102863D01*
X44014393Y20161694D01*
X43960626Y20242163D01*
X43842162Y20360627D01*
X43702860Y20453705D01*
X43548082Y20517816D01*
X43548074Y20517818D01*
X43383771Y20550500D01*
X43383767Y20550500D01*
X43216233Y20550500D01*
X43216228Y20550500D01*
X43051925Y20517818D01*
X43051917Y20517816D01*
X42897139Y20453705D01*
X42757837Y20360627D01*
X42639373Y20242163D01*
X42546295Y20102861D01*
X42482184Y19948083D01*
X42482182Y19948075D01*
X42449500Y19783772D01*
X41350499Y19783772D01*
X41317816Y19948082D01*
X41253703Y20102863D01*
X41214393Y20161694D01*
X41160626Y20242163D01*
X41042162Y20360627D01*
X40902860Y20453705D01*
X40748082Y20517816D01*
X40748074Y20517818D01*
X40583771Y20550500D01*
X40583767Y20550500D01*
X40416233Y20550500D01*
X40416228Y20550500D01*
X40251925Y20517818D01*
X40251917Y20517816D01*
X40097139Y20453705D01*
X39957837Y20360627D01*
X39839373Y20242163D01*
X39746295Y20102861D01*
X39682184Y19948083D01*
X39682182Y19948075D01*
X39649500Y19783772D01*
X33950499Y19783772D01*
X33917816Y19948082D01*
X33853703Y20102863D01*
X33814393Y20161694D01*
X33760626Y20242163D01*
X33642162Y20360627D01*
X33502860Y20453705D01*
X33348082Y20517816D01*
X33348074Y20517818D01*
X33183771Y20550500D01*
X33183767Y20550500D01*
X33016233Y20550500D01*
X33016228Y20550500D01*
X32851925Y20517818D01*
X32851917Y20517816D01*
X32697139Y20453705D01*
X32557837Y20360627D01*
X32439373Y20242163D01*
X32346295Y20102861D01*
X32282184Y19948083D01*
X32282182Y19948075D01*
X32249500Y19783772D01*
X31250499Y19783772D01*
X31217816Y19948082D01*
X31153703Y20102863D01*
X31114393Y20161694D01*
X31060626Y20242163D01*
X30942162Y20360627D01*
X30802860Y20453705D01*
X30648082Y20517816D01*
X30648074Y20517818D01*
X30483771Y20550500D01*
X30483767Y20550500D01*
X30316233Y20550500D01*
X30316228Y20550500D01*
X30151925Y20517818D01*
X30151917Y20517816D01*
X29997139Y20453705D01*
X29857837Y20360627D01*
X29739373Y20242163D01*
X29646295Y20102861D01*
X29582184Y19948083D01*
X29582182Y19948075D01*
X29549500Y19783772D01*
X23750499Y19783772D01*
X23717816Y19948082D01*
X23653703Y20102863D01*
X23614393Y20161694D01*
X23560626Y20242163D01*
X23442162Y20360627D01*
X23302860Y20453705D01*
X23148082Y20517816D01*
X23148074Y20517818D01*
X22983771Y20550500D01*
X22983767Y20550500D01*
X22816233Y20550500D01*
X22816228Y20550500D01*
X22651925Y20517818D01*
X22651917Y20517816D01*
X22497139Y20453705D01*
X22357837Y20360627D01*
X22239373Y20242163D01*
X22146295Y20102861D01*
X22082184Y19948083D01*
X22082182Y19948075D01*
X22049500Y19783772D01*
X21050499Y19783772D01*
X21017816Y19948082D01*
X20953703Y20102863D01*
X20914393Y20161694D01*
X20860626Y20242163D01*
X20742162Y20360627D01*
X20602860Y20453705D01*
X20448082Y20517816D01*
X20448074Y20517818D01*
X20283771Y20550500D01*
X20283767Y20550500D01*
X20116233Y20550500D01*
X20116228Y20550500D01*
X19951925Y20517818D01*
X19951917Y20517816D01*
X19797139Y20453705D01*
X19657837Y20360627D01*
X19539373Y20242163D01*
X19446295Y20102861D01*
X19382184Y19948083D01*
X19382182Y19948075D01*
X19349500Y19783772D01*
X13550499Y19783772D01*
X13517816Y19948082D01*
X13453703Y20102863D01*
X13414393Y20161694D01*
X13360626Y20242163D01*
X13242162Y20360627D01*
X13102860Y20453705D01*
X12948082Y20517816D01*
X12948074Y20517818D01*
X12783771Y20550500D01*
X12783767Y20550500D01*
X12616233Y20550500D01*
X12616228Y20550500D01*
X12451925Y20517818D01*
X12451917Y20517816D01*
X12297139Y20453705D01*
X12157837Y20360627D01*
X12039373Y20242163D01*
X11946295Y20102861D01*
X11882184Y19948083D01*
X11882182Y19948075D01*
X11849500Y19783772D01*
X6354500Y19783772D01*
X6354500Y19888178D01*
X6318492Y20161691D01*
X6247091Y20428163D01*
X6141519Y20683036D01*
X6141517Y20683040D01*
X6003586Y20921945D01*
X5835637Y21140819D01*
X5640576Y21335880D01*
X5421702Y21503829D01*
X5182797Y21641760D01*
X5182782Y21641767D01*
X4927919Y21747334D01*
X4794685Y21783034D01*
X4661449Y21818734D01*
X4661443Y21818735D01*
X4661438Y21818736D01*
X4387937Y21854742D01*
X4387936Y21854742D01*
X4112064Y21854742D01*
X4112063Y21854742D01*
X3838561Y21818736D01*
X3838554Y21818735D01*
X3838551Y21818734D01*
X3782236Y21803645D01*
X3572080Y21747334D01*
X3317217Y21641767D01*
X3317202Y21641760D01*
X3078297Y21503829D01*
X2859423Y21335880D01*
X2664362Y21140819D01*
X2496413Y20921945D01*
X2358482Y20683040D01*
X2358475Y20683025D01*
X2252908Y20428162D01*
X2181509Y20161694D01*
X2181506Y20161681D01*
X2145500Y19888179D01*
X500500Y19888179D01*
X500500Y24283772D01*
X81424500Y24283772D01*
X81424500Y24116229D01*
X81457182Y23951926D01*
X81457184Y23951918D01*
X81521295Y23797140D01*
X81614373Y23657838D01*
X81732837Y23539374D01*
X81818430Y23482183D01*
X81872137Y23446297D01*
X82026918Y23382184D01*
X82191228Y23349501D01*
X82191232Y23349500D01*
X82191233Y23349500D01*
X82358768Y23349500D01*
X82358769Y23349501D01*
X82523082Y23382184D01*
X82677863Y23446297D01*
X82677862Y23446297D01*
X82682699Y23448300D01*
X82752168Y23455769D01*
X82799042Y23436842D01*
X82897137Y23371297D01*
X83051918Y23307184D01*
X83216228Y23274501D01*
X83216232Y23274500D01*
X83216233Y23274500D01*
X83383768Y23274500D01*
X83383769Y23274501D01*
X83548082Y23307184D01*
X83702863Y23371297D01*
X83842162Y23464374D01*
X83960626Y23582838D01*
X84053703Y23722137D01*
X84117816Y23876918D01*
X84150500Y24041233D01*
X84150500Y24208767D01*
X84135581Y24283772D01*
X84119291Y24365668D01*
X84119290Y24365670D01*
X84117816Y24373082D01*
X84113388Y24383772D01*
X84424500Y24383772D01*
X84424500Y24216229D01*
X84457182Y24051926D01*
X84457184Y24051918D01*
X84521295Y23897140D01*
X84614373Y23757838D01*
X84732837Y23639374D01*
X84806207Y23590350D01*
X84872137Y23546297D01*
X84872138Y23546297D01*
X84872139Y23546296D01*
X84886926Y23540171D01*
X85026918Y23482184D01*
X85191228Y23449501D01*
X85191232Y23449500D01*
X85191233Y23449500D01*
X85358768Y23449500D01*
X85358769Y23449501D01*
X85523082Y23482184D01*
X85677863Y23546297D01*
X85677870Y23546303D01*
X85683230Y23549166D01*
X85684260Y23547238D01*
X85741517Y23565196D01*
X85808906Y23546744D01*
X85812662Y23544333D01*
X85847137Y23521297D01*
X86001918Y23457184D01*
X86166228Y23424501D01*
X86166232Y23424500D01*
X86166233Y23424500D01*
X86333768Y23424500D01*
X86333769Y23424501D01*
X86498082Y23457184D01*
X86652863Y23521297D01*
X86681109Y23540172D01*
X86747786Y23561049D01*
X86815166Y23542565D01*
X86818879Y23540179D01*
X86847137Y23521297D01*
X87001918Y23457184D01*
X87166228Y23424501D01*
X87166232Y23424500D01*
X87166233Y23424500D01*
X87333768Y23424500D01*
X87333769Y23424501D01*
X87498082Y23457184D01*
X87652863Y23521297D01*
X87792162Y23614374D01*
X87910626Y23732838D01*
X88003703Y23872137D01*
X88067816Y24026918D01*
X88100500Y24191233D01*
X88100500Y24358767D01*
X88067816Y24523082D01*
X88003703Y24677863D01*
X87931698Y24785626D01*
X87910626Y24817163D01*
X87792162Y24935627D01*
X87652860Y25028705D01*
X87498082Y25092816D01*
X87498074Y25092818D01*
X87333771Y25125500D01*
X87333767Y25125500D01*
X87166233Y25125500D01*
X87166228Y25125500D01*
X87001925Y25092818D01*
X87001917Y25092816D01*
X86847140Y25028705D01*
X86847127Y25028698D01*
X86818889Y25009830D01*
X86752211Y24988953D01*
X86684832Y25007439D01*
X86681111Y25009830D01*
X86652872Y25028698D01*
X86652859Y25028705D01*
X86498082Y25092816D01*
X86498074Y25092818D01*
X86333771Y25125500D01*
X86333767Y25125500D01*
X86166233Y25125500D01*
X86166228Y25125500D01*
X86001925Y25092818D01*
X86001917Y25092816D01*
X85847135Y25028703D01*
X85841767Y25025833D01*
X85840746Y25027742D01*
X85783359Y25009804D01*
X85715988Y25028322D01*
X85712316Y25030683D01*
X85677869Y25053700D01*
X85677859Y25053705D01*
X85523082Y25117816D01*
X85523074Y25117818D01*
X85358771Y25150500D01*
X85358767Y25150500D01*
X85191233Y25150500D01*
X85191228Y25150500D01*
X85026925Y25117818D01*
X85026917Y25117816D01*
X84872139Y25053705D01*
X84732837Y24960627D01*
X84614373Y24842163D01*
X84521295Y24702861D01*
X84457184Y24548083D01*
X84457182Y24548075D01*
X84424500Y24383772D01*
X84113388Y24383772D01*
X84055686Y24523075D01*
X84053704Y24527861D01*
X83960626Y24667163D01*
X83842162Y24785627D01*
X83702860Y24878705D01*
X83548082Y24942816D01*
X83548074Y24942818D01*
X83383771Y24975500D01*
X83383767Y24975500D01*
X83216233Y24975500D01*
X83216228Y24975500D01*
X83051925Y24942818D01*
X83051917Y24942816D01*
X82892300Y24876700D01*
X82822830Y24869231D01*
X82775956Y24888159D01*
X82704915Y24935627D01*
X82677863Y24953703D01*
X82677862Y24953704D01*
X82677860Y24953705D01*
X82523082Y25017816D01*
X82523074Y25017818D01*
X82358771Y25050500D01*
X82358767Y25050500D01*
X82191233Y25050500D01*
X82191228Y25050500D01*
X82026925Y25017818D01*
X82026917Y25017816D01*
X81872139Y24953705D01*
X81732837Y24860627D01*
X81614373Y24742163D01*
X81521295Y24602861D01*
X81457184Y24448083D01*
X81457182Y24448075D01*
X81424500Y24283772D01*
X500500Y24283772D01*
X500500Y25658772D01*
X79649500Y25658772D01*
X79649500Y25491229D01*
X79682182Y25326926D01*
X79682184Y25326918D01*
X79746295Y25172140D01*
X79839373Y25032838D01*
X79957837Y24914374D01*
X79997071Y24888159D01*
X80097137Y24821297D01*
X80097138Y24821297D01*
X80097139Y24821296D01*
X80132201Y24806773D01*
X80251918Y24757184D01*
X80416228Y24724501D01*
X80416232Y24724500D01*
X80416233Y24724500D01*
X80583768Y24724500D01*
X80583769Y24724501D01*
X80748082Y24757184D01*
X80902863Y24821297D01*
X81042162Y24914374D01*
X81160626Y25032838D01*
X81253703Y25172137D01*
X81317816Y25326918D01*
X81350500Y25491233D01*
X81350500Y25658767D01*
X81317816Y25823082D01*
X81253703Y25977863D01*
X81222537Y26024506D01*
X81160626Y26117163D01*
X81042162Y26235627D01*
X80902860Y26328705D01*
X80748082Y26392816D01*
X80748074Y26392818D01*
X80583771Y26425500D01*
X80583767Y26425500D01*
X80416233Y26425500D01*
X80416228Y26425500D01*
X80251925Y26392818D01*
X80251917Y26392816D01*
X80097139Y26328705D01*
X79957837Y26235627D01*
X79839373Y26117163D01*
X79746295Y25977861D01*
X79682184Y25823083D01*
X79682182Y25823075D01*
X79649500Y25658772D01*
X500500Y25658772D01*
X500500Y27583772D01*
X20449500Y27583772D01*
X20449500Y27416229D01*
X20482182Y27251926D01*
X20482184Y27251918D01*
X20546295Y27097140D01*
X20639373Y26957838D01*
X20757837Y26839374D01*
X20843430Y26782183D01*
X20897137Y26746297D01*
X21051918Y26682184D01*
X21216228Y26649501D01*
X21216232Y26649500D01*
X21216233Y26649500D01*
X21383768Y26649500D01*
X21383769Y26649501D01*
X21548082Y26682184D01*
X21702863Y26746297D01*
X21842162Y26839374D01*
X21960626Y26957838D01*
X22053703Y27097137D01*
X22117816Y27251918D01*
X22150500Y27416233D01*
X22150500Y27583767D01*
X22134209Y27665669D01*
X22134209Y27665672D01*
X22130609Y27683772D01*
X30649500Y27683772D01*
X30649500Y27516229D01*
X30682182Y27351926D01*
X30682184Y27351918D01*
X30746295Y27197140D01*
X30839373Y27057838D01*
X30957837Y26939374D01*
X31050494Y26877463D01*
X31097137Y26846297D01*
X31251918Y26782184D01*
X31416228Y26749501D01*
X31416232Y26749500D01*
X31416233Y26749500D01*
X31583768Y26749500D01*
X31583769Y26749501D01*
X31748082Y26782184D01*
X31902863Y26846297D01*
X32042162Y26939374D01*
X32160626Y27057838D01*
X32253703Y27197137D01*
X32317816Y27351918D01*
X32350500Y27516233D01*
X32350500Y27683767D01*
X32350499Y27683772D01*
X40749500Y27683772D01*
X40749500Y27516229D01*
X40782182Y27351926D01*
X40782184Y27351918D01*
X40846295Y27197140D01*
X40939373Y27057838D01*
X41057837Y26939374D01*
X41150494Y26877463D01*
X41197137Y26846297D01*
X41351918Y26782184D01*
X41516228Y26749501D01*
X41516232Y26749500D01*
X41516233Y26749500D01*
X41683768Y26749500D01*
X41683769Y26749501D01*
X41848082Y26782184D01*
X42002863Y26846297D01*
X42142162Y26939374D01*
X42260626Y27057838D01*
X42353703Y27197137D01*
X42417816Y27351918D01*
X42450500Y27516233D01*
X42450500Y27683767D01*
X42450499Y27683772D01*
X50949500Y27683772D01*
X50949500Y27516229D01*
X50982182Y27351926D01*
X50982184Y27351918D01*
X51046295Y27197140D01*
X51139373Y27057838D01*
X51257837Y26939374D01*
X51350494Y26877463D01*
X51397137Y26846297D01*
X51551918Y26782184D01*
X51716228Y26749501D01*
X51716232Y26749500D01*
X51716233Y26749500D01*
X51883768Y26749500D01*
X51883769Y26749501D01*
X52048082Y26782184D01*
X52202863Y26846297D01*
X52342162Y26939374D01*
X52460626Y27057838D01*
X52553703Y27197137D01*
X52617816Y27351918D01*
X52650500Y27516233D01*
X52650500Y27683767D01*
X52650499Y27683772D01*
X61149500Y27683772D01*
X61149500Y27516229D01*
X61182182Y27351926D01*
X61182184Y27351918D01*
X61246295Y27197140D01*
X61339373Y27057838D01*
X61457837Y26939374D01*
X61550494Y26877463D01*
X61597137Y26846297D01*
X61751918Y26782184D01*
X61916228Y26749501D01*
X61916232Y26749500D01*
X61916233Y26749500D01*
X62083768Y26749500D01*
X62083769Y26749501D01*
X62248082Y26782184D01*
X62402863Y26846297D01*
X62542162Y26939374D01*
X62660626Y27057838D01*
X62753703Y27197137D01*
X62817816Y27351918D01*
X62850500Y27516233D01*
X62850500Y27683767D01*
X62850499Y27683772D01*
X71249500Y27683772D01*
X71249500Y27516229D01*
X71282182Y27351926D01*
X71282184Y27351918D01*
X71346295Y27197140D01*
X71439373Y27057838D01*
X71557837Y26939374D01*
X71650494Y26877463D01*
X71697137Y26846297D01*
X71851918Y26782184D01*
X72016228Y26749501D01*
X72016232Y26749500D01*
X72016233Y26749500D01*
X72183768Y26749500D01*
X72183769Y26749501D01*
X72348082Y26782184D01*
X72502863Y26846297D01*
X72642162Y26939374D01*
X72760626Y27057838D01*
X72853703Y27197137D01*
X72917816Y27351918D01*
X72950500Y27516233D01*
X72950500Y27683767D01*
X72944042Y27716236D01*
X72917817Y27848079D01*
X72917815Y27848083D01*
X72903032Y27883772D01*
X76349500Y27883772D01*
X76349500Y27716229D01*
X76382182Y27551926D01*
X76382184Y27551918D01*
X76446295Y27397140D01*
X76539373Y27257838D01*
X76657837Y27139374D01*
X76721045Y27097140D01*
X76797137Y27046297D01*
X76951918Y26982184D01*
X77074315Y26957838D01*
X77116228Y26949501D01*
X77116232Y26949500D01*
X77116233Y26949500D01*
X77283768Y26949500D01*
X77283769Y26949501D01*
X77448082Y26982184D01*
X77602863Y27046297D01*
X77742162Y27139374D01*
X77860626Y27257838D01*
X77953703Y27397137D01*
X78017816Y27551918D01*
X78044043Y27683772D01*
X79399500Y27683772D01*
X79399500Y27516229D01*
X79432182Y27351926D01*
X79432184Y27351918D01*
X79496295Y27197140D01*
X79589373Y27057838D01*
X79707837Y26939374D01*
X79800494Y26877463D01*
X79847137Y26846297D01*
X80001918Y26782184D01*
X80166228Y26749501D01*
X80166232Y26749500D01*
X80166233Y26749500D01*
X80333768Y26749500D01*
X80333769Y26749501D01*
X80498082Y26782184D01*
X80652863Y26846297D01*
X80792162Y26939374D01*
X80910626Y27057838D01*
X81003703Y27197137D01*
X81067816Y27351918D01*
X81100500Y27516233D01*
X81100500Y27683767D01*
X81067816Y27848082D01*
X81003703Y28002863D01*
X80972537Y28049506D01*
X80910626Y28142163D01*
X80792162Y28260627D01*
X80652860Y28353705D01*
X80498082Y28417816D01*
X80498074Y28417818D01*
X80333771Y28450500D01*
X80333767Y28450500D01*
X80166233Y28450500D01*
X80166228Y28450500D01*
X80001925Y28417818D01*
X80001917Y28417816D01*
X79847139Y28353705D01*
X79707837Y28260627D01*
X79589373Y28142163D01*
X79496295Y28002861D01*
X79432184Y27848083D01*
X79432182Y27848075D01*
X79399500Y27683772D01*
X78044043Y27683772D01*
X78050500Y27716233D01*
X78050500Y27883767D01*
X78017816Y28048082D01*
X77953703Y28202863D01*
X77876894Y28317816D01*
X77860626Y28342163D01*
X77742162Y28460627D01*
X77602860Y28553705D01*
X77448082Y28617816D01*
X77448074Y28617818D01*
X77283771Y28650500D01*
X77283767Y28650500D01*
X77116233Y28650500D01*
X77116228Y28650500D01*
X76951925Y28617818D01*
X76951917Y28617816D01*
X76797139Y28553705D01*
X76657837Y28460627D01*
X76539373Y28342163D01*
X76446295Y28202861D01*
X76382184Y28048083D01*
X76382182Y28048075D01*
X76349500Y27883772D01*
X72903032Y27883772D01*
X72853703Y28002863D01*
X72822537Y28049506D01*
X72760626Y28142163D01*
X72642162Y28260627D01*
X72502860Y28353705D01*
X72348082Y28417816D01*
X72348074Y28417818D01*
X72183771Y28450500D01*
X72183767Y28450500D01*
X72016233Y28450500D01*
X72016228Y28450500D01*
X71851925Y28417818D01*
X71851917Y28417816D01*
X71697139Y28353705D01*
X71557837Y28260627D01*
X71439373Y28142163D01*
X71346295Y28002861D01*
X71282184Y27848083D01*
X71282182Y27848075D01*
X71249500Y27683772D01*
X62850499Y27683772D01*
X62817816Y27848082D01*
X62753703Y28002863D01*
X62722537Y28049506D01*
X62660626Y28142163D01*
X62542162Y28260627D01*
X62402860Y28353705D01*
X62248082Y28417816D01*
X62248074Y28417818D01*
X62083771Y28450500D01*
X62083767Y28450500D01*
X61916233Y28450500D01*
X61916228Y28450500D01*
X61751925Y28417818D01*
X61751917Y28417816D01*
X61597139Y28353705D01*
X61457837Y28260627D01*
X61339373Y28142163D01*
X61246295Y28002861D01*
X61182184Y27848083D01*
X61182182Y27848075D01*
X61149500Y27683772D01*
X52650499Y27683772D01*
X52617816Y27848082D01*
X52553703Y28002863D01*
X52522537Y28049506D01*
X52460626Y28142163D01*
X52342162Y28260627D01*
X52202860Y28353705D01*
X52048082Y28417816D01*
X52048074Y28417818D01*
X51883771Y28450500D01*
X51883767Y28450500D01*
X51716233Y28450500D01*
X51716228Y28450500D01*
X51551925Y28417818D01*
X51551917Y28417816D01*
X51397139Y28353705D01*
X51257837Y28260627D01*
X51139373Y28142163D01*
X51046295Y28002861D01*
X50982184Y27848083D01*
X50982182Y27848075D01*
X50949500Y27683772D01*
X42450499Y27683772D01*
X42417816Y27848082D01*
X42353703Y28002863D01*
X42322537Y28049506D01*
X42260626Y28142163D01*
X42142162Y28260627D01*
X42002860Y28353705D01*
X41848082Y28417816D01*
X41848074Y28417818D01*
X41683771Y28450500D01*
X41683767Y28450500D01*
X41516233Y28450500D01*
X41516228Y28450500D01*
X41351925Y28417818D01*
X41351917Y28417816D01*
X41197139Y28353705D01*
X41057837Y28260627D01*
X40939373Y28142163D01*
X40846295Y28002861D01*
X40782184Y27848083D01*
X40782182Y27848075D01*
X40749500Y27683772D01*
X32350499Y27683772D01*
X32317816Y27848082D01*
X32253703Y28002863D01*
X32222537Y28049506D01*
X32160626Y28142163D01*
X32042162Y28260627D01*
X31902860Y28353705D01*
X31748082Y28417816D01*
X31748074Y28417818D01*
X31583771Y28450500D01*
X31583767Y28450500D01*
X31416233Y28450500D01*
X31416228Y28450500D01*
X31251925Y28417818D01*
X31251917Y28417816D01*
X31097139Y28353705D01*
X30957837Y28260627D01*
X30839373Y28142163D01*
X30746295Y28002861D01*
X30682184Y27848083D01*
X30682182Y27848075D01*
X30649500Y27683772D01*
X22130609Y27683772D01*
X22117817Y27748077D01*
X22117816Y27748078D01*
X22117816Y27748082D01*
X22061613Y27883767D01*
X22053704Y27902861D01*
X21960626Y28042163D01*
X21842162Y28160627D01*
X21702860Y28253705D01*
X21548082Y28317816D01*
X21548074Y28317818D01*
X21383771Y28350500D01*
X21383767Y28350500D01*
X21216233Y28350500D01*
X21216228Y28350500D01*
X21051925Y28317818D01*
X21051917Y28317816D01*
X20897139Y28253705D01*
X20757837Y28160627D01*
X20639373Y28042163D01*
X20546295Y27902861D01*
X20482184Y27748083D01*
X20482182Y27748075D01*
X20449500Y27583772D01*
X500500Y27583772D01*
X500500Y31358772D01*
X84674500Y31358772D01*
X84674500Y31191229D01*
X84707182Y31026926D01*
X84707184Y31026918D01*
X84771295Y30872140D01*
X84864373Y30732838D01*
X84982834Y30614377D01*
X84987546Y30610510D01*
X84986412Y30609129D01*
X85025809Y30561979D01*
X85034509Y30492653D01*
X85004349Y30429629D01*
X84987268Y30414829D01*
X84987546Y30414490D01*
X84982834Y30410624D01*
X84864373Y30292163D01*
X84771295Y30152861D01*
X84707184Y29998083D01*
X84707182Y29998075D01*
X84674500Y29833772D01*
X84674500Y29666229D01*
X84707182Y29501926D01*
X84707184Y29501918D01*
X84771295Y29347140D01*
X84864373Y29207838D01*
X84982837Y29089374D01*
X85075494Y29027463D01*
X85122137Y28996297D01*
X85276918Y28932184D01*
X85441228Y28899501D01*
X85441232Y28899500D01*
X85441233Y28899500D01*
X85608768Y28899500D01*
X85608769Y28899501D01*
X85773082Y28932184D01*
X85927863Y28996297D01*
X86067162Y29089374D01*
X86185626Y29207838D01*
X86278703Y29347137D01*
X86342816Y29501918D01*
X86375500Y29666233D01*
X86375500Y29833767D01*
X86342816Y29998082D01*
X86278703Y30152863D01*
X86247537Y30199506D01*
X86185626Y30292163D01*
X86067165Y30410624D01*
X86062454Y30414490D01*
X86063589Y30415874D01*
X86024197Y30463005D01*
X86015487Y30532329D01*
X86045639Y30595358D01*
X86062732Y30610171D01*
X86062454Y30610510D01*
X86067158Y30614372D01*
X86067162Y30614374D01*
X86185626Y30732838D01*
X86278703Y30872137D01*
X86342816Y31026918D01*
X86375500Y31191233D01*
X86375500Y31358767D01*
X86342816Y31523082D01*
X86278703Y31677863D01*
X86224641Y31758772D01*
X92049500Y31758772D01*
X92049500Y31591229D01*
X92082182Y31426926D01*
X92082184Y31426918D01*
X92146295Y31272140D01*
X92239373Y31132838D01*
X92357837Y31014374D01*
X92450494Y30952463D01*
X92497137Y30921297D01*
X92651918Y30857184D01*
X92816228Y30824501D01*
X92816232Y30824500D01*
X92816233Y30824500D01*
X92983768Y30824500D01*
X92983769Y30824501D01*
X93148082Y30857184D01*
X93302863Y30921297D01*
X93442162Y31014374D01*
X93560626Y31132838D01*
X93653703Y31272137D01*
X93717816Y31426918D01*
X93750500Y31591233D01*
X93750500Y31758767D01*
X93717816Y31923082D01*
X93653703Y32077863D01*
X93621873Y32125500D01*
X93560626Y32217163D01*
X93442162Y32335627D01*
X93302860Y32428705D01*
X93148082Y32492816D01*
X93148074Y32492818D01*
X92983771Y32525500D01*
X92983767Y32525500D01*
X92816233Y32525500D01*
X92816228Y32525500D01*
X92651925Y32492818D01*
X92651917Y32492816D01*
X92497139Y32428705D01*
X92357837Y32335627D01*
X92239373Y32217163D01*
X92146295Y32077861D01*
X92082184Y31923083D01*
X92082182Y31923075D01*
X92049500Y31758772D01*
X86224641Y31758772D01*
X86185626Y31817162D01*
X86185625Y31817163D01*
X86185623Y31817166D01*
X86067162Y31935627D01*
X85927860Y32028705D01*
X85773082Y32092816D01*
X85773074Y32092818D01*
X85608771Y32125500D01*
X85608767Y32125500D01*
X85441233Y32125500D01*
X85441228Y32125500D01*
X85276925Y32092818D01*
X85276917Y32092816D01*
X85122139Y32028705D01*
X84982837Y31935627D01*
X84864373Y31817163D01*
X84771295Y31677861D01*
X84707184Y31523083D01*
X84707182Y31523075D01*
X84674500Y31358772D01*
X500500Y31358772D01*
X500500Y34658772D01*
X70674500Y34658772D01*
X70674500Y34491229D01*
X70707182Y34326926D01*
X70707184Y34326918D01*
X70771295Y34172140D01*
X70864373Y34032838D01*
X70982837Y33914374D01*
X71028243Y33884035D01*
X71122137Y33821297D01*
X71276918Y33757184D01*
X71441228Y33724501D01*
X71441232Y33724500D01*
X71441233Y33724500D01*
X71608768Y33724500D01*
X71608769Y33724501D01*
X71773082Y33757184D01*
X71927863Y33821297D01*
X71927871Y33821303D01*
X71928811Y33821804D01*
X71929367Y33821920D01*
X71933491Y33823628D01*
X71933814Y33822847D01*
X71997212Y33836051D01*
X72062458Y33811056D01*
X72084964Y33787099D01*
X72085510Y33787546D01*
X72089376Y33782835D01*
X72207837Y33664374D01*
X72300494Y33602463D01*
X72347137Y33571297D01*
X72501918Y33507184D01*
X72666228Y33474501D01*
X72666232Y33474500D01*
X72666233Y33474500D01*
X72833768Y33474500D01*
X72833769Y33474501D01*
X72998082Y33507184D01*
X73152863Y33571297D01*
X73292162Y33664374D01*
X73410626Y33782838D01*
X73503703Y33922137D01*
X73567816Y34076918D01*
X73600500Y34241233D01*
X73600500Y34408767D01*
X73567816Y34573082D01*
X73503703Y34727863D01*
X73472537Y34774506D01*
X73410626Y34867163D01*
X73294017Y34983772D01*
X89649500Y34983772D01*
X89649500Y34816229D01*
X89682182Y34651926D01*
X89682184Y34651918D01*
X89746295Y34497140D01*
X89839373Y34357838D01*
X89957837Y34239374D01*
X90050494Y34177463D01*
X90097137Y34146297D01*
X90251918Y34082184D01*
X90416228Y34049501D01*
X90416232Y34049500D01*
X90416233Y34049500D01*
X90583768Y34049500D01*
X90583769Y34049501D01*
X90748082Y34082184D01*
X90902863Y34146297D01*
X91042162Y34239374D01*
X91160626Y34357838D01*
X91253703Y34497137D01*
X91317816Y34651918D01*
X91350500Y34816233D01*
X91350500Y34983767D01*
X91317816Y35148082D01*
X91253703Y35302863D01*
X91193597Y35392818D01*
X91160626Y35442163D01*
X91042162Y35560627D01*
X90902860Y35653705D01*
X90748082Y35717816D01*
X90748074Y35717818D01*
X90583771Y35750500D01*
X90583767Y35750500D01*
X90416233Y35750500D01*
X90416228Y35750500D01*
X90251925Y35717818D01*
X90251917Y35717816D01*
X90097139Y35653705D01*
X89957837Y35560627D01*
X89839373Y35442163D01*
X89746295Y35302861D01*
X89682184Y35148083D01*
X89682182Y35148075D01*
X89649500Y34983772D01*
X73294017Y34983772D01*
X73292162Y34985627D01*
X73152860Y35078705D01*
X72998082Y35142816D01*
X72998074Y35142818D01*
X72833771Y35175500D01*
X72833767Y35175500D01*
X72666233Y35175500D01*
X72666228Y35175500D01*
X72501925Y35142818D01*
X72501917Y35142816D01*
X72347132Y35078702D01*
X72346168Y35078186D01*
X72345606Y35078070D01*
X72341509Y35076372D01*
X72341186Y35077150D01*
X72277763Y35063952D01*
X72212522Y35088960D01*
X72190035Y35112902D01*
X72189490Y35112454D01*
X72185623Y35117166D01*
X72067162Y35235627D01*
X71927860Y35328705D01*
X71773082Y35392816D01*
X71773074Y35392818D01*
X71608771Y35425500D01*
X71608767Y35425500D01*
X71441233Y35425500D01*
X71441228Y35425500D01*
X71276925Y35392818D01*
X71276917Y35392816D01*
X71122139Y35328705D01*
X70982837Y35235627D01*
X70864373Y35117163D01*
X70771295Y34977861D01*
X70707184Y34823083D01*
X70707182Y34823075D01*
X70674500Y34658772D01*
X500500Y34658772D01*
X500500Y36183772D01*
X76099500Y36183772D01*
X76099500Y36016229D01*
X76132182Y35851926D01*
X76132184Y35851918D01*
X76196295Y35697140D01*
X76289373Y35557838D01*
X76407837Y35439374D01*
X76500494Y35377463D01*
X76547137Y35346297D01*
X76701918Y35282184D01*
X76866228Y35249501D01*
X76866232Y35249500D01*
X76866233Y35249500D01*
X77033768Y35249500D01*
X77033769Y35249501D01*
X77198082Y35282184D01*
X77352863Y35346297D01*
X77492162Y35439374D01*
X77610626Y35557838D01*
X77703703Y35697137D01*
X77767816Y35851918D01*
X77800500Y36016233D01*
X77800500Y36183767D01*
X77767816Y36348082D01*
X77703703Y36502863D01*
X77672537Y36549506D01*
X77610626Y36642163D01*
X77492162Y36760627D01*
X77352860Y36853705D01*
X77198082Y36917816D01*
X77198074Y36917818D01*
X77033771Y36950500D01*
X77033767Y36950500D01*
X76866233Y36950500D01*
X76866228Y36950500D01*
X76701925Y36917818D01*
X76701917Y36917816D01*
X76547139Y36853705D01*
X76407837Y36760627D01*
X76289373Y36642163D01*
X76196295Y36502861D01*
X76132184Y36348083D01*
X76132182Y36348075D01*
X76099500Y36183772D01*
X500500Y36183772D01*
X500500Y38158772D01*
X75524500Y38158772D01*
X75524500Y37991229D01*
X75557182Y37826926D01*
X75557184Y37826918D01*
X75621295Y37672140D01*
X75714373Y37532838D01*
X75832837Y37414374D01*
X75925494Y37352463D01*
X75972137Y37321297D01*
X76126918Y37257184D01*
X76291228Y37224501D01*
X76291232Y37224500D01*
X76291233Y37224500D01*
X76458768Y37224500D01*
X76458769Y37224501D01*
X76623082Y37257184D01*
X76777863Y37321297D01*
X76917162Y37414374D01*
X77035626Y37532838D01*
X77128703Y37672137D01*
X77192816Y37826918D01*
X77225500Y37991233D01*
X77225500Y38158767D01*
X77192816Y38323082D01*
X77128703Y38477863D01*
X77082977Y38546297D01*
X77035626Y38617163D01*
X76917162Y38735627D01*
X76777860Y38828705D01*
X76623082Y38892816D01*
X76623074Y38892818D01*
X76458771Y38925500D01*
X76458767Y38925500D01*
X76291233Y38925500D01*
X76291228Y38925500D01*
X76126925Y38892818D01*
X76126917Y38892816D01*
X75972139Y38828705D01*
X75832837Y38735627D01*
X75714373Y38617163D01*
X75621295Y38477861D01*
X75557184Y38323083D01*
X75557182Y38323075D01*
X75524500Y38158772D01*
X500500Y38158772D01*
X500500Y39978593D01*
X44788169Y39978593D01*
X44788169Y39811050D01*
X44820851Y39646747D01*
X44820853Y39646739D01*
X44884964Y39491961D01*
X44978042Y39352659D01*
X45096506Y39234195D01*
X45189163Y39172284D01*
X45235806Y39141118D01*
X45390587Y39077005D01*
X45441323Y39066913D01*
X45503233Y39034529D01*
X45531692Y38992750D01*
X45571296Y38897138D01*
X45664373Y38757838D01*
X45782837Y38639374D01*
X45816080Y38617162D01*
X45922137Y38546297D01*
X46076918Y38482184D01*
X46241228Y38449501D01*
X46241232Y38449500D01*
X46241233Y38449500D01*
X46408768Y38449500D01*
X46408769Y38449501D01*
X46573082Y38482184D01*
X46727863Y38546297D01*
X46867162Y38639374D01*
X46985626Y38757838D01*
X47078703Y38897137D01*
X47142816Y39051918D01*
X47175500Y39216233D01*
X47175500Y39383767D01*
X47142816Y39548082D01*
X47078703Y39702863D01*
X47047537Y39749506D01*
X46985626Y39842163D01*
X46867162Y39960627D01*
X46727860Y40053705D01*
X46573082Y40117816D01*
X46573076Y40117818D01*
X46522345Y40127909D01*
X46460434Y40160294D01*
X46431976Y40202073D01*
X46392373Y40297682D01*
X46299295Y40436984D01*
X46180831Y40555448D01*
X46090737Y40615646D01*
X46080928Y40627383D01*
X46067871Y40635342D01*
X46058981Y40653644D01*
X46045932Y40669258D01*
X46044026Y40684434D01*
X46037344Y40698190D01*
X46039760Y40718395D01*
X46037225Y40738583D01*
X46043825Y40752380D01*
X46045642Y40767565D01*
X46058597Y40783255D01*
X46058844Y40783772D01*
X48949500Y40783772D01*
X48949500Y40616229D01*
X48982182Y40451926D01*
X48982184Y40451918D01*
X49046295Y40297140D01*
X49139373Y40157838D01*
X49257837Y40039374D01*
X49348803Y39978593D01*
X49397137Y39946297D01*
X49551918Y39882184D01*
X49716228Y39849501D01*
X49716232Y39849500D01*
X49716233Y39849500D01*
X49883768Y39849500D01*
X49883769Y39849501D01*
X50048082Y39882184D01*
X50202863Y39946297D01*
X50342162Y40039374D01*
X50460626Y40157838D01*
X50553703Y40297137D01*
X50617816Y40451918D01*
X50650500Y40616233D01*
X50650500Y40783767D01*
X50617816Y40948082D01*
X50553703Y41102863D01*
X50522537Y41149506D01*
X50460626Y41242163D01*
X50344017Y41358772D01*
X86424500Y41358772D01*
X86424500Y41191229D01*
X86457182Y41026926D01*
X86457184Y41026918D01*
X86521295Y40872140D01*
X86614373Y40732838D01*
X86732837Y40614374D01*
X86821027Y40555448D01*
X86872137Y40521297D01*
X87026918Y40457184D01*
X87191228Y40424501D01*
X87191232Y40424500D01*
X87191233Y40424500D01*
X87358768Y40424500D01*
X87358769Y40424501D01*
X87523082Y40457184D01*
X87677863Y40521297D01*
X87817162Y40614374D01*
X87935626Y40732838D01*
X88028703Y40872137D01*
X88092816Y41026918D01*
X88125500Y41191233D01*
X88125500Y41358767D01*
X88092816Y41523082D01*
X88028703Y41677863D01*
X87974483Y41759009D01*
X87935626Y41817163D01*
X87817162Y41935627D01*
X87677860Y42028705D01*
X87523082Y42092816D01*
X87523074Y42092818D01*
X87358771Y42125500D01*
X87358767Y42125500D01*
X87191233Y42125500D01*
X87191228Y42125500D01*
X87026925Y42092818D01*
X87026917Y42092816D01*
X86872139Y42028705D01*
X86732837Y41935627D01*
X86614373Y41817163D01*
X86521295Y41677861D01*
X86457184Y41523083D01*
X86457182Y41523075D01*
X86424500Y41358772D01*
X50344017Y41358772D01*
X50342162Y41360627D01*
X50202860Y41453705D01*
X50048082Y41517816D01*
X50048074Y41517818D01*
X49883771Y41550500D01*
X49883767Y41550500D01*
X49716233Y41550500D01*
X49716228Y41550500D01*
X49551925Y41517818D01*
X49551917Y41517816D01*
X49397139Y41453705D01*
X49257837Y41360627D01*
X49139373Y41242163D01*
X49046295Y41102861D01*
X48982184Y40948083D01*
X48982182Y40948075D01*
X48949500Y40783772D01*
X46058844Y40783772D01*
X46067379Y40801610D01*
X46081062Y40810462D01*
X46090129Y40821441D01*
X46112450Y40830765D01*
X46121877Y40836862D01*
X46128552Y40838996D01*
X46221209Y40857426D01*
X46375990Y40921539D01*
X46515289Y41014616D01*
X46633753Y41133080D01*
X46726830Y41272379D01*
X46742520Y41310259D01*
X46786359Y41364662D01*
X46852653Y41386728D01*
X46920352Y41369450D01*
X46960183Y41331698D01*
X47009373Y41258081D01*
X47009376Y41258077D01*
X47127837Y41139616D01*
X47192488Y41096418D01*
X47267137Y41046539D01*
X47267138Y41046539D01*
X47267139Y41046538D01*
X47302201Y41032015D01*
X47421918Y40982426D01*
X47562720Y40954419D01*
X47586228Y40949743D01*
X47586232Y40949742D01*
X47586233Y40949742D01*
X47753768Y40949742D01*
X47753769Y40949743D01*
X47918082Y40982426D01*
X48072863Y41046539D01*
X48212162Y41139616D01*
X48330626Y41258080D01*
X48423703Y41397379D01*
X48487816Y41552160D01*
X48520500Y41716475D01*
X48520500Y41884009D01*
X48487816Y42048324D01*
X48423703Y42203105D01*
X48359490Y42299206D01*
X48330626Y42342405D01*
X48260470Y42412561D01*
X48226985Y42473884D01*
X48231969Y42543576D01*
X48260470Y42587923D01*
X48330623Y42658077D01*
X48330626Y42658080D01*
X48356725Y42697140D01*
X48423703Y42797379D01*
X48487816Y42952160D01*
X48520500Y43116475D01*
X48520500Y43284009D01*
X48487816Y43448324D01*
X48423703Y43603105D01*
X48388380Y43655970D01*
X48330626Y43742405D01*
X48212162Y43860869D01*
X48072860Y43953947D01*
X47918082Y44018058D01*
X47918074Y44018060D01*
X47753771Y44050742D01*
X47753767Y44050742D01*
X47586233Y44050742D01*
X47586228Y44050742D01*
X47421925Y44018060D01*
X47421917Y44018058D01*
X47267139Y43953947D01*
X47127837Y43860869D01*
X47009373Y43742405D01*
X46916295Y43603103D01*
X46852184Y43448325D01*
X46852182Y43448317D01*
X46819500Y43284014D01*
X46819500Y43116471D01*
X46852182Y42952168D01*
X46852184Y42952160D01*
X46916295Y42797382D01*
X47009373Y42658080D01*
X47079530Y42587923D01*
X47113015Y42526600D01*
X47108031Y42456908D01*
X47079530Y42412561D01*
X47009376Y42342408D01*
X47009373Y42342405D01*
X46916296Y42203105D01*
X46900606Y42165224D01*
X46856764Y42110821D01*
X46790470Y42088757D01*
X46722771Y42106037D01*
X46682943Y42143787D01*
X46633753Y42217404D01*
X46633750Y42217408D01*
X46515289Y42335869D01*
X46375987Y42428947D01*
X46221209Y42493058D01*
X46221201Y42493060D01*
X46056898Y42525742D01*
X46056894Y42525742D01*
X45889360Y42525742D01*
X45889355Y42525742D01*
X45725052Y42493060D01*
X45725044Y42493058D01*
X45570266Y42428947D01*
X45430964Y42335869D01*
X45312500Y42217405D01*
X45219422Y42078103D01*
X45155311Y41923325D01*
X45155309Y41923317D01*
X45122627Y41759014D01*
X45122627Y41591471D01*
X45155309Y41427168D01*
X45155311Y41427160D01*
X45219422Y41272382D01*
X45312500Y41133080D01*
X45430962Y41014618D01*
X45430965Y41014616D01*
X45521058Y40954418D01*
X45565863Y40900806D01*
X45574570Y40831482D01*
X45544416Y40768454D01*
X45484973Y40731734D01*
X45476359Y40729699D01*
X45390592Y40712639D01*
X45390586Y40712637D01*
X45235808Y40648526D01*
X45096506Y40555448D01*
X44978042Y40436984D01*
X44884964Y40297682D01*
X44820853Y40142904D01*
X44820851Y40142896D01*
X44788169Y39978593D01*
X500500Y39978593D01*
X500500Y41840816D01*
X42270324Y41840816D01*
X42270324Y41673273D01*
X42303006Y41508970D01*
X42303008Y41508962D01*
X42367119Y41354184D01*
X42460197Y41214882D01*
X42578661Y41096418D01*
X42653311Y41046539D01*
X42717961Y41003341D01*
X42872742Y40939228D01*
X43037052Y40906545D01*
X43037056Y40906544D01*
X43037057Y40906544D01*
X43204592Y40906544D01*
X43204593Y40906545D01*
X43368906Y40939228D01*
X43523687Y41003341D01*
X43662986Y41096418D01*
X43781450Y41214882D01*
X43874527Y41354181D01*
X43938640Y41508962D01*
X43971324Y41673277D01*
X43971324Y41840811D01*
X43938640Y42005126D01*
X43874527Y42159907D01*
X43814662Y42249501D01*
X43781450Y42299207D01*
X43662986Y42417671D01*
X43523684Y42510749D01*
X43368906Y42574860D01*
X43368898Y42574862D01*
X43204595Y42607544D01*
X43204591Y42607544D01*
X43037057Y42607544D01*
X43037052Y42607544D01*
X42872749Y42574862D01*
X42872741Y42574860D01*
X42717963Y42510749D01*
X42578661Y42417671D01*
X42460197Y42299207D01*
X42367119Y42159905D01*
X42303008Y42005127D01*
X42303006Y42005119D01*
X42270324Y41840816D01*
X500500Y41840816D01*
X500500Y43183772D01*
X16799500Y43183772D01*
X16799500Y43016229D01*
X16832182Y42851926D01*
X16832184Y42851918D01*
X16896295Y42697140D01*
X16989373Y42557838D01*
X17107837Y42439374D01*
X17140320Y42417670D01*
X17247137Y42346297D01*
X17247138Y42346297D01*
X17247139Y42346296D01*
X17282201Y42331773D01*
X17401918Y42282184D01*
X17566228Y42249501D01*
X17566232Y42249500D01*
X17566233Y42249500D01*
X17733768Y42249500D01*
X17733769Y42249501D01*
X17898082Y42282184D01*
X18052863Y42346297D01*
X18192162Y42439374D01*
X18310626Y42557838D01*
X18403703Y42697137D01*
X18467816Y42851918D01*
X18500500Y43016233D01*
X18500500Y43183767D01*
X18467816Y43348082D01*
X18406989Y43494930D01*
X18403704Y43502861D01*
X18401905Y43505553D01*
X18363502Y43563028D01*
X18310626Y43642163D01*
X18192162Y43760627D01*
X18052860Y43853705D01*
X17898082Y43917816D01*
X17898074Y43917818D01*
X17733771Y43950500D01*
X17733767Y43950500D01*
X17566233Y43950500D01*
X17566228Y43950500D01*
X17401925Y43917818D01*
X17401917Y43917816D01*
X17247139Y43853705D01*
X17107837Y43760627D01*
X16989373Y43642163D01*
X16896295Y43502861D01*
X16832184Y43348083D01*
X16832182Y43348075D01*
X16799500Y43183772D01*
X500500Y43183772D01*
X500500Y47370707D01*
X7902500Y47370707D01*
X7902500Y47165978D01*
X7934525Y46963783D01*
X7997784Y46769088D01*
X7997785Y46769085D01*
X8063929Y46639272D01*
X8090727Y46586679D01*
X8211058Y46421058D01*
X8355816Y46276300D01*
X8521437Y46155969D01*
X8521439Y46155968D01*
X8574706Y46128826D01*
X8625501Y46080851D01*
X8642296Y46013030D01*
X8619758Y45946896D01*
X8574706Y45907858D01*
X8521439Y45880717D01*
X8438626Y45820550D01*
X8355816Y45760384D01*
X8355814Y45760382D01*
X8355813Y45760382D01*
X8211060Y45615629D01*
X8211060Y45615628D01*
X8211058Y45615626D01*
X8197910Y45597529D01*
X8090727Y45450006D01*
X7997785Y45267600D01*
X7997784Y45267597D01*
X7934525Y45072902D01*
X7902500Y44870707D01*
X7902500Y44665978D01*
X7934525Y44463783D01*
X7997784Y44269088D01*
X7997785Y44269085D01*
X8070220Y44126926D01*
X8090727Y44086679D01*
X8211058Y43921058D01*
X8355816Y43776300D01*
X8521437Y43655969D01*
X8589484Y43621297D01*
X8703842Y43563028D01*
X8703845Y43563027D01*
X8801192Y43531398D01*
X8898542Y43499767D01*
X8992189Y43484935D01*
X9100736Y43467742D01*
X9100741Y43467742D01*
X9305464Y43467742D01*
X9403485Y43483268D01*
X9507658Y43499767D01*
X9695334Y43560747D01*
X9702354Y43563027D01*
X9702357Y43563028D01*
X9719353Y43571688D01*
X9884763Y43655969D01*
X10050384Y43776300D01*
X10195142Y43921058D01*
X10313537Y44084014D01*
X42069500Y44084014D01*
X42069500Y43916471D01*
X42102182Y43752168D01*
X42102184Y43752160D01*
X42166295Y43597382D01*
X42259373Y43458080D01*
X42377837Y43339616D01*
X42461052Y43284014D01*
X42517137Y43246539D01*
X42671918Y43182426D01*
X42836228Y43149743D01*
X42836232Y43149742D01*
X42836233Y43149742D01*
X43003768Y43149742D01*
X43003769Y43149743D01*
X43168082Y43182426D01*
X43322863Y43246539D01*
X43462162Y43339616D01*
X43580626Y43458080D01*
X43673703Y43597379D01*
X43737816Y43752160D01*
X43770500Y43916475D01*
X43770500Y44084009D01*
X43737816Y44248324D01*
X43673703Y44403105D01*
X43636507Y44458772D01*
X50199500Y44458772D01*
X50199500Y44291229D01*
X50232182Y44126926D01*
X50232184Y44126918D01*
X50296295Y43972140D01*
X50389373Y43832838D01*
X50507837Y43714374D01*
X50595245Y43655970D01*
X50647137Y43621297D01*
X50801918Y43557184D01*
X50966228Y43524501D01*
X50966232Y43524500D01*
X50966233Y43524500D01*
X51133768Y43524500D01*
X51133769Y43524501D01*
X51298082Y43557184D01*
X51452863Y43621297D01*
X51592162Y43714374D01*
X51710626Y43832838D01*
X51803703Y43972137D01*
X51867816Y44126918D01*
X51900500Y44291233D01*
X51900500Y44458767D01*
X51899127Y44465670D01*
X51899127Y44465673D01*
X51895527Y44483772D01*
X75349500Y44483772D01*
X75349500Y44316229D01*
X75382182Y44151926D01*
X75382184Y44151918D01*
X75446295Y43997140D01*
X75539373Y43857838D01*
X75657837Y43739374D01*
X75750494Y43677463D01*
X75797137Y43646297D01*
X75797138Y43646297D01*
X75797139Y43646296D01*
X75817481Y43637870D01*
X75951918Y43582184D01*
X76077598Y43557185D01*
X76116228Y43549501D01*
X76116232Y43549500D01*
X76116233Y43549500D01*
X76283768Y43549500D01*
X76283769Y43549501D01*
X76448082Y43582184D01*
X76602863Y43646297D01*
X76742162Y43739374D01*
X76860626Y43857838D01*
X76953703Y43997137D01*
X77017816Y44151918D01*
X77050500Y44316233D01*
X77050500Y44483767D01*
X77017816Y44648082D01*
X76964059Y44777861D01*
X76953705Y44802859D01*
X76953702Y44802864D01*
X76943548Y44818060D01*
X76920465Y44852607D01*
X89449400Y44852607D01*
X89449400Y44647878D01*
X89481425Y44445683D01*
X89544684Y44250988D01*
X89544685Y44250985D01*
X89629762Y44084014D01*
X89637627Y44068579D01*
X89757958Y43902958D01*
X89902716Y43758200D01*
X90068337Y43637869D01*
X90068339Y43637868D01*
X90121606Y43610726D01*
X90172401Y43562751D01*
X90189196Y43494930D01*
X90166658Y43428796D01*
X90121606Y43389758D01*
X90068339Y43362617D01*
X89985526Y43302450D01*
X89902716Y43242284D01*
X89902714Y43242282D01*
X89902713Y43242282D01*
X89757960Y43097529D01*
X89757960Y43097528D01*
X89757958Y43097526D01*
X89706280Y43026399D01*
X89637627Y42931906D01*
X89544685Y42749500D01*
X89544684Y42749497D01*
X89481425Y42554802D01*
X89449400Y42352607D01*
X89449400Y42147878D01*
X89481425Y41945683D01*
X89544684Y41750988D01*
X89544685Y41750985D01*
X89584282Y41673273D01*
X89637627Y41568579D01*
X89757958Y41402958D01*
X89902716Y41258200D01*
X90068337Y41137869D01*
X90137040Y41102863D01*
X90250742Y41044928D01*
X90250745Y41044927D01*
X90348092Y41013298D01*
X90445442Y40981667D01*
X90539089Y40966835D01*
X90647636Y40949642D01*
X90647641Y40949642D01*
X90852364Y40949642D01*
X90950385Y40965168D01*
X91054558Y40981667D01*
X91249257Y41044928D01*
X91431663Y41137869D01*
X91597284Y41258200D01*
X91742042Y41402958D01*
X91862373Y41568579D01*
X91955314Y41750985D01*
X92018575Y41945684D01*
X92039548Y42078103D01*
X92050600Y42147878D01*
X92050600Y42352607D01*
X92028354Y42493058D01*
X92018575Y42554800D01*
X91955314Y42749499D01*
X91955314Y42749500D01*
X91862372Y42931906D01*
X91742042Y43097526D01*
X91597284Y43242284D01*
X91431663Y43362615D01*
X91378393Y43389758D01*
X91327598Y43437732D01*
X91310803Y43505553D01*
X91333341Y43571688D01*
X91378394Y43610727D01*
X91431663Y43637869D01*
X91597284Y43758200D01*
X91742042Y43902958D01*
X91862373Y44068579D01*
X91955314Y44250985D01*
X92018575Y44445684D01*
X92046671Y44623075D01*
X92050600Y44647878D01*
X92050600Y44852607D01*
X92031969Y44970234D01*
X92018575Y45054800D01*
X91973731Y45192818D01*
X91955315Y45249497D01*
X91955314Y45249500D01*
X91866146Y45424500D01*
X91862373Y45431905D01*
X91742042Y45597526D01*
X91597284Y45742284D01*
X91431663Y45862615D01*
X91396136Y45880717D01*
X91249257Y45955557D01*
X91249254Y45955558D01*
X91054559Y46018817D01*
X90852364Y46050842D01*
X90852359Y46050842D01*
X90647641Y46050842D01*
X90647636Y46050842D01*
X90445440Y46018817D01*
X90250745Y45955558D01*
X90250742Y45955557D01*
X90068336Y45862615D01*
X89986429Y45803105D01*
X89902716Y45742284D01*
X89902714Y45742282D01*
X89902713Y45742282D01*
X89757960Y45597529D01*
X89757960Y45597528D01*
X89757958Y45597526D01*
X89746953Y45582379D01*
X89637627Y45431906D01*
X89544685Y45249500D01*
X89544684Y45249497D01*
X89481425Y45054802D01*
X89449400Y44852607D01*
X76920465Y44852607D01*
X76877330Y44917163D01*
X76860626Y44942163D01*
X76742162Y45060627D01*
X76602860Y45153705D01*
X76448082Y45217816D01*
X76448074Y45217818D01*
X76283771Y45250500D01*
X76283767Y45250500D01*
X76116233Y45250500D01*
X76116228Y45250500D01*
X75951925Y45217818D01*
X75951917Y45217816D01*
X75797139Y45153705D01*
X75657837Y45060627D01*
X75539373Y44942163D01*
X75446295Y44802861D01*
X75382184Y44648083D01*
X75382182Y44648075D01*
X75349500Y44483772D01*
X51895527Y44483772D01*
X51867817Y44623075D01*
X51867816Y44623082D01*
X51803703Y44777863D01*
X51755007Y44850742D01*
X51710626Y44917163D01*
X51592162Y45035627D01*
X51452860Y45128705D01*
X51298082Y45192816D01*
X51298074Y45192818D01*
X51133771Y45225500D01*
X51133767Y45225500D01*
X50966233Y45225500D01*
X50966228Y45225500D01*
X50801925Y45192818D01*
X50801917Y45192816D01*
X50647139Y45128705D01*
X50507837Y45035627D01*
X50389373Y44917163D01*
X50296295Y44777861D01*
X50232184Y44623083D01*
X50232182Y44623075D01*
X50199500Y44458772D01*
X43636507Y44458772D01*
X43633159Y44463783D01*
X43580626Y44542405D01*
X43462162Y44660869D01*
X43322860Y44753947D01*
X43168082Y44818058D01*
X43168074Y44818060D01*
X43003771Y44850742D01*
X43003767Y44850742D01*
X42836233Y44850742D01*
X42836228Y44850742D01*
X42671925Y44818060D01*
X42671917Y44818058D01*
X42517139Y44753947D01*
X42377837Y44660869D01*
X42259373Y44542405D01*
X42166295Y44403103D01*
X42102184Y44248325D01*
X42102182Y44248317D01*
X42069500Y44084014D01*
X10313537Y44084014D01*
X10315473Y44086679D01*
X10397836Y44248324D01*
X10408412Y44269080D01*
X10408415Y44269088D01*
X10423733Y44316233D01*
X10471675Y44463784D01*
X10490466Y44582427D01*
X10503700Y44665978D01*
X10503700Y44870707D01*
X10483636Y44997382D01*
X10471675Y45072900D01*
X10432712Y45192818D01*
X10408415Y45267597D01*
X10408414Y45267600D01*
X10361057Y45360541D01*
X10315473Y45450005D01*
X10195142Y45615626D01*
X10050384Y45760384D01*
X9884763Y45880715D01*
X9831493Y45907858D01*
X9825036Y45913956D01*
X9816621Y45916798D01*
X9800028Y45937575D01*
X9780698Y45955832D01*
X9778562Y45964455D01*
X9773020Y45971395D01*
X9770293Y45997846D01*
X9763903Y46023653D01*
X9766767Y46032060D01*
X9765857Y46040896D01*
X9777865Y46064624D01*
X9779361Y46069014D01*
X42069500Y46069014D01*
X42069500Y45901471D01*
X42102182Y45737168D01*
X42102184Y45737160D01*
X42166295Y45582382D01*
X42259373Y45443080D01*
X42377837Y45324616D01*
X42463168Y45267600D01*
X42517137Y45231539D01*
X42671918Y45167426D01*
X42836228Y45134743D01*
X42836232Y45134742D01*
X42836233Y45134742D01*
X43003768Y45134742D01*
X43003769Y45134743D01*
X43168082Y45167426D01*
X43322863Y45231539D01*
X43462162Y45324616D01*
X43580626Y45443080D01*
X43673703Y45582379D01*
X43737816Y45737160D01*
X43770500Y45901475D01*
X43770500Y46025213D01*
X43790185Y46092252D01*
X43825611Y46128316D01*
X43842162Y46139374D01*
X43960626Y46257838D01*
X44053703Y46397137D01*
X44117816Y46551918D01*
X44124730Y46586679D01*
X44129173Y46609016D01*
X45319500Y46609016D01*
X45319500Y46441473D01*
X45352182Y46277170D01*
X45352184Y46277162D01*
X45416295Y46122384D01*
X45509373Y45983082D01*
X45627837Y45864618D01*
X45719898Y45803105D01*
X45767137Y45771541D01*
X45921918Y45707428D01*
X46086228Y45674745D01*
X46086232Y45674744D01*
X46086233Y45674744D01*
X46253768Y45674744D01*
X46253769Y45674745D01*
X46418082Y45707428D01*
X46572863Y45771541D01*
X46689765Y45849654D01*
X46756439Y45870530D01*
X46823819Y45852046D01*
X46870510Y45800067D01*
X46881686Y45731097D01*
X46873215Y45699099D01*
X46852184Y45648324D01*
X46852182Y45648317D01*
X46819500Y45484014D01*
X46819500Y45316471D01*
X46852182Y45152168D01*
X46852184Y45152160D01*
X46916295Y44997382D01*
X47009373Y44858080D01*
X47127837Y44739616D01*
X47220494Y44677705D01*
X47267137Y44646539D01*
X47421918Y44582426D01*
X47586228Y44549743D01*
X47586232Y44549742D01*
X47586233Y44549742D01*
X47753768Y44549742D01*
X47753769Y44549743D01*
X47918082Y44582426D01*
X48072863Y44646539D01*
X48212162Y44739616D01*
X48330626Y44858080D01*
X48423703Y44997379D01*
X48487816Y45152160D01*
X48520500Y45316475D01*
X48520500Y45484009D01*
X48487816Y45648324D01*
X48436777Y45771541D01*
X48423704Y45803103D01*
X48330626Y45942405D01*
X48212162Y46060869D01*
X48072860Y46153947D01*
X47918082Y46218058D01*
X47918074Y46218060D01*
X47753771Y46250742D01*
X47753767Y46250742D01*
X47586233Y46250742D01*
X47586228Y46250742D01*
X47421925Y46218060D01*
X47421917Y46218058D01*
X47267138Y46153946D01*
X47267134Y46153944D01*
X47150236Y46075835D01*
X47083559Y46054957D01*
X47016179Y46073442D01*
X46969489Y46125421D01*
X46958313Y46194391D01*
X46966785Y46226390D01*
X46987816Y46277162D01*
X47020500Y46441477D01*
X47020500Y46609011D01*
X46987816Y46773326D01*
X46923703Y46928107D01*
X46880899Y46992168D01*
X46830626Y47067407D01*
X46712162Y47185871D01*
X46572860Y47278949D01*
X46418082Y47343060D01*
X46418074Y47343062D01*
X46253771Y47375744D01*
X46253767Y47375744D01*
X46086233Y47375744D01*
X46086228Y47375744D01*
X45921925Y47343062D01*
X45921917Y47343060D01*
X45767139Y47278949D01*
X45627837Y47185871D01*
X45509373Y47067407D01*
X45416295Y46928105D01*
X45352184Y46773327D01*
X45352182Y46773319D01*
X45319500Y46609016D01*
X44129173Y46609016D01*
X44135192Y46639272D01*
X44135196Y46639293D01*
X44150500Y46716235D01*
X44150500Y46883768D01*
X44150499Y46883772D01*
X44140184Y46935630D01*
X44117816Y47048082D01*
X44060741Y47185871D01*
X44053704Y47202861D01*
X43960626Y47342163D01*
X43921897Y47380892D01*
X50252380Y47380892D01*
X50252380Y47213349D01*
X50285062Y47049046D01*
X50285064Y47049038D01*
X50349175Y46894260D01*
X50442253Y46754958D01*
X50560717Y46636494D01*
X50635271Y46586679D01*
X50700017Y46543417D01*
X50854798Y46479304D01*
X51019108Y46446621D01*
X51019112Y46446620D01*
X51019113Y46446620D01*
X51186648Y46446620D01*
X51186649Y46446621D01*
X51350962Y46479304D01*
X51505743Y46543417D01*
X51645042Y46636494D01*
X51763506Y46754958D01*
X51856583Y46894257D01*
X51920696Y47049038D01*
X51953380Y47213353D01*
X51953380Y47380887D01*
X51920696Y47545202D01*
X51856583Y47699983D01*
X51801510Y47782405D01*
X51763506Y47839283D01*
X51669017Y47933772D01*
X69774500Y47933772D01*
X69774500Y47766229D01*
X69807182Y47601926D01*
X69807184Y47601918D01*
X69871295Y47447140D01*
X69964373Y47307838D01*
X70082834Y47189377D01*
X70082838Y47189374D01*
X70184249Y47121612D01*
X70229054Y47067999D01*
X70237761Y46998674D01*
X70207606Y46935647D01*
X70203040Y46930829D01*
X70089373Y46817162D01*
X69996295Y46677861D01*
X69932184Y46523083D01*
X69932182Y46523075D01*
X69899500Y46358772D01*
X69899500Y46191229D01*
X69932182Y46026926D01*
X69932184Y46026918D01*
X69996295Y45872140D01*
X70089373Y45732838D01*
X70207837Y45614374D01*
X70300494Y45552463D01*
X70347137Y45521297D01*
X70501918Y45457184D01*
X70666228Y45424501D01*
X70666232Y45424500D01*
X70666233Y45424500D01*
X70833768Y45424500D01*
X70833769Y45424501D01*
X70998082Y45457184D01*
X71152863Y45521297D01*
X71292162Y45614374D01*
X71410626Y45732838D01*
X71503703Y45872137D01*
X71567816Y46026918D01*
X71600500Y46191233D01*
X71600500Y46358767D01*
X71567816Y46523082D01*
X71503703Y46677863D01*
X71439921Y46773319D01*
X71410626Y46817163D01*
X71292165Y46935624D01*
X71292157Y46935630D01*
X71190750Y47003388D01*
X71145944Y47057000D01*
X71137237Y47126325D01*
X71167391Y47189352D01*
X71171940Y47194153D01*
X71285626Y47307838D01*
X71378703Y47447137D01*
X71442816Y47601918D01*
X71475500Y47766233D01*
X71475500Y47933767D01*
X71442816Y48098082D01*
X71378703Y48252863D01*
X71293275Y48380715D01*
X71285626Y48392163D01*
X71167162Y48510627D01*
X71027860Y48603705D01*
X70873082Y48667816D01*
X70873074Y48667818D01*
X70708771Y48700500D01*
X70708767Y48700500D01*
X70541233Y48700500D01*
X70541228Y48700500D01*
X70376925Y48667818D01*
X70376917Y48667816D01*
X70222139Y48603705D01*
X70082837Y48510627D01*
X69964373Y48392163D01*
X69871295Y48252861D01*
X69807184Y48098083D01*
X69807182Y48098075D01*
X69774500Y47933772D01*
X51669017Y47933772D01*
X51645042Y47957747D01*
X51505740Y48050825D01*
X51350962Y48114936D01*
X51350954Y48114938D01*
X51186651Y48147620D01*
X51186647Y48147620D01*
X51019113Y48147620D01*
X51019108Y48147620D01*
X50854805Y48114938D01*
X50854797Y48114936D01*
X50700019Y48050825D01*
X50560717Y47957747D01*
X50442253Y47839283D01*
X50349175Y47699981D01*
X50285064Y47545203D01*
X50285062Y47545195D01*
X50252380Y47380892D01*
X43921897Y47380892D01*
X43842162Y47460627D01*
X43702860Y47553705D01*
X43548082Y47617816D01*
X43548074Y47617818D01*
X43383771Y47650500D01*
X43383767Y47650500D01*
X43216233Y47650500D01*
X43216228Y47650500D01*
X43051925Y47617818D01*
X43051917Y47617816D01*
X42897139Y47553705D01*
X42757837Y47460627D01*
X42639373Y47342163D01*
X42546295Y47202861D01*
X42482184Y47048083D01*
X42482182Y47048075D01*
X42449500Y46883772D01*
X42449500Y46760031D01*
X42429815Y46692992D01*
X42394395Y46656932D01*
X42377839Y46645869D01*
X42377831Y46645862D01*
X42259376Y46527408D01*
X42259373Y46527405D01*
X42166295Y46388103D01*
X42102184Y46233325D01*
X42102182Y46233317D01*
X42069500Y46069014D01*
X9779361Y46069014D01*
X9786441Y46089788D01*
X9794227Y46096954D01*
X9797407Y46103237D01*
X9817198Y46118096D01*
X9824986Y46125262D01*
X9828182Y46127140D01*
X9884763Y46155969D01*
X10050384Y46276300D01*
X10195142Y46421058D01*
X10315473Y46586679D01*
X10408414Y46769085D01*
X10471675Y46963784D01*
X10488181Y47067999D01*
X10503700Y47165978D01*
X10503700Y47324014D01*
X38819500Y47324014D01*
X38819500Y47156471D01*
X38852182Y46992168D01*
X38852184Y46992160D01*
X38916295Y46837382D01*
X39009373Y46698080D01*
X39127837Y46579616D01*
X39205972Y46527408D01*
X39267137Y46486539D01*
X39267138Y46486539D01*
X39267139Y46486538D01*
X39284606Y46479303D01*
X39421918Y46422426D01*
X39586228Y46389743D01*
X39586232Y46389742D01*
X39586233Y46389742D01*
X39753768Y46389742D01*
X39753769Y46389743D01*
X39918082Y46422426D01*
X40072863Y46486539D01*
X40212162Y46579616D01*
X40330626Y46698080D01*
X40423703Y46837379D01*
X40487816Y46992160D01*
X40520500Y47156475D01*
X40520500Y47324009D01*
X40487816Y47488324D01*
X40423703Y47643105D01*
X40341432Y47766232D01*
X40330626Y47782405D01*
X40212162Y47900869D01*
X40072860Y47993947D01*
X39918082Y48058058D01*
X39918074Y48058060D01*
X39753771Y48090742D01*
X39753767Y48090742D01*
X39586233Y48090742D01*
X39586228Y48090742D01*
X39421925Y48058060D01*
X39421917Y48058058D01*
X39267139Y47993947D01*
X39127837Y47900869D01*
X39009373Y47782405D01*
X38916295Y47643103D01*
X38852184Y47488325D01*
X38852182Y47488317D01*
X38819500Y47324014D01*
X10503700Y47324014D01*
X10503700Y47370707D01*
X10476063Y47545195D01*
X10471675Y47572900D01*
X10408859Y47766229D01*
X10408415Y47767597D01*
X10408414Y47767600D01*
X10361057Y47860541D01*
X10315473Y47950005D01*
X10195142Y48115626D01*
X10050384Y48260384D01*
X9884763Y48380715D01*
X9862295Y48392163D01*
X9702357Y48473657D01*
X9702354Y48473658D01*
X9507659Y48536917D01*
X9305464Y48568942D01*
X9305459Y48568942D01*
X9100741Y48568942D01*
X9100736Y48568942D01*
X8898540Y48536917D01*
X8703845Y48473658D01*
X8703842Y48473657D01*
X8521436Y48380715D01*
X8426943Y48312062D01*
X8355816Y48260384D01*
X8355814Y48260382D01*
X8355813Y48260382D01*
X8211060Y48115629D01*
X8211060Y48115628D01*
X8211058Y48115626D01*
X8192979Y48090742D01*
X8090727Y47950006D01*
X7997785Y47767600D01*
X7997784Y47767597D01*
X7934525Y47572902D01*
X7902500Y47370707D01*
X500500Y47370707D01*
X500500Y50308772D01*
X29649500Y50308772D01*
X29649500Y50141229D01*
X29682182Y49976926D01*
X29682184Y49976918D01*
X29746295Y49822140D01*
X29839373Y49682838D01*
X29957837Y49564374D01*
X30050494Y49502463D01*
X30097137Y49471297D01*
X30251918Y49407184D01*
X30416228Y49374501D01*
X30416232Y49374500D01*
X30416233Y49374500D01*
X30583768Y49374500D01*
X30583769Y49374501D01*
X30748082Y49407184D01*
X30902863Y49471297D01*
X31042162Y49564374D01*
X31160626Y49682838D01*
X31253703Y49822137D01*
X31317816Y49976918D01*
X31350500Y50141233D01*
X31350500Y50308767D01*
X31317816Y50473082D01*
X31313978Y50482348D01*
X45049500Y50482348D01*
X45049500Y50314805D01*
X45082182Y50150502D01*
X45082184Y50150494D01*
X45134804Y50023458D01*
X45142273Y49953988D01*
X45134805Y49928556D01*
X45122186Y49898091D01*
X45122182Y49898075D01*
X45089500Y49733772D01*
X45089500Y49566229D01*
X45122182Y49401926D01*
X45122184Y49401918D01*
X45186295Y49247140D01*
X45279373Y49107838D01*
X45397837Y48989374D01*
X45490494Y48927463D01*
X45537137Y48896297D01*
X45691918Y48832184D01*
X45856228Y48799501D01*
X45856232Y48799500D01*
X45856233Y48799500D01*
X46023768Y48799500D01*
X46023769Y48799501D01*
X46188082Y48832184D01*
X46342863Y48896297D01*
X46482162Y48989374D01*
X46600626Y49107838D01*
X46693703Y49247137D01*
X46757816Y49401918D01*
X46790500Y49566233D01*
X46790500Y49733767D01*
X46757816Y49898082D01*
X46705193Y50025123D01*
X46697725Y50094589D01*
X46705192Y50120021D01*
X46717816Y50150494D01*
X46750500Y50314809D01*
X46750500Y50383772D01*
X50924500Y50383772D01*
X50924500Y50216229D01*
X50957182Y50051926D01*
X50957184Y50051918D01*
X51021295Y49897140D01*
X51114373Y49757838D01*
X51232837Y49639374D01*
X51325494Y49577463D01*
X51372137Y49546297D01*
X51526918Y49482184D01*
X51652598Y49457185D01*
X51691228Y49449501D01*
X51691232Y49449500D01*
X51691233Y49449500D01*
X51858768Y49449500D01*
X51858769Y49449501D01*
X52023082Y49482184D01*
X52177863Y49546297D01*
X52317162Y49639374D01*
X52435626Y49757838D01*
X52528703Y49897137D01*
X52592816Y50051918D01*
X52625500Y50216233D01*
X52625500Y50358772D01*
X65799500Y50358772D01*
X65799500Y50191229D01*
X65832182Y50026926D01*
X65832184Y50026918D01*
X65896295Y49872140D01*
X65989373Y49732838D01*
X66107837Y49614374D01*
X66179886Y49566233D01*
X66247137Y49521297D01*
X66401918Y49457184D01*
X66566228Y49424501D01*
X66566232Y49424500D01*
X66566233Y49424500D01*
X66733768Y49424500D01*
X66733769Y49424501D01*
X66898082Y49457184D01*
X67052863Y49521297D01*
X67192162Y49614374D01*
X67310626Y49732838D01*
X67403703Y49872137D01*
X67467816Y50026918D01*
X67500500Y50191233D01*
X67500500Y50358767D01*
X67467816Y50523082D01*
X67403703Y50677863D01*
X67344035Y50767162D01*
X67310626Y50817163D01*
X67192162Y50935627D01*
X67052860Y51028705D01*
X66898082Y51092816D01*
X66898074Y51092818D01*
X66733771Y51125500D01*
X66733767Y51125500D01*
X66566233Y51125500D01*
X66566228Y51125500D01*
X66401925Y51092818D01*
X66401917Y51092816D01*
X66247139Y51028705D01*
X66107837Y50935627D01*
X65989373Y50817163D01*
X65896295Y50677861D01*
X65832184Y50523083D01*
X65832182Y50523075D01*
X65799500Y50358772D01*
X52625500Y50358772D01*
X52625500Y50383767D01*
X52592816Y50548082D01*
X52528703Y50702863D01*
X52462838Y50801437D01*
X52435626Y50842163D01*
X52317162Y50960627D01*
X52177860Y51053705D01*
X52023082Y51117816D01*
X52023074Y51117818D01*
X51858771Y51150500D01*
X51858767Y51150500D01*
X51691233Y51150500D01*
X51691228Y51150500D01*
X51526925Y51117818D01*
X51526917Y51117816D01*
X51372139Y51053705D01*
X51232837Y50960627D01*
X51114373Y50842163D01*
X51021295Y50702861D01*
X50957184Y50548083D01*
X50957182Y50548075D01*
X50924500Y50383772D01*
X46750500Y50383772D01*
X46750500Y50482343D01*
X46717816Y50646658D01*
X46653703Y50801439D01*
X46564042Y50935626D01*
X46560626Y50940739D01*
X46442162Y51059203D01*
X46302860Y51152281D01*
X46148082Y51216392D01*
X46148074Y51216394D01*
X45983771Y51249076D01*
X45983767Y51249076D01*
X45816233Y51249076D01*
X45816228Y51249076D01*
X45651925Y51216394D01*
X45651917Y51216392D01*
X45497139Y51152281D01*
X45357837Y51059203D01*
X45239373Y50940739D01*
X45146295Y50801437D01*
X45082184Y50646659D01*
X45082182Y50646651D01*
X45049500Y50482348D01*
X31313978Y50482348D01*
X31253703Y50627863D01*
X31203591Y50702861D01*
X31160626Y50767163D01*
X31042162Y50885627D01*
X30902860Y50978705D01*
X30748082Y51042816D01*
X30748074Y51042818D01*
X30583771Y51075500D01*
X30583767Y51075500D01*
X30416233Y51075500D01*
X30416228Y51075500D01*
X30251925Y51042818D01*
X30251917Y51042816D01*
X30097139Y50978705D01*
X29957837Y50885627D01*
X29839373Y50767163D01*
X29746295Y50627861D01*
X29682184Y50473083D01*
X29682182Y50473075D01*
X29649500Y50308772D01*
X500500Y50308772D01*
X500500Y52458772D01*
X26024500Y52458772D01*
X26024500Y52291229D01*
X26057182Y52126926D01*
X26057184Y52126918D01*
X26121295Y51972140D01*
X26214373Y51832838D01*
X26332837Y51714374D01*
X26425494Y51652463D01*
X26472137Y51621297D01*
X26626918Y51557184D01*
X26791228Y51524501D01*
X26791232Y51524500D01*
X26791233Y51524500D01*
X26958768Y51524500D01*
X26958769Y51524501D01*
X27123082Y51557184D01*
X27277863Y51621297D01*
X27417162Y51714374D01*
X27535626Y51832838D01*
X27628703Y51972137D01*
X27692816Y52126918D01*
X27725500Y52291233D01*
X27725500Y52458767D01*
X27692816Y52623082D01*
X27628703Y52777863D01*
X27597537Y52824506D01*
X27535626Y52917163D01*
X27417162Y53035627D01*
X27277860Y53128705D01*
X27123082Y53192816D01*
X27123074Y53192818D01*
X26958771Y53225500D01*
X26958767Y53225500D01*
X26791233Y53225500D01*
X26791228Y53225500D01*
X26626925Y53192818D01*
X26626917Y53192816D01*
X26472139Y53128705D01*
X26332837Y53035627D01*
X26214373Y52917163D01*
X26121295Y52777861D01*
X26057184Y52623083D01*
X26057182Y52623075D01*
X26024500Y52458772D01*
X500500Y52458772D01*
X500500Y53883772D01*
X50949500Y53883772D01*
X50949500Y53716229D01*
X50982182Y53551926D01*
X50982184Y53551918D01*
X51046295Y53397140D01*
X51139373Y53257838D01*
X51257837Y53139374D01*
X51350494Y53077463D01*
X51397137Y53046297D01*
X51551918Y52982184D01*
X51716228Y52949501D01*
X51716232Y52949500D01*
X51716233Y52949500D01*
X51883768Y52949500D01*
X51883769Y52949501D01*
X52048082Y52982184D01*
X52202863Y53046297D01*
X52342162Y53139374D01*
X52460626Y53257838D01*
X52553703Y53397137D01*
X52617816Y53551918D01*
X52650500Y53716233D01*
X52650500Y53883767D01*
X52617816Y54048082D01*
X52553703Y54202863D01*
X52522537Y54249506D01*
X52460626Y54342163D01*
X52342162Y54460627D01*
X52202860Y54553705D01*
X52048082Y54617816D01*
X52048074Y54617818D01*
X51883771Y54650500D01*
X51883767Y54650500D01*
X51716233Y54650500D01*
X51716228Y54650500D01*
X51551925Y54617818D01*
X51551917Y54617816D01*
X51397139Y54553705D01*
X51257837Y54460627D01*
X51139373Y54342163D01*
X51046295Y54202861D01*
X50982184Y54048083D01*
X50982182Y54048075D01*
X50949500Y53883772D01*
X500500Y53883772D01*
X500500Y61658772D01*
X15449500Y61658772D01*
X15449500Y61491229D01*
X15482182Y61326926D01*
X15482184Y61326918D01*
X15546296Y61172139D01*
X15546298Y61172135D01*
X15631988Y61043890D01*
X15652866Y60977213D01*
X15634381Y60909833D01*
X15631988Y60906110D01*
X15546298Y60777866D01*
X15546296Y60777862D01*
X15482184Y60623083D01*
X15482182Y60623075D01*
X15449500Y60458772D01*
X15449500Y60291229D01*
X15482182Y60126926D01*
X15482184Y60126918D01*
X15546295Y59972140D01*
X15639373Y59832838D01*
X15672030Y59800181D01*
X15705515Y59738858D01*
X15700531Y59669166D01*
X15672030Y59624819D01*
X15639376Y59592166D01*
X15639373Y59592163D01*
X15546295Y59452861D01*
X15482184Y59298083D01*
X15482182Y59298075D01*
X15449500Y59133772D01*
X15449500Y58966229D01*
X15482182Y58801926D01*
X15482184Y58801918D01*
X15546295Y58647140D01*
X15639373Y58507838D01*
X15757837Y58389374D01*
X15842450Y58332838D01*
X15897137Y58296297D01*
X16051918Y58232184D01*
X16180720Y58206564D01*
X16216228Y58199501D01*
X16216232Y58199500D01*
X16216233Y58199500D01*
X16383768Y58199500D01*
X16383769Y58199501D01*
X16548082Y58232184D01*
X16702863Y58296297D01*
X16842162Y58389374D01*
X16887318Y58434530D01*
X16948641Y58468016D01*
X17018332Y58463032D01*
X17062682Y58434530D01*
X17107834Y58389377D01*
X17107837Y58389374D01*
X17192450Y58332838D01*
X17247137Y58296297D01*
X17401918Y58232184D01*
X17530720Y58206564D01*
X17566228Y58199501D01*
X17566232Y58199500D01*
X17566233Y58199500D01*
X17733768Y58199500D01*
X17733769Y58199501D01*
X17898082Y58232184D01*
X18052863Y58296297D01*
X18192162Y58389374D01*
X18224818Y58422030D01*
X18286140Y58455516D01*
X18355832Y58450532D01*
X18400182Y58422030D01*
X18432834Y58389377D01*
X18432837Y58389374D01*
X18517450Y58332838D01*
X18572137Y58296297D01*
X18726918Y58232184D01*
X18855720Y58206564D01*
X18891228Y58199501D01*
X18891232Y58199500D01*
X18891233Y58199500D01*
X19058768Y58199500D01*
X19058769Y58199501D01*
X19223082Y58232184D01*
X19377863Y58296297D01*
X19517162Y58389374D01*
X19635626Y58507838D01*
X19728703Y58647137D01*
X19792816Y58801918D01*
X19825500Y58966233D01*
X19825500Y59133767D01*
X19792816Y59298082D01*
X19728703Y59452863D01*
X19637500Y59589358D01*
X19635626Y59592163D01*
X19635623Y59592166D01*
X19602970Y59624818D01*
X19569484Y59686140D01*
X19574468Y59755832D01*
X19602970Y59800182D01*
X19635626Y59832838D01*
X19637500Y59835643D01*
X19728703Y59972137D01*
X19792816Y60126918D01*
X19825500Y60291233D01*
X19825500Y60458767D01*
X19792816Y60623082D01*
X19728703Y60777863D01*
X19643010Y60906111D01*
X19622133Y60972786D01*
X19640617Y61040167D01*
X19643000Y61043875D01*
X19728703Y61172137D01*
X19792816Y61326918D01*
X19809098Y61408772D01*
X22224500Y61408772D01*
X22224500Y61241229D01*
X22257182Y61076926D01*
X22257184Y61076918D01*
X22321295Y60922140D01*
X22414373Y60782838D01*
X22532837Y60664374D01*
X22594646Y60623075D01*
X22672137Y60571297D01*
X22672138Y60571297D01*
X22672139Y60571296D01*
X22707201Y60556773D01*
X22826918Y60507184D01*
X22974326Y60477863D01*
X22991228Y60474501D01*
X22991232Y60474500D01*
X22991233Y60474500D01*
X23158768Y60474500D01*
X23158769Y60474501D01*
X23323082Y60507184D01*
X23390967Y60535304D01*
X23460434Y60542773D01*
X23522913Y60511499D01*
X23558567Y60451411D01*
X23556074Y60381586D01*
X23552981Y60373292D01*
X23532184Y60323082D01*
X23532182Y60323075D01*
X23499500Y60158772D01*
X23499500Y59991229D01*
X23532182Y59826926D01*
X23532184Y59826918D01*
X23596295Y59672140D01*
X23689373Y59532838D01*
X23807837Y59414374D01*
X23888276Y59360627D01*
X23947137Y59321297D01*
X24101918Y59257184D01*
X24266228Y59224501D01*
X24266232Y59224500D01*
X24266233Y59224500D01*
X24433768Y59224500D01*
X24433769Y59224501D01*
X24598082Y59257184D01*
X24752863Y59321297D01*
X24892162Y59414374D01*
X25010626Y59532838D01*
X25103703Y59672137D01*
X25167816Y59826918D01*
X25169179Y59833772D01*
X28799500Y59833772D01*
X28799500Y59666229D01*
X28832182Y59501926D01*
X28832184Y59501918D01*
X28896295Y59347140D01*
X28989373Y59207838D01*
X29107837Y59089374D01*
X29179006Y59041821D01*
X29247137Y58996297D01*
X29401918Y58932184D01*
X29566228Y58899501D01*
X29566232Y58899500D01*
X29566233Y58899500D01*
X29733768Y58899500D01*
X29733769Y58899501D01*
X29898082Y58932184D01*
X30052863Y58996297D01*
X30081610Y59015506D01*
X30148286Y59036383D01*
X30215666Y59017899D01*
X30262357Y58965920D01*
X30274500Y58912403D01*
X30274500Y58791229D01*
X30307182Y58626926D01*
X30307184Y58626918D01*
X30371295Y58472140D01*
X30464373Y58332838D01*
X30582837Y58214374D01*
X30675494Y58152463D01*
X30722137Y58121297D01*
X30876918Y58057184D01*
X31002598Y58032185D01*
X31041228Y58024501D01*
X31041232Y58024500D01*
X31041233Y58024500D01*
X31208768Y58024500D01*
X31208769Y58024501D01*
X31373082Y58057184D01*
X31527863Y58121297D01*
X31651891Y58204171D01*
X31718567Y58225048D01*
X31785948Y58206564D01*
X31802994Y58193076D01*
X31803128Y58193239D01*
X31807837Y58189374D01*
X31900494Y58127463D01*
X31947137Y58096297D01*
X32101918Y58032184D01*
X32266228Y57999501D01*
X32266232Y57999500D01*
X32266233Y57999500D01*
X32433768Y57999500D01*
X32433769Y57999501D01*
X32598082Y58032184D01*
X32752863Y58096297D01*
X32892162Y58189374D01*
X33010626Y58307838D01*
X33103703Y58447137D01*
X33167816Y58601918D01*
X33200500Y58766233D01*
X33200500Y58783772D01*
X41849500Y58783772D01*
X41849500Y58616229D01*
X41882182Y58451926D01*
X41882185Y58451914D01*
X41946165Y58297452D01*
X41953634Y58227983D01*
X41946165Y58202548D01*
X41882185Y58048087D01*
X41882182Y58048075D01*
X41849500Y57883772D01*
X41849500Y57716229D01*
X41882182Y57551926D01*
X41882184Y57551918D01*
X41946295Y57397140D01*
X42039373Y57257838D01*
X42157837Y57139374D01*
X42250286Y57077602D01*
X42297137Y57046297D01*
X42451918Y56982184D01*
X42616228Y56949501D01*
X42616232Y56949500D01*
X42731395Y56949500D01*
X42798434Y56929815D01*
X42844189Y56877011D01*
X42854133Y56807853D01*
X42825108Y56744297D01*
X42800286Y56722398D01*
X42707837Y56660627D01*
X42589373Y56542163D01*
X42496295Y56402861D01*
X42432184Y56248083D01*
X42432182Y56248075D01*
X42399500Y56083772D01*
X42399500Y55916229D01*
X42432182Y55751926D01*
X42432184Y55751918D01*
X42496295Y55597140D01*
X42589373Y55457838D01*
X42707837Y55339374D01*
X42800494Y55277463D01*
X42847137Y55246297D01*
X43001918Y55182184D01*
X43166228Y55149501D01*
X43166232Y55149500D01*
X43166233Y55149500D01*
X43333768Y55149500D01*
X43333769Y55149501D01*
X43498082Y55182184D01*
X43652863Y55246297D01*
X43792162Y55339374D01*
X43910626Y55457838D01*
X44003703Y55597137D01*
X44067816Y55751918D01*
X44100500Y55916233D01*
X44100500Y56083767D01*
X44067816Y56248082D01*
X44003703Y56402863D01*
X43972537Y56449506D01*
X43910626Y56542163D01*
X43792162Y56660627D01*
X43652860Y56753705D01*
X43498082Y56817816D01*
X43498074Y56817818D01*
X43333771Y56850500D01*
X43333767Y56850500D01*
X43218605Y56850500D01*
X43151566Y56870185D01*
X43105811Y56922989D01*
X43095867Y56992147D01*
X43124892Y57055703D01*
X43149714Y57077602D01*
X43242162Y57139374D01*
X43360626Y57257838D01*
X43453703Y57397137D01*
X43517816Y57551918D01*
X43550500Y57716233D01*
X43550500Y57883767D01*
X43517816Y58048082D01*
X43453834Y58202547D01*
X43446365Y58272016D01*
X43453834Y58297453D01*
X43468491Y58332838D01*
X43517816Y58451918D01*
X43550500Y58616233D01*
X43550500Y58783767D01*
X43517816Y58948082D01*
X43477386Y59045687D01*
X43453705Y59102859D01*
X43453704Y59102861D01*
X43453703Y59102863D01*
X43399641Y59183772D01*
X54199500Y59183772D01*
X54199500Y59016229D01*
X54232182Y58851926D01*
X54232184Y58851918D01*
X54296295Y58697140D01*
X54389373Y58557838D01*
X54507837Y58439374D01*
X54567512Y58399501D01*
X54647137Y58346297D01*
X54801918Y58282184D01*
X54963719Y58250000D01*
X54966228Y58249501D01*
X54966232Y58249500D01*
X54966233Y58249500D01*
X55133768Y58249500D01*
X55133769Y58249501D01*
X55298082Y58282184D01*
X55452863Y58346297D01*
X55592162Y58439374D01*
X55710626Y58557838D01*
X55803703Y58697137D01*
X55867816Y58851918D01*
X55900500Y59016233D01*
X55900500Y59183767D01*
X55892398Y59224501D01*
X55874264Y59315668D01*
X55870662Y59333772D01*
X56324500Y59333772D01*
X56324500Y59166229D01*
X56357182Y59001926D01*
X56357184Y59001918D01*
X56421295Y58847140D01*
X56514373Y58707838D01*
X56632837Y58589374D01*
X56722668Y58529351D01*
X56772137Y58496297D01*
X56926918Y58432184D01*
X57091228Y58399501D01*
X57091232Y58399500D01*
X57091233Y58399500D01*
X57258768Y58399500D01*
X57258769Y58399501D01*
X57423082Y58432184D01*
X57577863Y58496297D01*
X57717162Y58589374D01*
X57835626Y58707838D01*
X57928703Y58847137D01*
X57992816Y59001918D01*
X58025500Y59166233D01*
X58025500Y59333767D01*
X57992816Y59498082D01*
X57928703Y59652863D01*
X57888855Y59712500D01*
X57835626Y59792163D01*
X57717162Y59910627D01*
X57577860Y60003705D01*
X57423082Y60067816D01*
X57423074Y60067818D01*
X57258771Y60100500D01*
X57258767Y60100500D01*
X57091233Y60100500D01*
X57091228Y60100500D01*
X56926925Y60067818D01*
X56926917Y60067816D01*
X56772139Y60003705D01*
X56632837Y59910627D01*
X56514373Y59792163D01*
X56421295Y59652861D01*
X56357184Y59498083D01*
X56357182Y59498075D01*
X56324500Y59333772D01*
X55870662Y59333772D01*
X55867817Y59348075D01*
X55867816Y59348082D01*
X55805686Y59498075D01*
X55803704Y59502861D01*
X55793711Y59517816D01*
X55744035Y59592162D01*
X55710626Y59642163D01*
X55592162Y59760627D01*
X55452860Y59853705D01*
X55298082Y59917816D01*
X55298074Y59917818D01*
X55133771Y59950500D01*
X55133767Y59950500D01*
X54966233Y59950500D01*
X54966228Y59950500D01*
X54801925Y59917818D01*
X54801917Y59917816D01*
X54647139Y59853705D01*
X54507837Y59760627D01*
X54389373Y59642163D01*
X54296295Y59502861D01*
X54232184Y59348083D01*
X54232182Y59348075D01*
X54199500Y59183772D01*
X43399641Y59183772D01*
X43383561Y59207838D01*
X43360629Y59242158D01*
X43360623Y59242166D01*
X43242162Y59360627D01*
X43102860Y59453705D01*
X42948082Y59517816D01*
X42948074Y59517818D01*
X42783771Y59550500D01*
X42783767Y59550500D01*
X42616233Y59550500D01*
X42616228Y59550500D01*
X42451925Y59517818D01*
X42451917Y59517816D01*
X42297139Y59453705D01*
X42157837Y59360627D01*
X42039373Y59242163D01*
X41946295Y59102861D01*
X41882184Y58948083D01*
X41882182Y58948075D01*
X41849500Y58783772D01*
X33200500Y58783772D01*
X33200500Y58830036D01*
X33220185Y58897075D01*
X33272989Y58942830D01*
X33342147Y58952774D01*
X33371949Y58944598D01*
X33401918Y58932184D01*
X33566228Y58899501D01*
X33566232Y58899500D01*
X33566233Y58899500D01*
X33733768Y58899500D01*
X33733768Y58899501D01*
X33763662Y58905447D01*
X33793977Y58911476D01*
X33836538Y58919943D01*
X33898082Y58932184D01*
X34052863Y58996297D01*
X34192162Y59089374D01*
X34310626Y59207838D01*
X34403703Y59347137D01*
X34467816Y59501918D01*
X34500500Y59666233D01*
X34500500Y59833767D01*
X34467816Y59998082D01*
X34403703Y60152863D01*
X34372537Y60199506D01*
X34310626Y60292163D01*
X34192162Y60410627D01*
X34052860Y60503705D01*
X33898082Y60567816D01*
X33898074Y60567818D01*
X33733771Y60600500D01*
X33733767Y60600500D01*
X33566233Y60600500D01*
X33566228Y60600500D01*
X33401925Y60567818D01*
X33401917Y60567816D01*
X33247139Y60503705D01*
X33107837Y60410627D01*
X33107834Y60410624D01*
X33087681Y60390470D01*
X33026358Y60356985D01*
X32956666Y60361969D01*
X32912319Y60390470D01*
X32892162Y60410627D01*
X32752860Y60503705D01*
X32598082Y60567816D01*
X32598074Y60567818D01*
X32433771Y60600500D01*
X32433767Y60600500D01*
X32266233Y60600500D01*
X32266228Y60600500D01*
X32101925Y60567818D01*
X32101917Y60567816D01*
X31947139Y60503705D01*
X31807838Y60410627D01*
X31803663Y60407200D01*
X31739353Y60379888D01*
X31670485Y60391681D01*
X31646337Y60407200D01*
X31642161Y60410627D01*
X31502860Y60503705D01*
X31348082Y60567816D01*
X31348074Y60567818D01*
X31183771Y60600500D01*
X31183767Y60600500D01*
X31073737Y60600500D01*
X31006698Y60620185D01*
X30960943Y60672989D01*
X30950999Y60742147D01*
X30952120Y60748691D01*
X30975499Y60866229D01*
X30975500Y60866232D01*
X30975500Y61033768D01*
X30975499Y61033772D01*
X30947977Y61172135D01*
X30942816Y61198082D01*
X30878703Y61352863D01*
X30821139Y61439014D01*
X30785626Y61492163D01*
X30667162Y61610627D01*
X30527860Y61703705D01*
X30373082Y61767816D01*
X30373074Y61767818D01*
X30208771Y61800500D01*
X30208767Y61800500D01*
X30041233Y61800500D01*
X30041228Y61800500D01*
X29876925Y61767818D01*
X29876917Y61767816D01*
X29722139Y61703705D01*
X29582837Y61610627D01*
X29464373Y61492163D01*
X29371295Y61352861D01*
X29307184Y61198083D01*
X29307182Y61198075D01*
X29274500Y61033772D01*
X29274500Y60866229D01*
X29307182Y60701926D01*
X29307184Y60701918D01*
X29321017Y60668523D01*
X29328486Y60599054D01*
X29297211Y60536574D01*
X29253919Y60506513D01*
X29247138Y60503704D01*
X29107837Y60410627D01*
X28989373Y60292163D01*
X28896295Y60152861D01*
X28832184Y59998083D01*
X28832182Y59998075D01*
X28799500Y59833772D01*
X25169179Y59833772D01*
X25200500Y59991233D01*
X25200500Y60158767D01*
X25167816Y60323082D01*
X25111613Y60458767D01*
X25103704Y60477861D01*
X25086436Y60503704D01*
X25038478Y60575479D01*
X25010626Y60617163D01*
X24892162Y60735627D01*
X24752860Y60828705D01*
X24598082Y60892816D01*
X24598074Y60892818D01*
X24433771Y60925500D01*
X24433767Y60925500D01*
X24266233Y60925500D01*
X24266228Y60925500D01*
X24101925Y60892818D01*
X24101917Y60892816D01*
X24034033Y60864697D01*
X23964563Y60857228D01*
X23902084Y60888503D01*
X23866432Y60948592D01*
X23868926Y61018417D01*
X23872019Y61026711D01*
X23874942Y61033767D01*
X23892816Y61076918D01*
X23925500Y61241233D01*
X23925500Y61408767D01*
X23892816Y61573082D01*
X23843227Y61692799D01*
X23828704Y61727861D01*
X23735626Y61867163D01*
X23677970Y61924819D01*
X23644485Y61986142D01*
X23649469Y62055834D01*
X23677970Y62100181D01*
X23760623Y62182835D01*
X23760626Y62182838D01*
X23774078Y62202970D01*
X23853703Y62322137D01*
X23917816Y62476918D01*
X23950500Y62641233D01*
X23950500Y62808767D01*
X23917816Y62973082D01*
X23853703Y63127863D01*
X23822537Y63174506D01*
X23760626Y63267163D01*
X23642162Y63385627D01*
X23502860Y63478705D01*
X23348082Y63542816D01*
X23348074Y63542818D01*
X23183771Y63575500D01*
X23183767Y63575500D01*
X23016233Y63575500D01*
X23016228Y63575500D01*
X22851925Y63542818D01*
X22851917Y63542816D01*
X22697139Y63478705D01*
X22557837Y63385627D01*
X22439373Y63267163D01*
X22346295Y63127861D01*
X22282184Y62973083D01*
X22282182Y62973075D01*
X22249500Y62808772D01*
X22249500Y62641229D01*
X22282182Y62476926D01*
X22282184Y62476918D01*
X22346295Y62322140D01*
X22439373Y62182838D01*
X22497030Y62125181D01*
X22530515Y62063858D01*
X22525531Y61994166D01*
X22497030Y61949819D01*
X22414376Y61867166D01*
X22414373Y61867163D01*
X22321295Y61727861D01*
X22257184Y61573083D01*
X22257182Y61573075D01*
X22224500Y61408772D01*
X19809098Y61408772D01*
X19825500Y61491233D01*
X19825500Y61658767D01*
X19792816Y61823082D01*
X19728703Y61977863D01*
X19650000Y62095650D01*
X19635626Y62117163D01*
X19517162Y62235627D01*
X19377860Y62328705D01*
X19223082Y62392816D01*
X19223074Y62392818D01*
X19058771Y62425500D01*
X19058767Y62425500D01*
X18891233Y62425500D01*
X18891228Y62425500D01*
X18726925Y62392818D01*
X18726917Y62392816D01*
X18572139Y62328705D01*
X18432837Y62235627D01*
X18432834Y62235624D01*
X18400181Y62202970D01*
X18338858Y62169485D01*
X18269166Y62174469D01*
X18224819Y62202970D01*
X18192162Y62235627D01*
X18052860Y62328705D01*
X17898082Y62392816D01*
X17898074Y62392818D01*
X17733771Y62425500D01*
X17733767Y62425500D01*
X17566233Y62425500D01*
X17566228Y62425500D01*
X17401925Y62392818D01*
X17401917Y62392816D01*
X17247139Y62328705D01*
X17107837Y62235627D01*
X17107834Y62235624D01*
X17062681Y62190470D01*
X17001358Y62156985D01*
X16931666Y62161969D01*
X16887319Y62190470D01*
X16842162Y62235627D01*
X16702860Y62328705D01*
X16548082Y62392816D01*
X16548074Y62392818D01*
X16383771Y62425500D01*
X16383767Y62425500D01*
X16216233Y62425500D01*
X16216228Y62425500D01*
X16051925Y62392818D01*
X16051917Y62392816D01*
X15897139Y62328705D01*
X15757837Y62235627D01*
X15639373Y62117163D01*
X15546295Y61977861D01*
X15482184Y61823083D01*
X15482182Y61823075D01*
X15449500Y61658772D01*
X500500Y61658772D01*
X500500Y64221293D01*
X41530500Y64221293D01*
X41530500Y64068707D01*
X41569992Y63921322D01*
X41569993Y63921319D01*
X41646282Y63789183D01*
X41646284Y63789181D01*
X41646285Y63789179D01*
X41754179Y63681285D01*
X41754180Y63681284D01*
X41754182Y63681283D01*
X41886318Y63604994D01*
X41886319Y63604994D01*
X41886322Y63604992D01*
X42033707Y63565500D01*
X42033710Y63565500D01*
X42186290Y63565500D01*
X42186293Y63565500D01*
X42333678Y63604992D01*
X42465821Y63681285D01*
X42573715Y63789179D01*
X42650008Y63921322D01*
X42689500Y64068707D01*
X42689500Y64221293D01*
X47310500Y64221293D01*
X47310500Y64068707D01*
X47349992Y63921322D01*
X47349993Y63921319D01*
X47426282Y63789183D01*
X47426284Y63789181D01*
X47426285Y63789179D01*
X47534179Y63681285D01*
X47534180Y63681284D01*
X47534182Y63681283D01*
X47666318Y63604994D01*
X47666319Y63604994D01*
X47666322Y63604992D01*
X47813707Y63565500D01*
X47813710Y63565500D01*
X47966290Y63565500D01*
X47966293Y63565500D01*
X48113678Y63604992D01*
X48245821Y63681285D01*
X48353715Y63789179D01*
X48430008Y63921322D01*
X48469500Y64068707D01*
X48469500Y64221293D01*
X48430008Y64368678D01*
X48414522Y64395500D01*
X48353717Y64500818D01*
X48353712Y64500824D01*
X48245823Y64608713D01*
X48245817Y64608718D01*
X48113681Y64685007D01*
X48113682Y64685007D01*
X48101595Y64688246D01*
X47966293Y64724500D01*
X47813707Y64724500D01*
X47678404Y64688246D01*
X47666318Y64685007D01*
X47534182Y64608718D01*
X47534176Y64608713D01*
X47426287Y64500824D01*
X47426282Y64500818D01*
X47349993Y64368682D01*
X47349992Y64368678D01*
X47310500Y64221293D01*
X42689500Y64221293D01*
X42650008Y64368678D01*
X42634522Y64395500D01*
X42573717Y64500818D01*
X42573712Y64500824D01*
X42465823Y64608713D01*
X42465817Y64608718D01*
X42333681Y64685007D01*
X42333682Y64685007D01*
X42321595Y64688246D01*
X42186293Y64724500D01*
X42033707Y64724500D01*
X41898404Y64688246D01*
X41886318Y64685007D01*
X41754182Y64608718D01*
X41754176Y64608713D01*
X41646287Y64500824D01*
X41646282Y64500818D01*
X41569993Y64368682D01*
X41569992Y64368678D01*
X41530500Y64221293D01*
X500500Y64221293D01*
X500500Y66496949D01*
X500649Y66503034D01*
X507277Y66637937D01*
X2145500Y66637937D01*
X2145500Y66362064D01*
X2181506Y66088562D01*
X2181507Y66088557D01*
X2181508Y66088551D01*
X2200637Y66017162D01*
X2252908Y65822081D01*
X2358475Y65567218D01*
X2358482Y65567203D01*
X2496413Y65328298D01*
X2664362Y65109424D01*
X2859423Y64914363D01*
X2859427Y64914360D01*
X2859429Y64914358D01*
X2867926Y64907838D01*
X3078297Y64746414D01*
X3317202Y64608483D01*
X3317217Y64608476D01*
X3449020Y64553882D01*
X3572079Y64502909D01*
X3838551Y64431508D01*
X4031718Y64406078D01*
X4112063Y64395500D01*
X4112064Y64395500D01*
X4387937Y64395500D01*
X4450038Y64403676D01*
X4661449Y64431508D01*
X4927921Y64502909D01*
X5182794Y64608481D01*
X5421707Y64746417D01*
X5640571Y64914358D01*
X5835642Y65109429D01*
X6003583Y65328293D01*
X6122216Y65533772D01*
X11824500Y65533772D01*
X11824500Y65366229D01*
X11857182Y65201926D01*
X11857184Y65201918D01*
X11921295Y65047140D01*
X12014373Y64907838D01*
X12132837Y64789374D01*
X12197127Y64746417D01*
X12272137Y64696297D01*
X12426918Y64632184D01*
X12591228Y64599501D01*
X12591232Y64599500D01*
X12591233Y64599500D01*
X12758768Y64599500D01*
X12758769Y64599501D01*
X12923082Y64632184D01*
X13077863Y64696297D01*
X13217162Y64789374D01*
X13335626Y64907838D01*
X13428703Y65047137D01*
X13492816Y65201918D01*
X13525500Y65366233D01*
X13525500Y65533767D01*
X13524127Y65540670D01*
X13524127Y65540673D01*
X13520527Y65558772D01*
X14374500Y65558772D01*
X14374500Y65391229D01*
X14407182Y65226926D01*
X14407184Y65226918D01*
X14471295Y65072140D01*
X14564373Y64932838D01*
X14682837Y64814374D01*
X14775494Y64752463D01*
X14822137Y64721297D01*
X14976918Y64657184D01*
X15102598Y64632185D01*
X15141228Y64624501D01*
X15141232Y64624500D01*
X15141233Y64624500D01*
X15308768Y64624500D01*
X15308769Y64624501D01*
X15473082Y64657184D01*
X15627863Y64721297D01*
X15767162Y64814374D01*
X15885626Y64932838D01*
X15978703Y65072137D01*
X16042816Y65226918D01*
X16075500Y65391233D01*
X16075500Y65558767D01*
X16042816Y65723082D01*
X15978703Y65877863D01*
X15947537Y65924506D01*
X15885626Y66017163D01*
X15767162Y66135627D01*
X15627860Y66228705D01*
X15473082Y66292816D01*
X15473074Y66292818D01*
X15308771Y66325500D01*
X15308767Y66325500D01*
X15141233Y66325500D01*
X15141228Y66325500D01*
X14976925Y66292818D01*
X14976917Y66292816D01*
X14822139Y66228705D01*
X14682837Y66135627D01*
X14564373Y66017163D01*
X14471295Y65877861D01*
X14407184Y65723083D01*
X14407182Y65723075D01*
X14374500Y65558772D01*
X13520527Y65558772D01*
X13492817Y65698075D01*
X13492816Y65698082D01*
X13428703Y65852863D01*
X13370898Y65939374D01*
X13335626Y65992163D01*
X13217162Y66110627D01*
X13077860Y66203705D01*
X12923082Y66267816D01*
X12923074Y66267818D01*
X12758771Y66300500D01*
X12758767Y66300500D01*
X12591233Y66300500D01*
X12591228Y66300500D01*
X12426925Y66267818D01*
X12426917Y66267816D01*
X12272139Y66203705D01*
X12132837Y66110627D01*
X12014373Y65992163D01*
X11921295Y65852861D01*
X11857184Y65698083D01*
X11857182Y65698075D01*
X11824500Y65533772D01*
X6122216Y65533772D01*
X6141519Y65567206D01*
X6247091Y65822079D01*
X6318492Y66088551D01*
X6354500Y66362064D01*
X6354500Y66637936D01*
X6348466Y66683772D01*
X29099500Y66683772D01*
X29099500Y66516229D01*
X29132182Y66351926D01*
X29132184Y66351918D01*
X29196295Y66197140D01*
X29289373Y66057838D01*
X29407837Y65939374D01*
X29499895Y65877863D01*
X29547137Y65846297D01*
X29701918Y65782184D01*
X29866228Y65749501D01*
X29866232Y65749500D01*
X29866233Y65749500D01*
X30033768Y65749500D01*
X30033769Y65749501D01*
X30198082Y65782184D01*
X30352863Y65846297D01*
X30492162Y65939374D01*
X30610626Y66057838D01*
X30703703Y66197137D01*
X30767816Y66351918D01*
X30800500Y66516233D01*
X30800500Y66637937D01*
X93645500Y66637937D01*
X93645500Y66362064D01*
X93681506Y66088562D01*
X93681507Y66088557D01*
X93681508Y66088551D01*
X93700637Y66017162D01*
X93752908Y65822081D01*
X93858475Y65567218D01*
X93858482Y65567203D01*
X93996413Y65328298D01*
X94164362Y65109424D01*
X94359423Y64914363D01*
X94359427Y64914360D01*
X94359429Y64914358D01*
X94367926Y64907838D01*
X94578297Y64746414D01*
X94817202Y64608483D01*
X94817217Y64608476D01*
X94949020Y64553882D01*
X95072079Y64502909D01*
X95338551Y64431508D01*
X95531718Y64406078D01*
X95612063Y64395500D01*
X95612064Y64395500D01*
X95887937Y64395500D01*
X95950038Y64403676D01*
X96161449Y64431508D01*
X96427921Y64502909D01*
X96682794Y64608481D01*
X96921707Y64746417D01*
X97140571Y64914358D01*
X97335642Y65109429D01*
X97503583Y65328293D01*
X97641519Y65567206D01*
X97747091Y65822079D01*
X97818492Y66088551D01*
X97854500Y66362064D01*
X97854500Y66637936D01*
X97853164Y66648081D01*
X97825077Y66861432D01*
X97818492Y66911449D01*
X97747091Y67177921D01*
X97647723Y67417816D01*
X97641524Y67432783D01*
X97641517Y67432798D01*
X97503586Y67671703D01*
X97335637Y67890577D01*
X97140576Y68085638D01*
X96921702Y68253587D01*
X96682797Y68391518D01*
X96682782Y68391525D01*
X96427919Y68497092D01*
X96294685Y68532792D01*
X96161449Y68568492D01*
X96161443Y68568493D01*
X96161438Y68568494D01*
X95887937Y68604500D01*
X95887936Y68604500D01*
X95612064Y68604500D01*
X95612063Y68604500D01*
X95338561Y68568494D01*
X95338554Y68568493D01*
X95338551Y68568492D01*
X95282236Y68553403D01*
X95072080Y68497092D01*
X94817217Y68391525D01*
X94817202Y68391518D01*
X94578297Y68253587D01*
X94359423Y68085638D01*
X94164362Y67890577D01*
X93996413Y67671703D01*
X93858482Y67432798D01*
X93858475Y67432783D01*
X93752908Y67177920D01*
X93681509Y66911452D01*
X93681506Y66911439D01*
X93645500Y66637937D01*
X30800500Y66637937D01*
X30800500Y66683767D01*
X30767816Y66848082D01*
X30703703Y67002863D01*
X30624997Y67120655D01*
X30610626Y67142163D01*
X30492162Y67260627D01*
X30352860Y67353705D01*
X30198082Y67417816D01*
X30198074Y67417818D01*
X30033771Y67450500D01*
X30033767Y67450500D01*
X29866233Y67450500D01*
X29866228Y67450500D01*
X29701925Y67417818D01*
X29701917Y67417816D01*
X29547139Y67353705D01*
X29407837Y67260627D01*
X29289373Y67142163D01*
X29196295Y67002861D01*
X29132184Y66848083D01*
X29132182Y66848075D01*
X29099500Y66683772D01*
X6348466Y66683772D01*
X6318492Y66911449D01*
X6247091Y67177921D01*
X6147723Y67417816D01*
X6141524Y67432783D01*
X6141517Y67432798D01*
X6003586Y67671703D01*
X5835637Y67890577D01*
X5640576Y68085638D01*
X5421702Y68253587D01*
X5182797Y68391518D01*
X5182782Y68391525D01*
X4927919Y68497092D01*
X4794685Y68532792D01*
X4661449Y68568492D01*
X4661443Y68568493D01*
X4661438Y68568494D01*
X4387937Y68604500D01*
X4387936Y68604500D01*
X4112064Y68604500D01*
X4112063Y68604500D01*
X3838561Y68568494D01*
X3838554Y68568493D01*
X3838551Y68568492D01*
X3782236Y68553403D01*
X3572080Y68497092D01*
X3317217Y68391525D01*
X3317202Y68391518D01*
X3078297Y68253587D01*
X2859423Y68085638D01*
X2664362Y67890577D01*
X2496413Y67671703D01*
X2358482Y67432798D01*
X2358475Y67432783D01*
X2252908Y67177920D01*
X2181509Y66911452D01*
X2181506Y66911439D01*
X2145500Y66637937D01*
X507277Y66637937D01*
X507775Y66648080D01*
X507775Y66648081D01*
X518256Y66861432D01*
X519449Y66873543D01*
X571654Y67225480D01*
X574023Y67237391D01*
X660474Y67582524D01*
X664005Y67594161D01*
X691750Y67671703D01*
X783865Y67929146D01*
X788506Y67940353D01*
X940643Y68262021D01*
X946358Y68272713D01*
X1129278Y68577895D01*
X1136021Y68587988D01*
X1347979Y68873781D01*
X1355682Y68883166D01*
X1594628Y69146802D01*
X1603198Y69155372D01*
X1866834Y69394318D01*
X1876219Y69402021D01*
X2162012Y69613979D01*
X2172105Y69620722D01*
X2477287Y69803642D01*
X2487979Y69809357D01*
X2809647Y69961494D01*
X2820854Y69966135D01*
X3155840Y70085996D01*
X3167476Y70089526D01*
X3512609Y70175977D01*
X3524520Y70178346D01*
X3876460Y70230552D01*
X3888564Y70231744D01*
X4246967Y70249352D01*
X4253051Y70249500D01*
X4315892Y70249500D01*
X95684108Y70249500D01*
X95746949Y70249500D01*
X95753032Y70249352D01*
G37*
%TD.AperFunction*%
%TD*%
M02*
