M48
; DRILL file KiCad 10.0.4 date 2026-08-17T00:52:35
; FORMAT={-:-/ absolute / inch / decimal}
; #@! TF.CreationDate,2026-08-17T00:52:35+01:00
; #@! TF.GenerationSoftware,Kicad,Pcbnew,10.0.4
; #@! TF.FileFunction,Plated,1,4,PTH
FMAT,2
INCH
; #@! TA.AperFunction,Plated,PTH,ComponentDrill
T1C0.0100
; #@! TA.AperFunction,Plated,PTH,ViaDrill
T2C0.0118
; #@! TA.AperFunction,Plated,PTH,ComponentDrill
T3C0.0236
; #@! TA.AperFunction,Plated,PTH,ComponentDrill
T4C0.0402
; #@! TA.AperFunction,Plated,PTH,ComponentDrill
T5C0.0409
; #@! TA.AperFunction,Plated,PTH,ComponentDrill
T6C0.0430
%
G90
G05
T1
X1.1105Y2.4429
X1.1415Y2.4429
T2
X0.4882Y2.3937
X0.4961Y0.9291
X0.499Y2.5768
X0.5Y0.7756
X0.5118Y1.938
X0.5118Y1.5846
X0.5276Y2.3937
X0.5315Y1.0709
X0.5543Y0.7047
X0.5543Y0.5748
X0.5994Y2.5778
X0.6417Y2.4242
X0.6417Y2.377
X0.6417Y2.3248
X0.6929Y1.627
X0.6949Y2.4242
X0.6949Y2.377
X0.6949Y2.3248
X0.6949Y1.6969
X0.7441Y2.5404
X0.7441Y2.5059
X0.747Y2.4242
X0.747Y2.377
X0.747Y2.3248
X0.7543Y0.7047
X0.7543Y0.5748
X0.7913Y1.2047
X0.7953Y0.9291
X0.7953Y0.7756
X0.8376Y2.5935
X0.8386Y2.6289
X0.8386Y1.0827
X0.8976Y0.9291
X0.9016Y0.7756
X0.9085Y2.4144
X0.9094Y2.4695
X0.9154Y2.5295
X0.9331Y1.0669
X0.9543Y0.7047
X0.9543Y0.5748
X0.9547Y2.5689
X0.9587Y2.3652
X0.9793Y2.0187
X1.0256Y2.2116
X1.0266Y2.2451
X1.0581Y2.062
X1.0817Y2.2677
X1.0827Y2.6181
X1.1112Y2.2677
X1.1122Y2.6181
X1.125Y2.3681
X1.1543Y0.7047
X1.1543Y0.5748
X1.1673Y2.3524
X1.1791Y2.622
X1.186Y2.3996
X1.1969Y1.2047
X1.1969Y0.9291
X1.1969Y0.7756
X1.2008Y1.9774
X1.2205Y2.5295
X1.2244Y2.3524
X1.2254Y2.3179
X1.2402Y1.0866
X1.2598Y2.5295
X1.2736Y2.3524
X1.2736Y2.3169
X1.2992Y2.5295
X1.2992Y0.9291
X1.3031Y0.7756
X1.3248Y2.3524
X1.3346Y1.063
X1.3386Y2.5295
X1.3543Y0.7047
X1.3543Y0.5748
X1.374Y2.0689
X1.378Y2.5295
X1.4173Y2.5295
X1.4862Y2.4606
X1.5543Y0.7047
X1.5543Y0.5748
X1.5618Y1.8599
X1.565Y2.313
X1.565Y2.2736
X1.5945Y1.937
X1.5945Y1.2047
X1.5945Y0.9291
X1.5945Y0.7756
X1.6102Y1.4724
X1.6339Y2.372
X1.6378Y1.0866
X1.6811Y2.311
X1.6811Y2.2756
X1.688Y1.4931
X1.6898Y1.8104
X1.6898Y1.7323
X1.6969Y0.9291
X1.6977Y1.644
X1.7028Y2.2047
X1.7047Y1.8425
X1.7047Y0.7756
X1.7362Y1.063
X1.751Y1.7844
X1.753Y1.7126
X1.7543Y0.7047
X1.7543Y0.5748
X1.7717Y1.3307
X1.7854Y1.749
X1.7968Y1.5707
X1.8012Y2.2047
X1.8071Y1.9842
X1.8087Y1.9547
X1.81Y1.6408
X1.8177Y1.8317
X1.8179Y1.7844
X1.8179Y1.7136
X1.8238Y1.5472
X1.8268Y1.3307
X1.8768Y1.7874
X1.8768Y1.7008
X1.8768Y1.6457
X1.9094Y1.9724
X1.9114Y1.9449
X1.9543Y0.7047
X1.9543Y0.5748
X1.9606Y1.6024
X1.9921Y0.9291
X1.9961Y1.2008
X1.9961Y0.7756
X2.0079Y1.6024
X2.0089Y1.9016
X2.0098Y1.747
X2.0119Y1.8621
X2.0148Y1.9469
X2.0157Y1.7047
X2.0197Y2.4242
X2.0276Y1.5177
X2.0384Y1.9803
X2.0394Y2.1181
X2.0394Y1.0866
X2.0469Y1.5783
X2.0984Y0.9291
X2.1063Y0.7756
X2.1378Y1.063
X2.1543Y0.7047
X2.1543Y0.5748
X2.1654Y1.9055
X2.1673Y2.3268
X2.1732Y2.1801
X2.1917Y1.5169
X2.251Y2.3327
X2.3307Y1.5933
X2.3543Y0.7047
X2.3543Y0.5748
X2.3681Y2.2874
X2.3917Y1.5146
X2.3937Y1.2008
X2.3976Y0.9291
X2.3976Y0.7756
X2.4409Y1.0866
X2.5039Y0.9291
X2.5039Y0.7756
X2.5394Y1.063
X2.5445Y1.6449
X2.5543Y0.7047
X2.5543Y0.5748
X2.5699Y1.9557
X2.5984Y1.6008
X2.6146Y1.7154
X2.624Y1.9793
X2.6665Y1.8898
X2.6744Y1.6756
X2.7209Y1.7366
X2.7272Y1.8047
X2.7333Y2.2047
X2.7543Y0.7047
X2.7543Y0.5748
X2.7766Y1.6053
X2.7805Y1.8839
X2.7854Y1.8219
X2.7992Y1.2008
X2.7992Y0.7756
X2.8031Y0.9291
X2.8159Y1.3612
X2.8386Y1.0866
X2.8642Y1.3514
X2.8839Y2.1142
X2.939Y1.2589
X2.9937Y0.9134
X3.0Y1.748
X3.0069Y1.499
X3.0295Y2.2116
X3.0295Y1.4213
X3.0394Y1.0945
X3.1043Y0.498
X3.1594Y1.0866
X3.1624Y0.9537
X3.1693Y1.0069
X3.2096Y1.2323
X3.2126Y1.1693
X3.2392Y0.9528
X3.2795Y0.9498
X3.2825Y0.5423
X3.3179Y0.9557
X3.3563Y0.497
X3.3573Y0.9567
X3.3671Y1.2313
X3.3671Y1.1713
X3.3888Y1.7057
X3.3957Y0.9557
X3.4026Y0.497
X3.435Y0.9557
X3.436Y1.625
X3.4813Y0.5364
X3.563Y1.374
X3.5768Y0.5354
X3.6506Y0.4961
X3.6565Y1.1998
X3.6575Y1.247
T4
X0.4043Y0.5036
X0.4043Y0.4036
X0.5043Y0.5036
X0.5043Y0.4036
X0.6043Y0.5036
X0.6043Y0.4036
X0.7043Y0.5036
X0.7043Y0.4036
X0.8043Y0.5036
X0.8043Y0.4036
X0.9043Y0.5036
X0.9043Y0.4036
X1.0043Y0.5036
X1.0043Y0.4036
X1.1043Y0.5036
X1.1043Y0.4036
X1.2043Y0.5036
X1.2043Y0.4036
X1.3043Y0.5036
X1.3043Y0.4036
X1.4043Y0.5036
X1.4043Y0.4036
X1.5043Y0.5036
X1.5043Y0.4036
X1.6043Y0.5036
X1.6043Y0.4036
X1.7043Y0.5036
X1.7043Y0.4036
X1.8043Y0.5036
X1.8043Y0.4036
X1.9043Y0.5036
X1.9043Y0.4036
X2.0043Y0.5036
X2.0043Y0.4036
X2.1043Y0.5036
X2.1043Y0.4036
X2.2043Y0.5036
X2.2043Y0.4036
X2.3043Y0.5036
X2.3043Y0.4036
X2.4043Y0.5036
X2.4043Y0.4036
X2.5043Y0.5036
X2.5043Y0.4036
X2.6043Y0.5036
X2.6043Y0.4036
X2.7043Y0.5036
X2.7043Y0.4036
X2.8043Y0.5036
X2.8043Y0.4036
T5
X3.1802Y0.3807
X3.2802Y0.3807
X3.3802Y0.3807
X3.4802Y0.3807
X3.5802Y0.3807
X3.6802Y0.3807
T6
X0.3623Y1.861
X0.3623Y1.7625
X0.3623Y1.6641
X3.5728Y1.8602
X3.5728Y1.7618
X3.5728Y1.6634
T3
G00X1.6016Y2.6545
M15
G01X1.6016Y2.686
M16
G05
G00X1.6016Y2.4841
M15
G01X1.6016Y2.5274
M16
G05
G00X1.9417Y2.6545
M15
G01X1.9417Y2.686
M16
G05
G00X1.9417Y2.4841
M15
G01X1.9417Y2.5274
M16
G05
M30
