%TF.GenerationSoftware,KiCad,Pcbnew,10.0.4*%
%TF.CreationDate,2026-08-17T00:52:35+01:00*%
%TF.ProjectId,LogicAnalyzer_RP2350,4c6f6769-6341-46e6-916c-797a65725f52,rev?*%
%TF.SameCoordinates,Original*%
%TF.FileFunction,Paste,Top*%
%TF.FilePolarity,Positive*%
%FSLAX46Y46*%
G04 Gerber Fmt 4.6, Leading zero omitted, Abs format (unit mm)*
G04 Created by KiCad (PCBNEW 10.0.4) date 2026-08-17 00:52:35*
%MOMM*%
%LPD*%
G01*
G04 APERTURE LIST*
G04 Aperture macros list*
%AMRoundRect*
0 Rectangle with rounded corners*
0 $1 Rounding radius*
0 $2 $3 $4 $5 $6 $7 $8 $9 X,Y pos of 4 corners*
0 Add a 4 corners polygon primitive as box body*
4,1,4,$2,$3,$4,$5,$6,$7,$8,$9,$2,$3,0*
0 Add four circle primitives for the rounded corners*
1,1,$1+$1,$2,$3*
1,1,$1+$1,$4,$5*
1,1,$1+$1,$6,$7*
1,1,$1+$1,$8,$9*
0 Add four rect primitives between the rounded corners*
20,1,$1+$1,$2,$3,$4,$5,0*
20,1,$1+$1,$4,$5,$6,$7,0*
20,1,$1+$1,$6,$7,$8,$9,0*
20,1,$1+$1,$8,$9,$2,$3,0*%
G04 Aperture macros list end*
%ADD10C,0.000000*%
%ADD11RoundRect,0.150000X0.875000X0.150000X-0.875000X0.150000X-0.875000X-0.150000X0.875000X-0.150000X0*%
%ADD12RoundRect,0.227500X-0.227500X-0.227500X0.227500X-0.227500X0.227500X0.227500X-0.227500X0.227500X0*%
%ADD13RoundRect,0.050000X-0.350000X-0.050000X0.350000X-0.050000X0.350000X0.050000X-0.350000X0.050000X0*%
%ADD14RoundRect,0.050000X-0.050000X-0.350000X0.050000X-0.350000X0.050000X0.350000X-0.050000X0.350000X0*%
%ADD15RoundRect,0.237500X-0.237500X0.250000X-0.237500X-0.250000X0.237500X-0.250000X0.237500X0.250000X0*%
%ADD16RoundRect,0.237500X-0.237500X0.287500X-0.237500X-0.287500X0.237500X-0.287500X0.237500X0.287500X0*%
%ADD17R,0.300000X0.500000*%
%ADD18RoundRect,0.160000X-0.160000X0.197500X-0.160000X-0.197500X0.160000X-0.197500X0.160000X0.197500X0*%
%ADD19R,0.470000X0.530000*%
%ADD20R,0.700000X1.700000*%
%ADD21RoundRect,0.237500X0.237500X-0.300000X0.237500X0.300000X-0.237500X0.300000X-0.237500X-0.300000X0*%
%ADD22RoundRect,0.237500X0.250000X0.237500X-0.250000X0.237500X-0.250000X-0.237500X0.250000X-0.237500X0*%
%ADD23RoundRect,0.237500X0.237500X-0.250000X0.237500X0.250000X-0.237500X0.250000X-0.237500X-0.250000X0*%
%ADD24RoundRect,0.237500X0.300000X0.237500X-0.300000X0.237500X-0.300000X-0.237500X0.300000X-0.237500X0*%
%ADD25R,0.355600X1.409700*%
%ADD26RoundRect,0.237500X-0.250000X-0.237500X0.250000X-0.237500X0.250000X0.237500X-0.250000X0.237500X0*%
%ADD27RoundRect,0.160000X0.197500X0.160000X-0.197500X0.160000X-0.197500X-0.160000X0.197500X-0.160000X0*%
%ADD28RoundRect,0.150000X0.150000X0.625000X-0.150000X0.625000X-0.150000X-0.625000X0.150000X-0.625000X0*%
%ADD29RoundRect,0.250000X0.350000X0.650000X-0.350000X0.650000X-0.350000X-0.650000X0.350000X-0.650000X0*%
%ADD30RoundRect,0.160000X-0.197500X-0.160000X0.197500X-0.160000X0.197500X0.160000X-0.197500X0.160000X0*%
%ADD31R,0.965200X0.939800*%
%ADD32RoundRect,0.237500X0.237500X-0.287500X0.237500X0.287500X-0.237500X0.287500X-0.237500X-0.287500X0*%
%ADD33R,0.600000X0.600000*%
%ADD34RoundRect,0.155000X-0.212500X-0.155000X0.212500X-0.155000X0.212500X0.155000X-0.212500X0.155000X0*%
%ADD35R,0.950000X1.250000*%
%ADD36R,3.200000X1.250000*%
%ADD37RoundRect,0.155000X-0.155000X0.212500X-0.155000X-0.212500X0.155000X-0.212500X0.155000X0.212500X0*%
%ADD38R,1.295400X0.889000*%
%ADD39R,3.098800X2.209800*%
%ADD40RoundRect,0.250000X-0.337500X-0.475000X0.337500X-0.475000X0.337500X0.475000X-0.337500X0.475000X0*%
%ADD41R,1.400000X1.100000*%
%ADD42RoundRect,0.155000X0.212500X0.155000X-0.212500X0.155000X-0.212500X-0.155000X0.212500X-0.155000X0*%
%ADD43RoundRect,0.155000X0.155000X-0.212500X0.155000X0.212500X-0.155000X0.212500X-0.155000X-0.212500X0*%
%ADD44RoundRect,0.160000X0.160000X-0.197500X0.160000X0.197500X-0.160000X0.197500X-0.160000X-0.197500X0*%
%ADD45R,0.660400X1.041400*%
%ADD46RoundRect,0.250000X0.475000X-0.337500X0.475000X0.337500X-0.475000X0.337500X-0.475000X-0.337500X0*%
%ADD47RoundRect,0.162500X-0.650000X-0.162500X0.650000X-0.162500X0.650000X0.162500X-0.650000X0.162500X0*%
%ADD48RoundRect,0.250000X-0.475000X0.337500X-0.475000X-0.337500X0.475000X-0.337500X0.475000X0.337500X0*%
%ADD49R,0.660400X1.651000*%
%ADD50R,1.193800X1.854200*%
%ADD51RoundRect,0.250000X0.600000X-0.400000X0.600000X0.400000X-0.600000X0.400000X-0.600000X-0.400000X0*%
%ADD52RoundRect,0.250000X0.337500X0.475000X-0.337500X0.475000X-0.337500X-0.475000X0.337500X-0.475000X0*%
%ADD53R,0.350000X0.850000*%
%ADD54O,1.000000X1.800000*%
%ADD55O,1.000000X2.100000*%
%ADD56RoundRect,0.150000X0.150000X0.425000X-0.150000X0.425000X-0.150000X-0.425000X0.150000X-0.425000X0*%
%ADD57RoundRect,0.075000X0.075000X0.500000X-0.075000X0.500000X-0.075000X-0.500000X0.075000X-0.500000X0*%
G04 APERTURE END LIST*
D10*
%TO.C,U2*%
G36*
X28075001Y62775000D02*
G01*
X27825001Y62775000D01*
X27825001Y63425001D01*
X28075001Y63425001D01*
X28075001Y62775000D01*
G37*
G36*
X28075001Y60674999D02*
G01*
X27825001Y60674999D01*
X27825001Y61325000D01*
X28075001Y61325000D01*
X28075001Y60674999D01*
G37*
G36*
X28725002Y62775000D02*
G01*
X28475000Y62775000D01*
X28475000Y63425001D01*
X28725002Y63425001D01*
X28725002Y62775000D01*
G37*
G36*
X28725002Y60674999D02*
G01*
X28475000Y60674999D01*
X28475000Y61325000D01*
X28725002Y61325000D01*
X28725002Y60674999D01*
G37*
G36*
X29375001Y62775000D02*
G01*
X29125001Y62775000D01*
X29125001Y63425001D01*
X29375001Y63425001D01*
X29375001Y62775000D01*
G37*
G36*
X29375001Y60674999D02*
G01*
X29125001Y60674999D01*
X29125001Y61325000D01*
X29375001Y61325000D01*
X29375001Y60674999D01*
G37*
G36*
X28106301Y62291421D02*
G01*
X27964880Y62150000D01*
X27874831Y62150000D01*
X27874831Y62483070D01*
X28106301Y62483070D01*
X28106301Y62291421D01*
G37*
G36*
X28106301Y61808579D02*
G01*
X28106301Y61616930D01*
X27874831Y61616930D01*
X27874831Y61950000D01*
X27964880Y61950000D01*
X28106301Y61808579D01*
G37*
G36*
X29325171Y62150000D02*
G01*
X29235122Y62150000D01*
X29093701Y62291421D01*
X29093701Y62483070D01*
X29325171Y62483070D01*
X29325171Y62150000D01*
G37*
G36*
X29325171Y61616930D02*
G01*
X29093701Y61616930D01*
X29093701Y61808579D01*
X29235122Y61950000D01*
X29325171Y61950000D01*
X29325171Y61616930D01*
G37*
G36*
X28893701Y62291421D02*
G01*
X28752280Y62150000D01*
X28447722Y62150000D01*
X28306301Y62291421D01*
X28306301Y62483070D01*
X28893701Y62483070D01*
X28893701Y62291421D01*
G37*
G36*
X28893701Y61808579D02*
G01*
X28893701Y61616930D01*
X28306301Y61616930D01*
X28306301Y61808579D01*
X28447722Y61950000D01*
X28752280Y61950000D01*
X28893701Y61808579D01*
G37*
%TD*%
D11*
%TO.C,U11*%
X74600000Y33035000D03*
X74600000Y34305000D03*
X74600000Y35575000D03*
X74600000Y36845000D03*
X74600000Y38115000D03*
X74600000Y39385000D03*
X74600000Y40655000D03*
X74600000Y41925000D03*
X74600000Y43195000D03*
X74600000Y44465000D03*
X83900000Y44465000D03*
X83900000Y43195000D03*
X83900000Y41925000D03*
X83900000Y40655000D03*
X83900000Y39385000D03*
X83900000Y38115000D03*
X83900000Y36845000D03*
X83900000Y35575000D03*
X83900000Y34305000D03*
X83900000Y33035000D03*
%TD*%
D12*
%TO.C,U4*%
X44192500Y45405242D03*
X44192500Y44275242D03*
X44192500Y43145242D03*
X45322500Y45405242D03*
X45322500Y44275242D03*
X45322500Y43145242D03*
X46452500Y45405242D03*
X46452500Y44275242D03*
X46452500Y43145242D03*
D13*
X41872500Y47075242D03*
X41872500Y46675242D03*
X41872500Y46275242D03*
X41872500Y45875242D03*
X41872500Y45475242D03*
X41872500Y45075242D03*
X41872500Y44675242D03*
X41872500Y44275242D03*
X41872500Y43875242D03*
X41872500Y43475242D03*
X41872500Y43075242D03*
X41872500Y42675242D03*
X41872500Y42275242D03*
X41872500Y41875242D03*
X41872500Y41475242D03*
D14*
X42522500Y40825242D03*
X42922500Y40825242D03*
X43322500Y40825242D03*
X43722500Y40825242D03*
X44122500Y40825242D03*
X44522500Y40825242D03*
X44922500Y40825242D03*
X45322500Y40825242D03*
X45722500Y40825242D03*
X46122500Y40825242D03*
X46522500Y40825242D03*
X46922500Y40825242D03*
X47322500Y40825242D03*
X47722500Y40825242D03*
X48122500Y40825242D03*
D13*
X48772500Y41475242D03*
X48772500Y41875242D03*
X48772500Y42275242D03*
X48772500Y42675242D03*
X48772500Y43075242D03*
X48772500Y43475242D03*
X48772500Y43875242D03*
X48772500Y44275242D03*
X48772500Y44675242D03*
X48772500Y45075242D03*
X48772500Y45475242D03*
X48772500Y45875242D03*
X48772500Y46275242D03*
X48772500Y46675242D03*
X48772500Y47075242D03*
D14*
X48122500Y47725242D03*
X47722500Y47725242D03*
X47322500Y47725242D03*
X46922500Y47725242D03*
X46522500Y47725242D03*
X46122500Y47725242D03*
X45722500Y47725242D03*
X45322500Y47725242D03*
X44922500Y47725242D03*
X44522500Y47725242D03*
X44122500Y47725242D03*
X43722500Y47725242D03*
X43322500Y47725242D03*
X42922500Y47725242D03*
X42522500Y47725242D03*
%TD*%
D15*
%TO.C,R50*%
X57250000Y58162500D03*
X57250000Y56337500D03*
%TD*%
D16*
%TO.C,D23*%
X59000000Y58125000D03*
X59000000Y56375000D03*
%TD*%
D15*
%TO.C,R3*%
X38750000Y64412500D03*
X38750000Y62587500D03*
%TD*%
%TO.C,R4*%
X51250000Y62587500D03*
X51250000Y64412500D03*
%TD*%
D17*
%TO.C,D2*%
X44981850Y56712774D03*
X44481850Y56712774D03*
X43981850Y56712774D03*
X43981850Y55312774D03*
X44481850Y55312774D03*
X44981850Y55312774D03*
%TD*%
D18*
%TO.C,R16*%
X43994350Y51327500D03*
X43994350Y52522500D03*
%TD*%
%TO.C,R15*%
X44969350Y51327500D03*
X44969350Y52522500D03*
%TD*%
D19*
%TO.C,C11*%
X47840000Y50098576D03*
X46810000Y50098576D03*
%TD*%
D20*
%TO.C,L3*%
X48100000Y51748576D03*
X46700000Y51748576D03*
%TD*%
D19*
%TO.C,C10*%
X47840000Y49148576D03*
X46810000Y49148576D03*
%TD*%
D17*
%TO.C,D13*%
X24740000Y16950242D03*
X24240000Y16950242D03*
X23740000Y16950242D03*
X23740000Y15550242D03*
X24240000Y15550242D03*
X24740000Y15550242D03*
%TD*%
D21*
%TO.C,C31*%
X22785997Y20840492D03*
X22785997Y22565492D03*
%TD*%
D15*
%TO.C,R45*%
X71500000Y37500000D03*
X71500000Y35675000D03*
%TD*%
D22*
%TO.C,R5*%
X26162500Y62750000D03*
X24337500Y62750000D03*
%TD*%
D23*
%TO.C,R18*%
X53272500Y49375242D03*
X53272500Y51200242D03*
%TD*%
D15*
%TO.C,R13*%
X50497500Y53787742D03*
X50497500Y51962742D03*
%TD*%
D24*
%TO.C,C46*%
X84362500Y29750000D03*
X82637500Y29750000D03*
%TD*%
D21*
%TO.C,C32*%
X32981994Y20840492D03*
X32981994Y22565492D03*
%TD*%
D25*
%TO.C,U8*%
X48877950Y27077992D03*
X48227964Y27077992D03*
X47577978Y27077992D03*
X46927992Y27077992D03*
X46278006Y27077992D03*
X45628020Y27077992D03*
X44978034Y27077992D03*
X44978034Y21172492D03*
X45628020Y21172492D03*
X46278006Y21172492D03*
X46927992Y21172492D03*
X47577978Y21172492D03*
X48227964Y21172492D03*
X48877950Y21172492D03*
%TD*%
D21*
%TO.C,C27*%
X20090000Y27590492D03*
X20090000Y29315492D03*
%TD*%
D17*
%TO.C,D4*%
X14580000Y16950242D03*
X14080000Y16950242D03*
X13580000Y16950242D03*
X13580000Y15550242D03*
X14080000Y15550242D03*
X14580000Y15550242D03*
%TD*%
D23*
%TO.C,R11*%
X74000000Y47837500D03*
X74000000Y49662500D03*
%TD*%
D26*
%TO.C,R2*%
X53250000Y56500000D03*
X55075000Y56500000D03*
%TD*%
D27*
%TO.C,R20*%
X32397500Y47200000D03*
X31202500Y47200000D03*
%TD*%
D25*
%TO.C,U10*%
X69269944Y27077992D03*
X68619958Y27077992D03*
X67969972Y27077992D03*
X67319986Y27077992D03*
X66670000Y27077992D03*
X66020014Y27077992D03*
X65370028Y27077992D03*
X65370028Y21172492D03*
X66020014Y21172492D03*
X66670000Y21172492D03*
X67319986Y21172492D03*
X67969972Y21172492D03*
X68619958Y21172492D03*
X69269944Y21172492D03*
%TD*%
D23*
%TO.C,R49*%
X77149998Y24914798D03*
X77149998Y26739798D03*
%TD*%
D27*
%TO.C,R24*%
X32397500Y43200000D03*
X31202500Y43200000D03*
%TD*%
%TO.C,R17*%
X32397500Y49200000D03*
X31202500Y49200000D03*
%TD*%
D17*
%TO.C,D5*%
X19660000Y16950242D03*
X19160000Y16950242D03*
X18660000Y16950242D03*
X18660000Y15550242D03*
X19160000Y15550242D03*
X19660000Y15550242D03*
%TD*%
D23*
%TO.C,R12*%
X72500000Y47837500D03*
X72500000Y49662500D03*
%TD*%
D27*
%TO.C,R26*%
X32397500Y41200000D03*
X31202500Y41200000D03*
%TD*%
D28*
%TO.C,J2*%
X74250000Y52250000D03*
X73250000Y52250000D03*
X72250000Y52250000D03*
D29*
X75550000Y56125000D03*
X70950000Y56125000D03*
%TD*%
D24*
%TO.C,C5*%
X29750000Y58750000D03*
X28025000Y58750000D03*
%TD*%
D30*
%TO.C,R38*%
X53175000Y42400000D03*
X54370000Y42400000D03*
%TD*%
D17*
%TO.C,D22*%
X70460000Y16950242D03*
X69960000Y16950242D03*
X69460000Y16950242D03*
X69460000Y15550242D03*
X69960000Y15550242D03*
X70460000Y15550242D03*
%TD*%
D31*
%TO.C,L2*%
X35149300Y58750000D03*
X33650700Y58750000D03*
%TD*%
D17*
%TO.C,D15*%
X34900000Y16950242D03*
X34400000Y16950242D03*
X33900000Y16950242D03*
X33900000Y15550242D03*
X34400000Y15550242D03*
X34900000Y15550242D03*
%TD*%
D26*
%TO.C,R9*%
X26837500Y55000000D03*
X28662500Y55000000D03*
%TD*%
D21*
%TO.C,C40*%
X60873989Y20840492D03*
X60873989Y22565492D03*
%TD*%
D25*
%TO.C,U7*%
X38681952Y27077992D03*
X38031966Y27077992D03*
X37381980Y27077992D03*
X36731994Y27077992D03*
X36082008Y27077992D03*
X35432022Y27077992D03*
X34782036Y27077992D03*
X34782036Y21172492D03*
X35432022Y21172492D03*
X36082008Y21172492D03*
X36731994Y21172492D03*
X37381980Y21172492D03*
X38031966Y21172492D03*
X38681952Y21172492D03*
%TD*%
D22*
%TO.C,R1*%
X55075000Y58000000D03*
X53250000Y58000000D03*
%TD*%
D18*
%TO.C,R29*%
X35920000Y35697500D03*
X35920000Y34502500D03*
%TD*%
D25*
%TO.C,U5*%
X18289958Y27077992D03*
X17639972Y27077992D03*
X16989986Y27077992D03*
X16340000Y27077992D03*
X15690014Y27077992D03*
X15040028Y27077992D03*
X14390042Y27077992D03*
X14390042Y21172492D03*
X15040028Y21172492D03*
X15690014Y21172492D03*
X16340000Y21172492D03*
X16989986Y21172492D03*
X17639972Y21172492D03*
X18289958Y21172492D03*
%TD*%
D32*
%TO.C,D3*%
X55022500Y49435242D03*
X55022500Y51185242D03*
%TD*%
D21*
%TO.C,C30*%
X20090000Y20840492D03*
X20090000Y22565492D03*
%TD*%
D27*
%TO.C,R28*%
X32397500Y39200000D03*
X31202500Y39200000D03*
%TD*%
D21*
%TO.C,C28*%
X30285997Y27590492D03*
X30285997Y29315492D03*
%TD*%
D33*
%TO.C,D8*%
X84417500Y12625242D03*
X83317500Y12625242D03*
%TD*%
D27*
%TO.C,R27*%
X32397500Y40200000D03*
X31202500Y40200000D03*
%TD*%
D21*
%TO.C,C35*%
X40481994Y20840492D03*
X40481994Y22565492D03*
%TD*%
D34*
%TO.C,C25*%
X49772500Y39875242D03*
X50907500Y39875242D03*
%TD*%
D30*
%TO.C,R39*%
X53175000Y43400000D03*
X54370000Y43400000D03*
%TD*%
D18*
%TO.C,R32*%
X38920000Y35697500D03*
X38920000Y34502500D03*
%TD*%
D21*
%TO.C,C34*%
X30285997Y20840492D03*
X30285997Y22565492D03*
%TD*%
D35*
%TO.C,U1*%
X19950000Y64100000D03*
X17650000Y64100000D03*
X15350000Y64100000D03*
D36*
X17650000Y57300000D03*
%TD*%
D37*
%TO.C,C16*%
X50200000Y44467500D03*
X50200000Y43332500D03*
%TD*%
D18*
%TO.C,R34*%
X49500000Y35697500D03*
X49500000Y34502500D03*
%TD*%
D38*
%TO.C,J7*%
X94254200Y30500000D03*
X94254200Y31750000D03*
X94254200Y33000000D03*
D39*
X97004200Y35550000D03*
X97004200Y27950000D03*
%TD*%
D18*
%TO.C,R31*%
X37920000Y35697500D03*
X37920000Y34502500D03*
%TD*%
D40*
%TO.C,C6*%
X17862500Y66300000D03*
X19937500Y66300000D03*
%TD*%
D41*
%TO.C,Y1*%
X42700000Y35099999D03*
X44900000Y35099999D03*
X44900000Y36700001D03*
X42700000Y36700001D03*
%TD*%
D30*
%TO.C,R37*%
X53175000Y41400000D03*
X54370000Y41400000D03*
%TD*%
D21*
%TO.C,C41*%
X71069986Y20840492D03*
X71069986Y22565492D03*
%TD*%
D27*
%TO.C,R23*%
X32397500Y44200000D03*
X31202500Y44200000D03*
%TD*%
D18*
%TO.C,R33*%
X48500000Y35697500D03*
X48500000Y34502500D03*
%TD*%
D33*
%TO.C,D7*%
X79677500Y12625242D03*
X80777500Y12625242D03*
%TD*%
D21*
%TO.C,C37*%
X60873989Y27590492D03*
X60873989Y29315492D03*
%TD*%
D42*
%TO.C,C8*%
X41817500Y57750000D03*
X40682500Y57750000D03*
%TD*%
D17*
%TO.C,D18*%
X50140000Y16950242D03*
X49640000Y16950242D03*
X49140000Y16950242D03*
X49140000Y15550242D03*
X49640000Y15550242D03*
X50140000Y15550242D03*
%TD*%
D30*
%TO.C,R40*%
X53175000Y44400000D03*
X54370000Y44400000D03*
%TD*%
D43*
%TO.C,C22*%
X40522500Y47240242D03*
X40522500Y48375242D03*
%TD*%
D17*
%TO.C,D17*%
X45060000Y16950242D03*
X44560000Y16950242D03*
X44060000Y16950242D03*
X44060000Y15550242D03*
X44560000Y15550242D03*
X45060000Y15550242D03*
%TD*%
D43*
%TO.C,C21*%
X50325000Y47132500D03*
X50325000Y48267500D03*
%TD*%
D44*
%TO.C,R14*%
X46400000Y37002500D03*
X46400000Y38197500D03*
%TD*%
D45*
%TO.C,SW1*%
X22675001Y56575000D03*
X22675001Y52425000D03*
X24824999Y56575000D03*
X24824999Y52425000D03*
%TD*%
D33*
%TO.C,D9*%
X87250000Y43300000D03*
X87250000Y42200000D03*
%TD*%
D46*
%TO.C,C1*%
X35500000Y60962500D03*
X35500000Y63037500D03*
%TD*%
D37*
%TO.C,C13*%
X46400000Y35867500D03*
X46400000Y34732500D03*
%TD*%
D30*
%TO.C,R36*%
X53175000Y40400000D03*
X54370000Y40400000D03*
%TD*%
D47*
%TO.C,U3*%
X33512500Y56380000D03*
X33512500Y55110000D03*
X33512500Y53840000D03*
X33512500Y52570000D03*
X40687500Y52570000D03*
X40687500Y53840000D03*
X40687500Y55110000D03*
X40687500Y56380000D03*
%TD*%
D18*
%TO.C,R30*%
X36920000Y35697500D03*
X36920000Y34502500D03*
%TD*%
D15*
%TO.C,R43*%
X13000000Y43162742D03*
X13000000Y41337742D03*
%TD*%
D27*
%TO.C,R19*%
X32397500Y48200000D03*
X31202500Y48200000D03*
%TD*%
D23*
%TO.C,R48*%
X79300002Y24910202D03*
X79300002Y26735202D03*
%TD*%
D18*
%TO.C,R35*%
X50500000Y35697500D03*
X50500000Y34502500D03*
%TD*%
D17*
%TO.C,D20*%
X60300000Y16950242D03*
X59800000Y16950242D03*
X59300000Y16950242D03*
X59300000Y15550242D03*
X59800000Y15550242D03*
X60300000Y15550242D03*
%TD*%
D30*
%TO.C,R42*%
X53175000Y46400000D03*
X54370000Y46400000D03*
%TD*%
D21*
%TO.C,C43*%
X53373989Y20840492D03*
X53373989Y22565492D03*
%TD*%
D48*
%TO.C,C4*%
X12900000Y64087500D03*
X12900000Y62012500D03*
%TD*%
D33*
%TO.C,D1*%
X42250000Y60200000D03*
X42250000Y61300000D03*
%TD*%
D49*
%TO.C,J8*%
X88249999Y22597701D03*
X87250001Y22597701D03*
X86250001Y22597701D03*
X85250000Y22597701D03*
X84250000Y22597701D03*
X83250002Y22597701D03*
X82250001Y22597701D03*
X81250000Y22597701D03*
X80250000Y22597701D03*
X79249999Y22597701D03*
X78250001Y22597701D03*
X77250001Y22597701D03*
D50*
X75949998Y20072702D03*
X89550002Y20072702D03*
%TD*%
D21*
%TO.C,C29*%
X40481994Y27590492D03*
X40481994Y29315492D03*
%TD*%
%TO.C,C44*%
X63569986Y20840492D03*
X63569986Y22565492D03*
%TD*%
D51*
%TO.C,D6*%
X16500000Y46000242D03*
X16500000Y49500242D03*
%TD*%
D22*
%TO.C,R8*%
X28662500Y53500000D03*
X26837500Y53500000D03*
%TD*%
D27*
%TO.C,R22*%
X32397500Y45200000D03*
X31202500Y45200000D03*
%TD*%
D23*
%TO.C,R44*%
X16500000Y41337742D03*
X16500000Y43162742D03*
%TD*%
D33*
%TO.C,D11*%
X13000000Y48300242D03*
X13000000Y47200242D03*
%TD*%
D21*
%TO.C,C33*%
X12590000Y20840492D03*
X12590000Y22565492D03*
%TD*%
D17*
%TO.C,D14*%
X29820000Y16950242D03*
X29320000Y16950242D03*
X28820000Y16950242D03*
X28820000Y15550242D03*
X29320000Y15550242D03*
X29820000Y15550242D03*
%TD*%
D42*
%TO.C,C9*%
X41817500Y58750000D03*
X40682500Y58750000D03*
%TD*%
D37*
%TO.C,C15*%
X50325000Y50567500D03*
X50325000Y49432500D03*
%TD*%
D27*
%TO.C,R25*%
X32397500Y42200000D03*
X31202500Y42200000D03*
%TD*%
D17*
%TO.C,D21*%
X65380000Y16950242D03*
X64880000Y16950242D03*
X64380000Y16950242D03*
X64380000Y15550242D03*
X64880000Y15550242D03*
X65380000Y15550242D03*
%TD*%
D27*
%TO.C,R21*%
X32397500Y46200000D03*
X31202500Y46200000D03*
%TD*%
D33*
%TO.C,D10*%
X92037500Y12625242D03*
X90937500Y12625242D03*
%TD*%
D15*
%TO.C,R46*%
X71500000Y40750000D03*
X71500000Y38925000D03*
%TD*%
D22*
%TO.C,R7*%
X26162500Y64250000D03*
X24337500Y64250000D03*
%TD*%
D21*
%TO.C,C39*%
X43177992Y20840492D03*
X43177992Y22565492D03*
%TD*%
D25*
%TO.C,U9*%
X59073947Y27077992D03*
X58423961Y27077992D03*
X57773975Y27077992D03*
X57123989Y27077992D03*
X56474003Y27077992D03*
X55824017Y27077992D03*
X55174031Y27077992D03*
X55174031Y21172492D03*
X55824017Y21172492D03*
X56474003Y21172492D03*
X57123989Y21172492D03*
X57773975Y21172492D03*
X58423961Y21172492D03*
X59073947Y21172492D03*
%TD*%
D17*
%TO.C,D19*%
X55220000Y16950242D03*
X54720000Y16950242D03*
X54220000Y16950242D03*
X54220000Y15550242D03*
X54720000Y15550242D03*
X55220000Y15550242D03*
%TD*%
D23*
%TO.C,R47*%
X91750000Y33087500D03*
X91750000Y34912500D03*
%TD*%
D30*
%TO.C,R41*%
X53175000Y45400000D03*
X54370000Y45400000D03*
%TD*%
D24*
%TO.C,C45*%
X84362500Y31250000D03*
X82637500Y31250000D03*
%TD*%
D22*
%TO.C,R10*%
X65250000Y50750000D03*
X63425000Y50750000D03*
%TD*%
D21*
%TO.C,C36*%
X50677992Y27590492D03*
X50677992Y29315492D03*
%TD*%
D45*
%TO.C,SW2*%
X65399998Y52425000D03*
X65399998Y56575000D03*
X63250000Y52425000D03*
X63250000Y56575000D03*
%TD*%
D46*
%TO.C,C3*%
X31500000Y60962500D03*
X31500000Y63037500D03*
%TD*%
D17*
%TO.C,D16*%
X39980000Y16950242D03*
X39480000Y16950242D03*
X38980000Y16950242D03*
X38980000Y15550242D03*
X39480000Y15550242D03*
X39980000Y15550242D03*
%TD*%
D52*
%TO.C,C7*%
X30000000Y65250000D03*
X27925000Y65250000D03*
%TD*%
D21*
%TO.C,C38*%
X71069986Y27590492D03*
X71069986Y29315492D03*
%TD*%
D26*
%TO.C,R6*%
X24337500Y61250000D03*
X26162500Y61250000D03*
%TD*%
D25*
%TO.C,U6*%
X28485955Y27077992D03*
X27835969Y27077992D03*
X27185983Y27077992D03*
X26535997Y27077992D03*
X25886011Y27077992D03*
X25236025Y27077992D03*
X24586039Y27077992D03*
X24586039Y21172492D03*
X25236025Y21172492D03*
X25886011Y21172492D03*
X26535997Y21172492D03*
X27185983Y21172492D03*
X27835969Y21172492D03*
X28485955Y21172492D03*
%TD*%
D33*
%TO.C,D12*%
X87297500Y12625242D03*
X88397500Y12625242D03*
%TD*%
D46*
%TO.C,C2*%
X33500000Y60962500D03*
X33500000Y63037500D03*
%TD*%
D21*
%TO.C,C42*%
X50677992Y20840492D03*
X50677992Y22565492D03*
%TD*%
D43*
%TO.C,C12*%
X40900000Y35332500D03*
X40900000Y36467500D03*
%TD*%
D53*
%TO.C,L1*%
X44075000Y58875000D03*
X44075000Y60625000D03*
X44925000Y60625000D03*
X44925000Y58875000D03*
%TD*%
D54*
%TO.C,J1*%
X40680000Y67825000D03*
D55*
X40680000Y63645000D03*
D54*
X49320000Y67825000D03*
D55*
X49320000Y63645000D03*
D56*
X48200000Y63070000D03*
X47400000Y63070000D03*
D57*
X46750000Y63070000D03*
X45750000Y63070000D03*
X44250000Y63070000D03*
X43250000Y63070000D03*
D56*
X42600000Y63070000D03*
X41800000Y63070000D03*
X41800000Y63070000D03*
X42600000Y63070000D03*
D57*
X43750000Y63070000D03*
X44750000Y63070000D03*
X45250000Y63070000D03*
X46250000Y63070000D03*
D56*
X47400000Y63070000D03*
X48200000Y63070000D03*
%TD*%
M02*
