%TF.GenerationSoftware,KiCad,Pcbnew,10.0.4*%
%TF.CreationDate,2026-08-17T00:52:35+01:00*%
%TF.ProjectId,LogicAnalyzer_RP2350,4c6f6769-6341-46e6-916c-797a65725f52,rev?*%
%TF.SameCoordinates,Original*%
%TF.FileFunction,Legend,Bot*%
%TF.FilePolarity,Positive*%
%FSLAX46Y46*%
G04 Gerber Fmt 4.6, Leading zero omitted, Abs format (unit mm)*
G04 Created by KiCad (PCBNEW 10.0.4) date 2026-08-17 00:52:35*
%MOMM*%
%LPD*%
G01*
G04 APERTURE LIST*
%ADD10C,0.150000*%
%ADD11C,0.508000*%
%ADD12C,0.120000*%
G04 APERTURE END LIST*
D10*
X4964285Y23831138D02*
X4488095Y23831138D01*
X5059523Y23545423D02*
X4726190Y24545423D01*
X4726190Y24545423D02*
X4392857Y23545423D01*
X3535714Y23545423D02*
X4107142Y23545423D01*
X3821428Y23545423D02*
X3821428Y24545423D01*
X3821428Y24545423D02*
X3916666Y24402566D01*
X3916666Y24402566D02*
X4011904Y24307328D01*
X4011904Y24307328D02*
X4107142Y24259709D01*
X4964285Y70580896D02*
X4488095Y70580896D01*
X5059523Y70295181D02*
X4726190Y71295181D01*
X4726190Y71295181D02*
X4392857Y70295181D01*
X4154761Y71295181D02*
X3535714Y71295181D01*
X3535714Y71295181D02*
X3869047Y70914229D01*
X3869047Y70914229D02*
X3726190Y70914229D01*
X3726190Y70914229D02*
X3630952Y70866610D01*
X3630952Y70866610D02*
X3583333Y70818991D01*
X3583333Y70818991D02*
X3535714Y70723753D01*
X3535714Y70723753D02*
X3535714Y70485658D01*
X3535714Y70485658D02*
X3583333Y70390420D01*
X3583333Y70390420D02*
X3630952Y70342800D01*
X3630952Y70342800D02*
X3726190Y70295181D01*
X3726190Y70295181D02*
X4011904Y70295181D01*
X4011904Y70295181D02*
X4107142Y70342800D01*
X4107142Y70342800D02*
X4154761Y70390420D01*
X96464285Y70580896D02*
X95988095Y70580896D01*
X96559523Y70295181D02*
X96226190Y71295181D01*
X96226190Y71295181D02*
X95892857Y70295181D01*
X95130952Y70961848D02*
X95130952Y70295181D01*
X95369047Y71342800D02*
X95607142Y70628515D01*
X95607142Y70628515D02*
X94988095Y70628515D01*
X96464285Y23831138D02*
X95988095Y23831138D01*
X96559523Y23545423D02*
X96226190Y24545423D01*
X96226190Y24545423D02*
X95892857Y23545423D01*
X95607142Y24450185D02*
X95559523Y24497804D01*
X95559523Y24497804D02*
X95464285Y24545423D01*
X95464285Y24545423D02*
X95226190Y24545423D01*
X95226190Y24545423D02*
X95130952Y24497804D01*
X95130952Y24497804D02*
X95083333Y24450185D01*
X95083333Y24450185D02*
X95035714Y24354947D01*
X95035714Y24354947D02*
X95035714Y24259709D01*
X95035714Y24259709D02*
X95083333Y24116852D01*
X95083333Y24116852D02*
X95654761Y23545423D01*
X95654761Y23545423D02*
X95035714Y23545423D01*
%TO.C,J4*%
D11*
X9584100Y51880342D02*
G75*
G02*
X8822100Y51880342I-381000J0D01*
G01*
X8822100Y51880342D02*
G75*
G02*
X9584100Y51880342I381000J0D01*
G01*
%TO.C,J5*%
X91131000Y37638242D02*
G75*
G02*
X90369000Y37638242I-381000J0D01*
G01*
X90369000Y37638242D02*
G75*
G02*
X91131000Y37638242I381000J0D01*
G01*
%TO.C,J7*%
X94635200Y25829100D02*
G75*
G02*
X93873200Y25829100I-381000J0D01*
G01*
X93873200Y25829100D02*
G75*
G02*
X94635200Y25829100I381000J0D01*
G01*
%TO.C,J8*%
X91543902Y22597701D02*
G75*
G02*
X90781902Y22597701I-381000J0D01*
G01*
X90781902Y22597701D02*
G75*
G02*
X91543902Y22597701I381000J0D01*
G01*
%TO.C,C26*%
D12*
X43912500Y47241077D02*
X43912500Y47009407D01*
X44632500Y47241077D02*
X44632500Y47009407D01*
%TO.C,C20*%
X48388335Y46985242D02*
X48156665Y46985242D01*
X48388335Y46265242D02*
X48156665Y46265242D01*
%TO.C,C19*%
X48388335Y44735242D02*
X48156665Y44735242D01*
X48388335Y44015242D02*
X48156665Y44015242D01*
%TO.C,C24*%
X43662500Y41259407D02*
X43662500Y41491077D01*
X44382500Y41259407D02*
X44382500Y41491077D01*
%TO.C,C23*%
X42406665Y43485242D02*
X42638335Y43485242D01*
X42406665Y42765242D02*
X42638335Y42765242D01*
%TO.C,C14*%
X42474165Y45485242D02*
X42705835Y45485242D01*
X42474165Y44765242D02*
X42705835Y44765242D01*
%TO.C,C18*%
X44912500Y47241077D02*
X44912500Y47009407D01*
X45632500Y47241077D02*
X45632500Y47009407D01*
%TO.C,C17*%
X44912500Y41259407D02*
X44912500Y41491077D01*
X45632500Y41259407D02*
X45632500Y41491077D01*
%TD*%
%LPC*%
G36*
X81511534Y10458978D02*
G01*
X81544625Y10436867D01*
X81566736Y10403776D01*
X81574500Y10364742D01*
X81574500Y8974742D01*
X81566736Y8935708D01*
X81544625Y8902617D01*
X81511534Y8880506D01*
X81472500Y8872742D01*
X80082500Y8872742D01*
X80043466Y8880506D01*
X80010375Y8902617D01*
X79988264Y8935708D01*
X79980500Y8974742D01*
X79980500Y10364742D01*
X79988264Y10403776D01*
X80010375Y10436867D01*
X80043466Y10458978D01*
X80082500Y10466742D01*
X81472500Y10466742D01*
X81511534Y10458978D01*
G37*
G36*
X83548857Y10432423D02*
G01*
X83693203Y10372633D01*
X83823111Y10285831D01*
X83933589Y10175353D01*
X84020391Y10045445D01*
X84080181Y9901099D01*
X84110662Y9747862D01*
X84110662Y9591622D01*
X84080181Y9438385D01*
X84020391Y9294039D01*
X83933589Y9164131D01*
X83823111Y9053653D01*
X83693203Y8966851D01*
X83548857Y8907061D01*
X83395620Y8876580D01*
X83239380Y8876580D01*
X83086143Y8907061D01*
X82941797Y8966851D01*
X82811889Y9053653D01*
X82701411Y9164131D01*
X82614609Y9294039D01*
X82554819Y9438385D01*
X82524338Y9591622D01*
X82524338Y9747862D01*
X82554819Y9901099D01*
X82614609Y10045445D01*
X82701411Y10175353D01*
X82811889Y10285831D01*
X82941797Y10372633D01*
X83086143Y10432423D01*
X83239380Y10462904D01*
X83395620Y10462904D01*
X83548857Y10432423D01*
G37*
G36*
X86088857Y10432423D02*
G01*
X86233203Y10372633D01*
X86363111Y10285831D01*
X86473589Y10175353D01*
X86560391Y10045445D01*
X86620181Y9901099D01*
X86650662Y9747862D01*
X86650662Y9591622D01*
X86620181Y9438385D01*
X86560391Y9294039D01*
X86473589Y9164131D01*
X86363111Y9053653D01*
X86233203Y8966851D01*
X86088857Y8907061D01*
X85935620Y8876580D01*
X85779380Y8876580D01*
X85626143Y8907061D01*
X85481797Y8966851D01*
X85351889Y9053653D01*
X85241411Y9164131D01*
X85154609Y9294039D01*
X85094819Y9438385D01*
X85064338Y9591622D01*
X85064338Y9747862D01*
X85094819Y9901099D01*
X85154609Y10045445D01*
X85241411Y10175353D01*
X85351889Y10285831D01*
X85481797Y10372633D01*
X85626143Y10432423D01*
X85779380Y10462904D01*
X85935620Y10462904D01*
X86088857Y10432423D01*
G37*
G36*
X88628857Y10432423D02*
G01*
X88773203Y10372633D01*
X88903111Y10285831D01*
X89013589Y10175353D01*
X89100391Y10045445D01*
X89160181Y9901099D01*
X89190662Y9747862D01*
X89190662Y9591622D01*
X89160181Y9438385D01*
X89100391Y9294039D01*
X89013589Y9164131D01*
X88903111Y9053653D01*
X88773203Y8966851D01*
X88628857Y8907061D01*
X88475620Y8876580D01*
X88319380Y8876580D01*
X88166143Y8907061D01*
X88021797Y8966851D01*
X87891889Y9053653D01*
X87781411Y9164131D01*
X87694609Y9294039D01*
X87634819Y9438385D01*
X87604338Y9591622D01*
X87604338Y9747862D01*
X87634819Y9901099D01*
X87694609Y10045445D01*
X87781411Y10175353D01*
X87891889Y10285831D01*
X88021797Y10372633D01*
X88166143Y10432423D01*
X88319380Y10462904D01*
X88475620Y10462904D01*
X88628857Y10432423D01*
G37*
G36*
X91168857Y10432423D02*
G01*
X91313203Y10372633D01*
X91443111Y10285831D01*
X91553589Y10175353D01*
X91640391Y10045445D01*
X91700181Y9901099D01*
X91730662Y9747862D01*
X91730662Y9591622D01*
X91700181Y9438385D01*
X91640391Y9294039D01*
X91553589Y9164131D01*
X91443111Y9053653D01*
X91313203Y8966851D01*
X91168857Y8907061D01*
X91015620Y8876580D01*
X90859380Y8876580D01*
X90706143Y8907061D01*
X90561797Y8966851D01*
X90431889Y9053653D01*
X90321411Y9164131D01*
X90234609Y9294039D01*
X90174819Y9438385D01*
X90144338Y9591622D01*
X90144338Y9747862D01*
X90174819Y9901099D01*
X90234609Y10045445D01*
X90321411Y10175353D01*
X90431889Y10285831D01*
X90561797Y10372633D01*
X90706143Y10432423D01*
X90859380Y10462904D01*
X91015620Y10462904D01*
X91168857Y10432423D01*
G37*
G36*
X93708857Y10432423D02*
G01*
X93853203Y10372633D01*
X93983111Y10285831D01*
X94093589Y10175353D01*
X94180391Y10045445D01*
X94240181Y9901099D01*
X94270662Y9747862D01*
X94270662Y9591622D01*
X94240181Y9438385D01*
X94180391Y9294039D01*
X94093589Y9164131D01*
X93983111Y9053653D01*
X93853203Y8966851D01*
X93708857Y8907061D01*
X93555620Y8876580D01*
X93399380Y8876580D01*
X93246143Y8907061D01*
X93101797Y8966851D01*
X92971889Y9053653D01*
X92861411Y9164131D01*
X92774609Y9294039D01*
X92714819Y9438385D01*
X92684338Y9591622D01*
X92684338Y9747862D01*
X92714819Y9901099D01*
X92774609Y10045445D01*
X92861411Y10175353D01*
X92971889Y10285831D01*
X93101797Y10372633D01*
X93246143Y10432423D01*
X93399380Y10462904D01*
X93555620Y10462904D01*
X93708857Y10432423D01*
G37*
G36*
X10497873Y11001440D02*
G01*
X10640046Y10942550D01*
X10767999Y10857055D01*
X10876813Y10748241D01*
X10962308Y10620288D01*
X11021198Y10478115D01*
X11051220Y10327185D01*
X11051220Y10173299D01*
X11021198Y10022369D01*
X10962308Y9880196D01*
X10876813Y9752243D01*
X10767999Y9643429D01*
X10640046Y9557934D01*
X10497873Y9499044D01*
X10346943Y9469022D01*
X10193057Y9469022D01*
X10042127Y9499044D01*
X9899954Y9557934D01*
X9772001Y9643429D01*
X9663187Y9752243D01*
X9577692Y9880196D01*
X9518802Y10022369D01*
X9488780Y10173299D01*
X9488780Y10327185D01*
X9518802Y10478115D01*
X9577692Y10620288D01*
X9663187Y10748241D01*
X9772001Y10857055D01*
X9899954Y10942550D01*
X10042127Y11001440D01*
X10193057Y11031462D01*
X10346943Y11031462D01*
X10497873Y11001440D01*
G37*
G36*
X13037873Y11001440D02*
G01*
X13180046Y10942550D01*
X13307999Y10857055D01*
X13416813Y10748241D01*
X13502308Y10620288D01*
X13561198Y10478115D01*
X13591220Y10327185D01*
X13591220Y10173299D01*
X13561198Y10022369D01*
X13502308Y9880196D01*
X13416813Y9752243D01*
X13307999Y9643429D01*
X13180046Y9557934D01*
X13037873Y9499044D01*
X12886943Y9469022D01*
X12733057Y9469022D01*
X12582127Y9499044D01*
X12439954Y9557934D01*
X12312001Y9643429D01*
X12203187Y9752243D01*
X12117692Y9880196D01*
X12058802Y10022369D01*
X12028780Y10173299D01*
X12028780Y10327185D01*
X12058802Y10478115D01*
X12117692Y10620288D01*
X12203187Y10748241D01*
X12312001Y10857055D01*
X12439954Y10942550D01*
X12582127Y11001440D01*
X12733057Y11031462D01*
X12886943Y11031462D01*
X13037873Y11001440D01*
G37*
G36*
X15577873Y11001440D02*
G01*
X15720046Y10942550D01*
X15847999Y10857055D01*
X15956813Y10748241D01*
X16042308Y10620288D01*
X16101198Y10478115D01*
X16131220Y10327185D01*
X16131220Y10173299D01*
X16101198Y10022369D01*
X16042308Y9880196D01*
X15956813Y9752243D01*
X15847999Y9643429D01*
X15720046Y9557934D01*
X15577873Y9499044D01*
X15426943Y9469022D01*
X15273057Y9469022D01*
X15122127Y9499044D01*
X14979954Y9557934D01*
X14852001Y9643429D01*
X14743187Y9752243D01*
X14657692Y9880196D01*
X14598802Y10022369D01*
X14568780Y10173299D01*
X14568780Y10327185D01*
X14598802Y10478115D01*
X14657692Y10620288D01*
X14743187Y10748241D01*
X14852001Y10857055D01*
X14979954Y10942550D01*
X15122127Y11001440D01*
X15273057Y11031462D01*
X15426943Y11031462D01*
X15577873Y11001440D01*
G37*
G36*
X18117873Y11001440D02*
G01*
X18260046Y10942550D01*
X18387999Y10857055D01*
X18496813Y10748241D01*
X18582308Y10620288D01*
X18641198Y10478115D01*
X18671220Y10327185D01*
X18671220Y10173299D01*
X18641198Y10022369D01*
X18582308Y9880196D01*
X18496813Y9752243D01*
X18387999Y9643429D01*
X18260046Y9557934D01*
X18117873Y9499044D01*
X17966943Y9469022D01*
X17813057Y9469022D01*
X17662127Y9499044D01*
X17519954Y9557934D01*
X17392001Y9643429D01*
X17283187Y9752243D01*
X17197692Y9880196D01*
X17138802Y10022369D01*
X17108780Y10173299D01*
X17108780Y10327185D01*
X17138802Y10478115D01*
X17197692Y10620288D01*
X17283187Y10748241D01*
X17392001Y10857055D01*
X17519954Y10942550D01*
X17662127Y11001440D01*
X17813057Y11031462D01*
X17966943Y11031462D01*
X18117873Y11001440D01*
G37*
G36*
X20657873Y11001440D02*
G01*
X20800046Y10942550D01*
X20927999Y10857055D01*
X21036813Y10748241D01*
X21122308Y10620288D01*
X21181198Y10478115D01*
X21211220Y10327185D01*
X21211220Y10173299D01*
X21181198Y10022369D01*
X21122308Y9880196D01*
X21036813Y9752243D01*
X20927999Y9643429D01*
X20800046Y9557934D01*
X20657873Y9499044D01*
X20506943Y9469022D01*
X20353057Y9469022D01*
X20202127Y9499044D01*
X20059954Y9557934D01*
X19932001Y9643429D01*
X19823187Y9752243D01*
X19737692Y9880196D01*
X19678802Y10022369D01*
X19648780Y10173299D01*
X19648780Y10327185D01*
X19678802Y10478115D01*
X19737692Y10620288D01*
X19823187Y10748241D01*
X19932001Y10857055D01*
X20059954Y10942550D01*
X20202127Y11001440D01*
X20353057Y11031462D01*
X20506943Y11031462D01*
X20657873Y11001440D01*
G37*
G36*
X23197873Y11001440D02*
G01*
X23340046Y10942550D01*
X23467999Y10857055D01*
X23576813Y10748241D01*
X23662308Y10620288D01*
X23721198Y10478115D01*
X23751220Y10327185D01*
X23751220Y10173299D01*
X23721198Y10022369D01*
X23662308Y9880196D01*
X23576813Y9752243D01*
X23467999Y9643429D01*
X23340046Y9557934D01*
X23197873Y9499044D01*
X23046943Y9469022D01*
X22893057Y9469022D01*
X22742127Y9499044D01*
X22599954Y9557934D01*
X22472001Y9643429D01*
X22363187Y9752243D01*
X22277692Y9880196D01*
X22218802Y10022369D01*
X22188780Y10173299D01*
X22188780Y10327185D01*
X22218802Y10478115D01*
X22277692Y10620288D01*
X22363187Y10748241D01*
X22472001Y10857055D01*
X22599954Y10942550D01*
X22742127Y11001440D01*
X22893057Y11031462D01*
X23046943Y11031462D01*
X23197873Y11001440D01*
G37*
G36*
X25737873Y11001440D02*
G01*
X25880046Y10942550D01*
X26007999Y10857055D01*
X26116813Y10748241D01*
X26202308Y10620288D01*
X26261198Y10478115D01*
X26291220Y10327185D01*
X26291220Y10173299D01*
X26261198Y10022369D01*
X26202308Y9880196D01*
X26116813Y9752243D01*
X26007999Y9643429D01*
X25880046Y9557934D01*
X25737873Y9499044D01*
X25586943Y9469022D01*
X25433057Y9469022D01*
X25282127Y9499044D01*
X25139954Y9557934D01*
X25012001Y9643429D01*
X24903187Y9752243D01*
X24817692Y9880196D01*
X24758802Y10022369D01*
X24728780Y10173299D01*
X24728780Y10327185D01*
X24758802Y10478115D01*
X24817692Y10620288D01*
X24903187Y10748241D01*
X25012001Y10857055D01*
X25139954Y10942550D01*
X25282127Y11001440D01*
X25433057Y11031462D01*
X25586943Y11031462D01*
X25737873Y11001440D01*
G37*
G36*
X28277873Y11001440D02*
G01*
X28420046Y10942550D01*
X28547999Y10857055D01*
X28656813Y10748241D01*
X28742308Y10620288D01*
X28801198Y10478115D01*
X28831220Y10327185D01*
X28831220Y10173299D01*
X28801198Y10022369D01*
X28742308Y9880196D01*
X28656813Y9752243D01*
X28547999Y9643429D01*
X28420046Y9557934D01*
X28277873Y9499044D01*
X28126943Y9469022D01*
X27973057Y9469022D01*
X27822127Y9499044D01*
X27679954Y9557934D01*
X27552001Y9643429D01*
X27443187Y9752243D01*
X27357692Y9880196D01*
X27298802Y10022369D01*
X27268780Y10173299D01*
X27268780Y10327185D01*
X27298802Y10478115D01*
X27357692Y10620288D01*
X27443187Y10748241D01*
X27552001Y10857055D01*
X27679954Y10942550D01*
X27822127Y11001440D01*
X27973057Y11031462D01*
X28126943Y11031462D01*
X28277873Y11001440D01*
G37*
G36*
X30817873Y11001440D02*
G01*
X30960046Y10942550D01*
X31087999Y10857055D01*
X31196813Y10748241D01*
X31282308Y10620288D01*
X31341198Y10478115D01*
X31371220Y10327185D01*
X31371220Y10173299D01*
X31341198Y10022369D01*
X31282308Y9880196D01*
X31196813Y9752243D01*
X31087999Y9643429D01*
X30960046Y9557934D01*
X30817873Y9499044D01*
X30666943Y9469022D01*
X30513057Y9469022D01*
X30362127Y9499044D01*
X30219954Y9557934D01*
X30092001Y9643429D01*
X29983187Y9752243D01*
X29897692Y9880196D01*
X29838802Y10022369D01*
X29808780Y10173299D01*
X29808780Y10327185D01*
X29838802Y10478115D01*
X29897692Y10620288D01*
X29983187Y10748241D01*
X30092001Y10857055D01*
X30219954Y10942550D01*
X30362127Y11001440D01*
X30513057Y11031462D01*
X30666943Y11031462D01*
X30817873Y11001440D01*
G37*
G36*
X33357873Y11001440D02*
G01*
X33500046Y10942550D01*
X33627999Y10857055D01*
X33736813Y10748241D01*
X33822308Y10620288D01*
X33881198Y10478115D01*
X33911220Y10327185D01*
X33911220Y10173299D01*
X33881198Y10022369D01*
X33822308Y9880196D01*
X33736813Y9752243D01*
X33627999Y9643429D01*
X33500046Y9557934D01*
X33357873Y9499044D01*
X33206943Y9469022D01*
X33053057Y9469022D01*
X32902127Y9499044D01*
X32759954Y9557934D01*
X32632001Y9643429D01*
X32523187Y9752243D01*
X32437692Y9880196D01*
X32378802Y10022369D01*
X32348780Y10173299D01*
X32348780Y10327185D01*
X32378802Y10478115D01*
X32437692Y10620288D01*
X32523187Y10748241D01*
X32632001Y10857055D01*
X32759954Y10942550D01*
X32902127Y11001440D01*
X33053057Y11031462D01*
X33206943Y11031462D01*
X33357873Y11001440D01*
G37*
G36*
X35897873Y11001440D02*
G01*
X36040046Y10942550D01*
X36167999Y10857055D01*
X36276813Y10748241D01*
X36362308Y10620288D01*
X36421198Y10478115D01*
X36451220Y10327185D01*
X36451220Y10173299D01*
X36421198Y10022369D01*
X36362308Y9880196D01*
X36276813Y9752243D01*
X36167999Y9643429D01*
X36040046Y9557934D01*
X35897873Y9499044D01*
X35746943Y9469022D01*
X35593057Y9469022D01*
X35442127Y9499044D01*
X35299954Y9557934D01*
X35172001Y9643429D01*
X35063187Y9752243D01*
X34977692Y9880196D01*
X34918802Y10022369D01*
X34888780Y10173299D01*
X34888780Y10327185D01*
X34918802Y10478115D01*
X34977692Y10620288D01*
X35063187Y10748241D01*
X35172001Y10857055D01*
X35299954Y10942550D01*
X35442127Y11001440D01*
X35593057Y11031462D01*
X35746943Y11031462D01*
X35897873Y11001440D01*
G37*
G36*
X38437873Y11001440D02*
G01*
X38580046Y10942550D01*
X38707999Y10857055D01*
X38816813Y10748241D01*
X38902308Y10620288D01*
X38961198Y10478115D01*
X38991220Y10327185D01*
X38991220Y10173299D01*
X38961198Y10022369D01*
X38902308Y9880196D01*
X38816813Y9752243D01*
X38707999Y9643429D01*
X38580046Y9557934D01*
X38437873Y9499044D01*
X38286943Y9469022D01*
X38133057Y9469022D01*
X37982127Y9499044D01*
X37839954Y9557934D01*
X37712001Y9643429D01*
X37603187Y9752243D01*
X37517692Y9880196D01*
X37458802Y10022369D01*
X37428780Y10173299D01*
X37428780Y10327185D01*
X37458802Y10478115D01*
X37517692Y10620288D01*
X37603187Y10748241D01*
X37712001Y10857055D01*
X37839954Y10942550D01*
X37982127Y11001440D01*
X38133057Y11031462D01*
X38286943Y11031462D01*
X38437873Y11001440D01*
G37*
G36*
X40977873Y11001440D02*
G01*
X41120046Y10942550D01*
X41247999Y10857055D01*
X41356813Y10748241D01*
X41442308Y10620288D01*
X41501198Y10478115D01*
X41531220Y10327185D01*
X41531220Y10173299D01*
X41501198Y10022369D01*
X41442308Y9880196D01*
X41356813Y9752243D01*
X41247999Y9643429D01*
X41120046Y9557934D01*
X40977873Y9499044D01*
X40826943Y9469022D01*
X40673057Y9469022D01*
X40522127Y9499044D01*
X40379954Y9557934D01*
X40252001Y9643429D01*
X40143187Y9752243D01*
X40057692Y9880196D01*
X39998802Y10022369D01*
X39968780Y10173299D01*
X39968780Y10327185D01*
X39998802Y10478115D01*
X40057692Y10620288D01*
X40143187Y10748241D01*
X40252001Y10857055D01*
X40379954Y10942550D01*
X40522127Y11001440D01*
X40673057Y11031462D01*
X40826943Y11031462D01*
X40977873Y11001440D01*
G37*
G36*
X43517873Y11001440D02*
G01*
X43660046Y10942550D01*
X43787999Y10857055D01*
X43896813Y10748241D01*
X43982308Y10620288D01*
X44041198Y10478115D01*
X44071220Y10327185D01*
X44071220Y10173299D01*
X44041198Y10022369D01*
X43982308Y9880196D01*
X43896813Y9752243D01*
X43787999Y9643429D01*
X43660046Y9557934D01*
X43517873Y9499044D01*
X43366943Y9469022D01*
X43213057Y9469022D01*
X43062127Y9499044D01*
X42919954Y9557934D01*
X42792001Y9643429D01*
X42683187Y9752243D01*
X42597692Y9880196D01*
X42538802Y10022369D01*
X42508780Y10173299D01*
X42508780Y10327185D01*
X42538802Y10478115D01*
X42597692Y10620288D01*
X42683187Y10748241D01*
X42792001Y10857055D01*
X42919954Y10942550D01*
X43062127Y11001440D01*
X43213057Y11031462D01*
X43366943Y11031462D01*
X43517873Y11001440D01*
G37*
G36*
X46057873Y11001440D02*
G01*
X46200046Y10942550D01*
X46327999Y10857055D01*
X46436813Y10748241D01*
X46522308Y10620288D01*
X46581198Y10478115D01*
X46611220Y10327185D01*
X46611220Y10173299D01*
X46581198Y10022369D01*
X46522308Y9880196D01*
X46436813Y9752243D01*
X46327999Y9643429D01*
X46200046Y9557934D01*
X46057873Y9499044D01*
X45906943Y9469022D01*
X45753057Y9469022D01*
X45602127Y9499044D01*
X45459954Y9557934D01*
X45332001Y9643429D01*
X45223187Y9752243D01*
X45137692Y9880196D01*
X45078802Y10022369D01*
X45048780Y10173299D01*
X45048780Y10327185D01*
X45078802Y10478115D01*
X45137692Y10620288D01*
X45223187Y10748241D01*
X45332001Y10857055D01*
X45459954Y10942550D01*
X45602127Y11001440D01*
X45753057Y11031462D01*
X45906943Y11031462D01*
X46057873Y11001440D01*
G37*
G36*
X48597873Y11001440D02*
G01*
X48740046Y10942550D01*
X48867999Y10857055D01*
X48976813Y10748241D01*
X49062308Y10620288D01*
X49121198Y10478115D01*
X49151220Y10327185D01*
X49151220Y10173299D01*
X49121198Y10022369D01*
X49062308Y9880196D01*
X48976813Y9752243D01*
X48867999Y9643429D01*
X48740046Y9557934D01*
X48597873Y9499044D01*
X48446943Y9469022D01*
X48293057Y9469022D01*
X48142127Y9499044D01*
X47999954Y9557934D01*
X47872001Y9643429D01*
X47763187Y9752243D01*
X47677692Y9880196D01*
X47618802Y10022369D01*
X47588780Y10173299D01*
X47588780Y10327185D01*
X47618802Y10478115D01*
X47677692Y10620288D01*
X47763187Y10748241D01*
X47872001Y10857055D01*
X47999954Y10942550D01*
X48142127Y11001440D01*
X48293057Y11031462D01*
X48446943Y11031462D01*
X48597873Y11001440D01*
G37*
G36*
X51137873Y11001440D02*
G01*
X51280046Y10942550D01*
X51407999Y10857055D01*
X51516813Y10748241D01*
X51602308Y10620288D01*
X51661198Y10478115D01*
X51691220Y10327185D01*
X51691220Y10173299D01*
X51661198Y10022369D01*
X51602308Y9880196D01*
X51516813Y9752243D01*
X51407999Y9643429D01*
X51280046Y9557934D01*
X51137873Y9499044D01*
X50986943Y9469022D01*
X50833057Y9469022D01*
X50682127Y9499044D01*
X50539954Y9557934D01*
X50412001Y9643429D01*
X50303187Y9752243D01*
X50217692Y9880196D01*
X50158802Y10022369D01*
X50128780Y10173299D01*
X50128780Y10327185D01*
X50158802Y10478115D01*
X50217692Y10620288D01*
X50303187Y10748241D01*
X50412001Y10857055D01*
X50539954Y10942550D01*
X50682127Y11001440D01*
X50833057Y11031462D01*
X50986943Y11031462D01*
X51137873Y11001440D01*
G37*
G36*
X53677873Y11001440D02*
G01*
X53820046Y10942550D01*
X53947999Y10857055D01*
X54056813Y10748241D01*
X54142308Y10620288D01*
X54201198Y10478115D01*
X54231220Y10327185D01*
X54231220Y10173299D01*
X54201198Y10022369D01*
X54142308Y9880196D01*
X54056813Y9752243D01*
X53947999Y9643429D01*
X53820046Y9557934D01*
X53677873Y9499044D01*
X53526943Y9469022D01*
X53373057Y9469022D01*
X53222127Y9499044D01*
X53079954Y9557934D01*
X52952001Y9643429D01*
X52843187Y9752243D01*
X52757692Y9880196D01*
X52698802Y10022369D01*
X52668780Y10173299D01*
X52668780Y10327185D01*
X52698802Y10478115D01*
X52757692Y10620288D01*
X52843187Y10748241D01*
X52952001Y10857055D01*
X53079954Y10942550D01*
X53222127Y11001440D01*
X53373057Y11031462D01*
X53526943Y11031462D01*
X53677873Y11001440D01*
G37*
G36*
X56217873Y11001440D02*
G01*
X56360046Y10942550D01*
X56487999Y10857055D01*
X56596813Y10748241D01*
X56682308Y10620288D01*
X56741198Y10478115D01*
X56771220Y10327185D01*
X56771220Y10173299D01*
X56741198Y10022369D01*
X56682308Y9880196D01*
X56596813Y9752243D01*
X56487999Y9643429D01*
X56360046Y9557934D01*
X56217873Y9499044D01*
X56066943Y9469022D01*
X55913057Y9469022D01*
X55762127Y9499044D01*
X55619954Y9557934D01*
X55492001Y9643429D01*
X55383187Y9752243D01*
X55297692Y9880196D01*
X55238802Y10022369D01*
X55208780Y10173299D01*
X55208780Y10327185D01*
X55238802Y10478115D01*
X55297692Y10620288D01*
X55383187Y10748241D01*
X55492001Y10857055D01*
X55619954Y10942550D01*
X55762127Y11001440D01*
X55913057Y11031462D01*
X56066943Y11031462D01*
X56217873Y11001440D01*
G37*
G36*
X58757873Y11001440D02*
G01*
X58900046Y10942550D01*
X59027999Y10857055D01*
X59136813Y10748241D01*
X59222308Y10620288D01*
X59281198Y10478115D01*
X59311220Y10327185D01*
X59311220Y10173299D01*
X59281198Y10022369D01*
X59222308Y9880196D01*
X59136813Y9752243D01*
X59027999Y9643429D01*
X58900046Y9557934D01*
X58757873Y9499044D01*
X58606943Y9469022D01*
X58453057Y9469022D01*
X58302127Y9499044D01*
X58159954Y9557934D01*
X58032001Y9643429D01*
X57923187Y9752243D01*
X57837692Y9880196D01*
X57778802Y10022369D01*
X57748780Y10173299D01*
X57748780Y10327185D01*
X57778802Y10478115D01*
X57837692Y10620288D01*
X57923187Y10748241D01*
X58032001Y10857055D01*
X58159954Y10942550D01*
X58302127Y11001440D01*
X58453057Y11031462D01*
X58606943Y11031462D01*
X58757873Y11001440D01*
G37*
G36*
X61297873Y11001440D02*
G01*
X61440046Y10942550D01*
X61567999Y10857055D01*
X61676813Y10748241D01*
X61762308Y10620288D01*
X61821198Y10478115D01*
X61851220Y10327185D01*
X61851220Y10173299D01*
X61821198Y10022369D01*
X61762308Y9880196D01*
X61676813Y9752243D01*
X61567999Y9643429D01*
X61440046Y9557934D01*
X61297873Y9499044D01*
X61146943Y9469022D01*
X60993057Y9469022D01*
X60842127Y9499044D01*
X60699954Y9557934D01*
X60572001Y9643429D01*
X60463187Y9752243D01*
X60377692Y9880196D01*
X60318802Y10022369D01*
X60288780Y10173299D01*
X60288780Y10327185D01*
X60318802Y10478115D01*
X60377692Y10620288D01*
X60463187Y10748241D01*
X60572001Y10857055D01*
X60699954Y10942550D01*
X60842127Y11001440D01*
X60993057Y11031462D01*
X61146943Y11031462D01*
X61297873Y11001440D01*
G37*
G36*
X63837873Y11001440D02*
G01*
X63980046Y10942550D01*
X64107999Y10857055D01*
X64216813Y10748241D01*
X64302308Y10620288D01*
X64361198Y10478115D01*
X64391220Y10327185D01*
X64391220Y10173299D01*
X64361198Y10022369D01*
X64302308Y9880196D01*
X64216813Y9752243D01*
X64107999Y9643429D01*
X63980046Y9557934D01*
X63837873Y9499044D01*
X63686943Y9469022D01*
X63533057Y9469022D01*
X63382127Y9499044D01*
X63239954Y9557934D01*
X63112001Y9643429D01*
X63003187Y9752243D01*
X62917692Y9880196D01*
X62858802Y10022369D01*
X62828780Y10173299D01*
X62828780Y10327185D01*
X62858802Y10478115D01*
X62917692Y10620288D01*
X63003187Y10748241D01*
X63112001Y10857055D01*
X63239954Y10942550D01*
X63382127Y11001440D01*
X63533057Y11031462D01*
X63686943Y11031462D01*
X63837873Y11001440D01*
G37*
G36*
X66377873Y11001440D02*
G01*
X66520046Y10942550D01*
X66647999Y10857055D01*
X66756813Y10748241D01*
X66842308Y10620288D01*
X66901198Y10478115D01*
X66931220Y10327185D01*
X66931220Y10173299D01*
X66901198Y10022369D01*
X66842308Y9880196D01*
X66756813Y9752243D01*
X66647999Y9643429D01*
X66520046Y9557934D01*
X66377873Y9499044D01*
X66226943Y9469022D01*
X66073057Y9469022D01*
X65922127Y9499044D01*
X65779954Y9557934D01*
X65652001Y9643429D01*
X65543187Y9752243D01*
X65457692Y9880196D01*
X65398802Y10022369D01*
X65368780Y10173299D01*
X65368780Y10327185D01*
X65398802Y10478115D01*
X65457692Y10620288D01*
X65543187Y10748241D01*
X65652001Y10857055D01*
X65779954Y10942550D01*
X65922127Y11001440D01*
X66073057Y11031462D01*
X66226943Y11031462D01*
X66377873Y11001440D01*
G37*
G36*
X68917873Y11001440D02*
G01*
X69060046Y10942550D01*
X69187999Y10857055D01*
X69296813Y10748241D01*
X69382308Y10620288D01*
X69441198Y10478115D01*
X69471220Y10327185D01*
X69471220Y10173299D01*
X69441198Y10022369D01*
X69382308Y9880196D01*
X69296813Y9752243D01*
X69187999Y9643429D01*
X69060046Y9557934D01*
X68917873Y9499044D01*
X68766943Y9469022D01*
X68613057Y9469022D01*
X68462127Y9499044D01*
X68319954Y9557934D01*
X68192001Y9643429D01*
X68083187Y9752243D01*
X67997692Y9880196D01*
X67938802Y10022369D01*
X67908780Y10173299D01*
X67908780Y10327185D01*
X67938802Y10478115D01*
X67997692Y10620288D01*
X68083187Y10748241D01*
X68192001Y10857055D01*
X68319954Y10942550D01*
X68462127Y11001440D01*
X68613057Y11031462D01*
X68766943Y11031462D01*
X68917873Y11001440D01*
G37*
G36*
X71457873Y11001440D02*
G01*
X71600046Y10942550D01*
X71727999Y10857055D01*
X71836813Y10748241D01*
X71922308Y10620288D01*
X71981198Y10478115D01*
X72011220Y10327185D01*
X72011220Y10173299D01*
X71981198Y10022369D01*
X71922308Y9880196D01*
X71836813Y9752243D01*
X71727999Y9643429D01*
X71600046Y9557934D01*
X71457873Y9499044D01*
X71306943Y9469022D01*
X71153057Y9469022D01*
X71002127Y9499044D01*
X70859954Y9557934D01*
X70732001Y9643429D01*
X70623187Y9752243D01*
X70537692Y9880196D01*
X70478802Y10022369D01*
X70448780Y10173299D01*
X70448780Y10327185D01*
X70478802Y10478115D01*
X70537692Y10620288D01*
X70623187Y10748241D01*
X70732001Y10857055D01*
X70859954Y10942550D01*
X71002127Y11001440D01*
X71153057Y11031462D01*
X71306943Y11031462D01*
X71457873Y11001440D01*
G37*
G36*
X71993394Y13572578D02*
G01*
X72004749Y13564991D01*
X72012336Y13553636D01*
X72015000Y13540242D01*
X72015000Y12040242D01*
X72012336Y12026848D01*
X72004749Y12015493D01*
X71993394Y12007906D01*
X71980000Y12005242D01*
X70480000Y12005242D01*
X70466606Y12007906D01*
X70455251Y12015493D01*
X70447664Y12026848D01*
X70445000Y12040242D01*
X70445000Y13540242D01*
X70447664Y13553636D01*
X70455251Y13564991D01*
X70466606Y13572578D01*
X70480000Y13575242D01*
X71980000Y13575242D01*
X71993394Y13572578D01*
G37*
G36*
X10497873Y13541440D02*
G01*
X10640046Y13482550D01*
X10767999Y13397055D01*
X10876813Y13288241D01*
X10962308Y13160288D01*
X11021198Y13018115D01*
X11051220Y12867185D01*
X11051220Y12713299D01*
X11021198Y12562369D01*
X10962308Y12420196D01*
X10876813Y12292243D01*
X10767999Y12183429D01*
X10640046Y12097934D01*
X10497873Y12039044D01*
X10346943Y12009022D01*
X10193057Y12009022D01*
X10042127Y12039044D01*
X9899954Y12097934D01*
X9772001Y12183429D01*
X9663187Y12292243D01*
X9577692Y12420196D01*
X9518802Y12562369D01*
X9488780Y12713299D01*
X9488780Y12867185D01*
X9518802Y13018115D01*
X9577692Y13160288D01*
X9663187Y13288241D01*
X9772001Y13397055D01*
X9899954Y13482550D01*
X10042127Y13541440D01*
X10193057Y13571462D01*
X10346943Y13571462D01*
X10497873Y13541440D01*
G37*
G36*
X13037873Y13541440D02*
G01*
X13180046Y13482550D01*
X13307999Y13397055D01*
X13416813Y13288241D01*
X13502308Y13160288D01*
X13561198Y13018115D01*
X13591220Y12867185D01*
X13591220Y12713299D01*
X13561198Y12562369D01*
X13502308Y12420196D01*
X13416813Y12292243D01*
X13307999Y12183429D01*
X13180046Y12097934D01*
X13037873Y12039044D01*
X12886943Y12009022D01*
X12733057Y12009022D01*
X12582127Y12039044D01*
X12439954Y12097934D01*
X12312001Y12183429D01*
X12203187Y12292243D01*
X12117692Y12420196D01*
X12058802Y12562369D01*
X12028780Y12713299D01*
X12028780Y12867185D01*
X12058802Y13018115D01*
X12117692Y13160288D01*
X12203187Y13288241D01*
X12312001Y13397055D01*
X12439954Y13482550D01*
X12582127Y13541440D01*
X12733057Y13571462D01*
X12886943Y13571462D01*
X13037873Y13541440D01*
G37*
G36*
X15577873Y13541440D02*
G01*
X15720046Y13482550D01*
X15847999Y13397055D01*
X15956813Y13288241D01*
X16042308Y13160288D01*
X16101198Y13018115D01*
X16131220Y12867185D01*
X16131220Y12713299D01*
X16101198Y12562369D01*
X16042308Y12420196D01*
X15956813Y12292243D01*
X15847999Y12183429D01*
X15720046Y12097934D01*
X15577873Y12039044D01*
X15426943Y12009022D01*
X15273057Y12009022D01*
X15122127Y12039044D01*
X14979954Y12097934D01*
X14852001Y12183429D01*
X14743187Y12292243D01*
X14657692Y12420196D01*
X14598802Y12562369D01*
X14568780Y12713299D01*
X14568780Y12867185D01*
X14598802Y13018115D01*
X14657692Y13160288D01*
X14743187Y13288241D01*
X14852001Y13397055D01*
X14979954Y13482550D01*
X15122127Y13541440D01*
X15273057Y13571462D01*
X15426943Y13571462D01*
X15577873Y13541440D01*
G37*
G36*
X18117873Y13541440D02*
G01*
X18260046Y13482550D01*
X18387999Y13397055D01*
X18496813Y13288241D01*
X18582308Y13160288D01*
X18641198Y13018115D01*
X18671220Y12867185D01*
X18671220Y12713299D01*
X18641198Y12562369D01*
X18582308Y12420196D01*
X18496813Y12292243D01*
X18387999Y12183429D01*
X18260046Y12097934D01*
X18117873Y12039044D01*
X17966943Y12009022D01*
X17813057Y12009022D01*
X17662127Y12039044D01*
X17519954Y12097934D01*
X17392001Y12183429D01*
X17283187Y12292243D01*
X17197692Y12420196D01*
X17138802Y12562369D01*
X17108780Y12713299D01*
X17108780Y12867185D01*
X17138802Y13018115D01*
X17197692Y13160288D01*
X17283187Y13288241D01*
X17392001Y13397055D01*
X17519954Y13482550D01*
X17662127Y13541440D01*
X17813057Y13571462D01*
X17966943Y13571462D01*
X18117873Y13541440D01*
G37*
G36*
X20657873Y13541440D02*
G01*
X20800046Y13482550D01*
X20927999Y13397055D01*
X21036813Y13288241D01*
X21122308Y13160288D01*
X21181198Y13018115D01*
X21211220Y12867185D01*
X21211220Y12713299D01*
X21181198Y12562369D01*
X21122308Y12420196D01*
X21036813Y12292243D01*
X20927999Y12183429D01*
X20800046Y12097934D01*
X20657873Y12039044D01*
X20506943Y12009022D01*
X20353057Y12009022D01*
X20202127Y12039044D01*
X20059954Y12097934D01*
X19932001Y12183429D01*
X19823187Y12292243D01*
X19737692Y12420196D01*
X19678802Y12562369D01*
X19648780Y12713299D01*
X19648780Y12867185D01*
X19678802Y13018115D01*
X19737692Y13160288D01*
X19823187Y13288241D01*
X19932001Y13397055D01*
X20059954Y13482550D01*
X20202127Y13541440D01*
X20353057Y13571462D01*
X20506943Y13571462D01*
X20657873Y13541440D01*
G37*
G36*
X23197873Y13541440D02*
G01*
X23340046Y13482550D01*
X23467999Y13397055D01*
X23576813Y13288241D01*
X23662308Y13160288D01*
X23721198Y13018115D01*
X23751220Y12867185D01*
X23751220Y12713299D01*
X23721198Y12562369D01*
X23662308Y12420196D01*
X23576813Y12292243D01*
X23467999Y12183429D01*
X23340046Y12097934D01*
X23197873Y12039044D01*
X23046943Y12009022D01*
X22893057Y12009022D01*
X22742127Y12039044D01*
X22599954Y12097934D01*
X22472001Y12183429D01*
X22363187Y12292243D01*
X22277692Y12420196D01*
X22218802Y12562369D01*
X22188780Y12713299D01*
X22188780Y12867185D01*
X22218802Y13018115D01*
X22277692Y13160288D01*
X22363187Y13288241D01*
X22472001Y13397055D01*
X22599954Y13482550D01*
X22742127Y13541440D01*
X22893057Y13571462D01*
X23046943Y13571462D01*
X23197873Y13541440D01*
G37*
G36*
X25737873Y13541440D02*
G01*
X25880046Y13482550D01*
X26007999Y13397055D01*
X26116813Y13288241D01*
X26202308Y13160288D01*
X26261198Y13018115D01*
X26291220Y12867185D01*
X26291220Y12713299D01*
X26261198Y12562369D01*
X26202308Y12420196D01*
X26116813Y12292243D01*
X26007999Y12183429D01*
X25880046Y12097934D01*
X25737873Y12039044D01*
X25586943Y12009022D01*
X25433057Y12009022D01*
X25282127Y12039044D01*
X25139954Y12097934D01*
X25012001Y12183429D01*
X24903187Y12292243D01*
X24817692Y12420196D01*
X24758802Y12562369D01*
X24728780Y12713299D01*
X24728780Y12867185D01*
X24758802Y13018115D01*
X24817692Y13160288D01*
X24903187Y13288241D01*
X25012001Y13397055D01*
X25139954Y13482550D01*
X25282127Y13541440D01*
X25433057Y13571462D01*
X25586943Y13571462D01*
X25737873Y13541440D01*
G37*
G36*
X28277873Y13541440D02*
G01*
X28420046Y13482550D01*
X28547999Y13397055D01*
X28656813Y13288241D01*
X28742308Y13160288D01*
X28801198Y13018115D01*
X28831220Y12867185D01*
X28831220Y12713299D01*
X28801198Y12562369D01*
X28742308Y12420196D01*
X28656813Y12292243D01*
X28547999Y12183429D01*
X28420046Y12097934D01*
X28277873Y12039044D01*
X28126943Y12009022D01*
X27973057Y12009022D01*
X27822127Y12039044D01*
X27679954Y12097934D01*
X27552001Y12183429D01*
X27443187Y12292243D01*
X27357692Y12420196D01*
X27298802Y12562369D01*
X27268780Y12713299D01*
X27268780Y12867185D01*
X27298802Y13018115D01*
X27357692Y13160288D01*
X27443187Y13288241D01*
X27552001Y13397055D01*
X27679954Y13482550D01*
X27822127Y13541440D01*
X27973057Y13571462D01*
X28126943Y13571462D01*
X28277873Y13541440D01*
G37*
G36*
X30817873Y13541440D02*
G01*
X30960046Y13482550D01*
X31087999Y13397055D01*
X31196813Y13288241D01*
X31282308Y13160288D01*
X31341198Y13018115D01*
X31371220Y12867185D01*
X31371220Y12713299D01*
X31341198Y12562369D01*
X31282308Y12420196D01*
X31196813Y12292243D01*
X31087999Y12183429D01*
X30960046Y12097934D01*
X30817873Y12039044D01*
X30666943Y12009022D01*
X30513057Y12009022D01*
X30362127Y12039044D01*
X30219954Y12097934D01*
X30092001Y12183429D01*
X29983187Y12292243D01*
X29897692Y12420196D01*
X29838802Y12562369D01*
X29808780Y12713299D01*
X29808780Y12867185D01*
X29838802Y13018115D01*
X29897692Y13160288D01*
X29983187Y13288241D01*
X30092001Y13397055D01*
X30219954Y13482550D01*
X30362127Y13541440D01*
X30513057Y13571462D01*
X30666943Y13571462D01*
X30817873Y13541440D01*
G37*
G36*
X33357873Y13541440D02*
G01*
X33500046Y13482550D01*
X33627999Y13397055D01*
X33736813Y13288241D01*
X33822308Y13160288D01*
X33881198Y13018115D01*
X33911220Y12867185D01*
X33911220Y12713299D01*
X33881198Y12562369D01*
X33822308Y12420196D01*
X33736813Y12292243D01*
X33627999Y12183429D01*
X33500046Y12097934D01*
X33357873Y12039044D01*
X33206943Y12009022D01*
X33053057Y12009022D01*
X32902127Y12039044D01*
X32759954Y12097934D01*
X32632001Y12183429D01*
X32523187Y12292243D01*
X32437692Y12420196D01*
X32378802Y12562369D01*
X32348780Y12713299D01*
X32348780Y12867185D01*
X32378802Y13018115D01*
X32437692Y13160288D01*
X32523187Y13288241D01*
X32632001Y13397055D01*
X32759954Y13482550D01*
X32902127Y13541440D01*
X33053057Y13571462D01*
X33206943Y13571462D01*
X33357873Y13541440D01*
G37*
G36*
X35897873Y13541440D02*
G01*
X36040046Y13482550D01*
X36167999Y13397055D01*
X36276813Y13288241D01*
X36362308Y13160288D01*
X36421198Y13018115D01*
X36451220Y12867185D01*
X36451220Y12713299D01*
X36421198Y12562369D01*
X36362308Y12420196D01*
X36276813Y12292243D01*
X36167999Y12183429D01*
X36040046Y12097934D01*
X35897873Y12039044D01*
X35746943Y12009022D01*
X35593057Y12009022D01*
X35442127Y12039044D01*
X35299954Y12097934D01*
X35172001Y12183429D01*
X35063187Y12292243D01*
X34977692Y12420196D01*
X34918802Y12562369D01*
X34888780Y12713299D01*
X34888780Y12867185D01*
X34918802Y13018115D01*
X34977692Y13160288D01*
X35063187Y13288241D01*
X35172001Y13397055D01*
X35299954Y13482550D01*
X35442127Y13541440D01*
X35593057Y13571462D01*
X35746943Y13571462D01*
X35897873Y13541440D01*
G37*
G36*
X38437873Y13541440D02*
G01*
X38580046Y13482550D01*
X38707999Y13397055D01*
X38816813Y13288241D01*
X38902308Y13160288D01*
X38961198Y13018115D01*
X38991220Y12867185D01*
X38991220Y12713299D01*
X38961198Y12562369D01*
X38902308Y12420196D01*
X38816813Y12292243D01*
X38707999Y12183429D01*
X38580046Y12097934D01*
X38437873Y12039044D01*
X38286943Y12009022D01*
X38133057Y12009022D01*
X37982127Y12039044D01*
X37839954Y12097934D01*
X37712001Y12183429D01*
X37603187Y12292243D01*
X37517692Y12420196D01*
X37458802Y12562369D01*
X37428780Y12713299D01*
X37428780Y12867185D01*
X37458802Y13018115D01*
X37517692Y13160288D01*
X37603187Y13288241D01*
X37712001Y13397055D01*
X37839954Y13482550D01*
X37982127Y13541440D01*
X38133057Y13571462D01*
X38286943Y13571462D01*
X38437873Y13541440D01*
G37*
G36*
X40977873Y13541440D02*
G01*
X41120046Y13482550D01*
X41247999Y13397055D01*
X41356813Y13288241D01*
X41442308Y13160288D01*
X41501198Y13018115D01*
X41531220Y12867185D01*
X41531220Y12713299D01*
X41501198Y12562369D01*
X41442308Y12420196D01*
X41356813Y12292243D01*
X41247999Y12183429D01*
X41120046Y12097934D01*
X40977873Y12039044D01*
X40826943Y12009022D01*
X40673057Y12009022D01*
X40522127Y12039044D01*
X40379954Y12097934D01*
X40252001Y12183429D01*
X40143187Y12292243D01*
X40057692Y12420196D01*
X39998802Y12562369D01*
X39968780Y12713299D01*
X39968780Y12867185D01*
X39998802Y13018115D01*
X40057692Y13160288D01*
X40143187Y13288241D01*
X40252001Y13397055D01*
X40379954Y13482550D01*
X40522127Y13541440D01*
X40673057Y13571462D01*
X40826943Y13571462D01*
X40977873Y13541440D01*
G37*
G36*
X43517873Y13541440D02*
G01*
X43660046Y13482550D01*
X43787999Y13397055D01*
X43896813Y13288241D01*
X43982308Y13160288D01*
X44041198Y13018115D01*
X44071220Y12867185D01*
X44071220Y12713299D01*
X44041198Y12562369D01*
X43982308Y12420196D01*
X43896813Y12292243D01*
X43787999Y12183429D01*
X43660046Y12097934D01*
X43517873Y12039044D01*
X43366943Y12009022D01*
X43213057Y12009022D01*
X43062127Y12039044D01*
X42919954Y12097934D01*
X42792001Y12183429D01*
X42683187Y12292243D01*
X42597692Y12420196D01*
X42538802Y12562369D01*
X42508780Y12713299D01*
X42508780Y12867185D01*
X42538802Y13018115D01*
X42597692Y13160288D01*
X42683187Y13288241D01*
X42792001Y13397055D01*
X42919954Y13482550D01*
X43062127Y13541440D01*
X43213057Y13571462D01*
X43366943Y13571462D01*
X43517873Y13541440D01*
G37*
G36*
X46057873Y13541440D02*
G01*
X46200046Y13482550D01*
X46327999Y13397055D01*
X46436813Y13288241D01*
X46522308Y13160288D01*
X46581198Y13018115D01*
X46611220Y12867185D01*
X46611220Y12713299D01*
X46581198Y12562369D01*
X46522308Y12420196D01*
X46436813Y12292243D01*
X46327999Y12183429D01*
X46200046Y12097934D01*
X46057873Y12039044D01*
X45906943Y12009022D01*
X45753057Y12009022D01*
X45602127Y12039044D01*
X45459954Y12097934D01*
X45332001Y12183429D01*
X45223187Y12292243D01*
X45137692Y12420196D01*
X45078802Y12562369D01*
X45048780Y12713299D01*
X45048780Y12867185D01*
X45078802Y13018115D01*
X45137692Y13160288D01*
X45223187Y13288241D01*
X45332001Y13397055D01*
X45459954Y13482550D01*
X45602127Y13541440D01*
X45753057Y13571462D01*
X45906943Y13571462D01*
X46057873Y13541440D01*
G37*
G36*
X48597873Y13541440D02*
G01*
X48740046Y13482550D01*
X48867999Y13397055D01*
X48976813Y13288241D01*
X49062308Y13160288D01*
X49121198Y13018115D01*
X49151220Y12867185D01*
X49151220Y12713299D01*
X49121198Y12562369D01*
X49062308Y12420196D01*
X48976813Y12292243D01*
X48867999Y12183429D01*
X48740046Y12097934D01*
X48597873Y12039044D01*
X48446943Y12009022D01*
X48293057Y12009022D01*
X48142127Y12039044D01*
X47999954Y12097934D01*
X47872001Y12183429D01*
X47763187Y12292243D01*
X47677692Y12420196D01*
X47618802Y12562369D01*
X47588780Y12713299D01*
X47588780Y12867185D01*
X47618802Y13018115D01*
X47677692Y13160288D01*
X47763187Y13288241D01*
X47872001Y13397055D01*
X47999954Y13482550D01*
X48142127Y13541440D01*
X48293057Y13571462D01*
X48446943Y13571462D01*
X48597873Y13541440D01*
G37*
G36*
X51137873Y13541440D02*
G01*
X51280046Y13482550D01*
X51407999Y13397055D01*
X51516813Y13288241D01*
X51602308Y13160288D01*
X51661198Y13018115D01*
X51691220Y12867185D01*
X51691220Y12713299D01*
X51661198Y12562369D01*
X51602308Y12420196D01*
X51516813Y12292243D01*
X51407999Y12183429D01*
X51280046Y12097934D01*
X51137873Y12039044D01*
X50986943Y12009022D01*
X50833057Y12009022D01*
X50682127Y12039044D01*
X50539954Y12097934D01*
X50412001Y12183429D01*
X50303187Y12292243D01*
X50217692Y12420196D01*
X50158802Y12562369D01*
X50128780Y12713299D01*
X50128780Y12867185D01*
X50158802Y13018115D01*
X50217692Y13160288D01*
X50303187Y13288241D01*
X50412001Y13397055D01*
X50539954Y13482550D01*
X50682127Y13541440D01*
X50833057Y13571462D01*
X50986943Y13571462D01*
X51137873Y13541440D01*
G37*
G36*
X53677873Y13541440D02*
G01*
X53820046Y13482550D01*
X53947999Y13397055D01*
X54056813Y13288241D01*
X54142308Y13160288D01*
X54201198Y13018115D01*
X54231220Y12867185D01*
X54231220Y12713299D01*
X54201198Y12562369D01*
X54142308Y12420196D01*
X54056813Y12292243D01*
X53947999Y12183429D01*
X53820046Y12097934D01*
X53677873Y12039044D01*
X53526943Y12009022D01*
X53373057Y12009022D01*
X53222127Y12039044D01*
X53079954Y12097934D01*
X52952001Y12183429D01*
X52843187Y12292243D01*
X52757692Y12420196D01*
X52698802Y12562369D01*
X52668780Y12713299D01*
X52668780Y12867185D01*
X52698802Y13018115D01*
X52757692Y13160288D01*
X52843187Y13288241D01*
X52952001Y13397055D01*
X53079954Y13482550D01*
X53222127Y13541440D01*
X53373057Y13571462D01*
X53526943Y13571462D01*
X53677873Y13541440D01*
G37*
G36*
X56217873Y13541440D02*
G01*
X56360046Y13482550D01*
X56487999Y13397055D01*
X56596813Y13288241D01*
X56682308Y13160288D01*
X56741198Y13018115D01*
X56771220Y12867185D01*
X56771220Y12713299D01*
X56741198Y12562369D01*
X56682308Y12420196D01*
X56596813Y12292243D01*
X56487999Y12183429D01*
X56360046Y12097934D01*
X56217873Y12039044D01*
X56066943Y12009022D01*
X55913057Y12009022D01*
X55762127Y12039044D01*
X55619954Y12097934D01*
X55492001Y12183429D01*
X55383187Y12292243D01*
X55297692Y12420196D01*
X55238802Y12562369D01*
X55208780Y12713299D01*
X55208780Y12867185D01*
X55238802Y13018115D01*
X55297692Y13160288D01*
X55383187Y13288241D01*
X55492001Y13397055D01*
X55619954Y13482550D01*
X55762127Y13541440D01*
X55913057Y13571462D01*
X56066943Y13571462D01*
X56217873Y13541440D01*
G37*
G36*
X58757873Y13541440D02*
G01*
X58900046Y13482550D01*
X59027999Y13397055D01*
X59136813Y13288241D01*
X59222308Y13160288D01*
X59281198Y13018115D01*
X59311220Y12867185D01*
X59311220Y12713299D01*
X59281198Y12562369D01*
X59222308Y12420196D01*
X59136813Y12292243D01*
X59027999Y12183429D01*
X58900046Y12097934D01*
X58757873Y12039044D01*
X58606943Y12009022D01*
X58453057Y12009022D01*
X58302127Y12039044D01*
X58159954Y12097934D01*
X58032001Y12183429D01*
X57923187Y12292243D01*
X57837692Y12420196D01*
X57778802Y12562369D01*
X57748780Y12713299D01*
X57748780Y12867185D01*
X57778802Y13018115D01*
X57837692Y13160288D01*
X57923187Y13288241D01*
X58032001Y13397055D01*
X58159954Y13482550D01*
X58302127Y13541440D01*
X58453057Y13571462D01*
X58606943Y13571462D01*
X58757873Y13541440D01*
G37*
G36*
X61297873Y13541440D02*
G01*
X61440046Y13482550D01*
X61567999Y13397055D01*
X61676813Y13288241D01*
X61762308Y13160288D01*
X61821198Y13018115D01*
X61851220Y12867185D01*
X61851220Y12713299D01*
X61821198Y12562369D01*
X61762308Y12420196D01*
X61676813Y12292243D01*
X61567999Y12183429D01*
X61440046Y12097934D01*
X61297873Y12039044D01*
X61146943Y12009022D01*
X60993057Y12009022D01*
X60842127Y12039044D01*
X60699954Y12097934D01*
X60572001Y12183429D01*
X60463187Y12292243D01*
X60377692Y12420196D01*
X60318802Y12562369D01*
X60288780Y12713299D01*
X60288780Y12867185D01*
X60318802Y13018115D01*
X60377692Y13160288D01*
X60463187Y13288241D01*
X60572001Y13397055D01*
X60699954Y13482550D01*
X60842127Y13541440D01*
X60993057Y13571462D01*
X61146943Y13571462D01*
X61297873Y13541440D01*
G37*
G36*
X63837873Y13541440D02*
G01*
X63980046Y13482550D01*
X64107999Y13397055D01*
X64216813Y13288241D01*
X64302308Y13160288D01*
X64361198Y13018115D01*
X64391220Y12867185D01*
X64391220Y12713299D01*
X64361198Y12562369D01*
X64302308Y12420196D01*
X64216813Y12292243D01*
X64107999Y12183429D01*
X63980046Y12097934D01*
X63837873Y12039044D01*
X63686943Y12009022D01*
X63533057Y12009022D01*
X63382127Y12039044D01*
X63239954Y12097934D01*
X63112001Y12183429D01*
X63003187Y12292243D01*
X62917692Y12420196D01*
X62858802Y12562369D01*
X62828780Y12713299D01*
X62828780Y12867185D01*
X62858802Y13018115D01*
X62917692Y13160288D01*
X63003187Y13288241D01*
X63112001Y13397055D01*
X63239954Y13482550D01*
X63382127Y13541440D01*
X63533057Y13571462D01*
X63686943Y13571462D01*
X63837873Y13541440D01*
G37*
G36*
X66377873Y13541440D02*
G01*
X66520046Y13482550D01*
X66647999Y13397055D01*
X66756813Y13288241D01*
X66842308Y13160288D01*
X66901198Y13018115D01*
X66931220Y12867185D01*
X66931220Y12713299D01*
X66901198Y12562369D01*
X66842308Y12420196D01*
X66756813Y12292243D01*
X66647999Y12183429D01*
X66520046Y12097934D01*
X66377873Y12039044D01*
X66226943Y12009022D01*
X66073057Y12009022D01*
X65922127Y12039044D01*
X65779954Y12097934D01*
X65652001Y12183429D01*
X65543187Y12292243D01*
X65457692Y12420196D01*
X65398802Y12562369D01*
X65368780Y12713299D01*
X65368780Y12867185D01*
X65398802Y13018115D01*
X65457692Y13160288D01*
X65543187Y13288241D01*
X65652001Y13397055D01*
X65779954Y13482550D01*
X65922127Y13541440D01*
X66073057Y13571462D01*
X66226943Y13571462D01*
X66377873Y13541440D01*
G37*
G36*
X68917873Y13541440D02*
G01*
X69060046Y13482550D01*
X69187999Y13397055D01*
X69296813Y13288241D01*
X69382308Y13160288D01*
X69441198Y13018115D01*
X69471220Y12867185D01*
X69471220Y12713299D01*
X69441198Y12562369D01*
X69382308Y12420196D01*
X69296813Y12292243D01*
X69187999Y12183429D01*
X69060046Y12097934D01*
X68917873Y12039044D01*
X68766943Y12009022D01*
X68613057Y12009022D01*
X68462127Y12039044D01*
X68319954Y12097934D01*
X68192001Y12183429D01*
X68083187Y12292243D01*
X67997692Y12420196D01*
X67938802Y12562369D01*
X67908780Y12713299D01*
X67908780Y12867185D01*
X67938802Y13018115D01*
X67997692Y13160288D01*
X68083187Y13288241D01*
X68192001Y13397055D01*
X68319954Y13482550D01*
X68462127Y13541440D01*
X68613057Y13571462D01*
X68766943Y13571462D01*
X68917873Y13541440D01*
G37*
G36*
X4552873Y22770092D02*
G01*
X4895136Y22715883D01*
X5228988Y22623012D01*
X5550078Y22492690D01*
X5854219Y22326617D01*
X6137447Y22126956D01*
X6396069Y21896311D01*
X6626714Y21637689D01*
X6826375Y21354461D01*
X6992448Y21050320D01*
X7122770Y20729230D01*
X7215641Y20395378D01*
X7269850Y20053115D01*
X7285000Y19750242D01*
X7269850Y19447369D01*
X7215641Y19105106D01*
X7122770Y18771254D01*
X6992448Y18450164D01*
X6826375Y18146023D01*
X6626714Y17862795D01*
X6396069Y17604173D01*
X6137447Y17373528D01*
X5854219Y17173867D01*
X5550078Y17007794D01*
X5228988Y16877472D01*
X4895136Y16784601D01*
X4552873Y16730392D01*
X4250000Y16715242D01*
X3947127Y16730392D01*
X3604864Y16784601D01*
X3271012Y16877472D01*
X2949922Y17007794D01*
X2645781Y17173867D01*
X2362553Y17373528D01*
X2103931Y17604173D01*
X1873286Y17862795D01*
X1673625Y18146023D01*
X1507552Y18450164D01*
X1377230Y18771254D01*
X1284359Y19105106D01*
X1230150Y19447369D01*
X1215000Y19750242D01*
X1230150Y20053115D01*
X1284359Y20395378D01*
X1377230Y20729230D01*
X1507552Y21050320D01*
X1673625Y21354461D01*
X1873286Y21637689D01*
X2103931Y21896311D01*
X2362553Y22126956D01*
X2645781Y22326617D01*
X2949922Y22492690D01*
X3271012Y22623012D01*
X3604864Y22715883D01*
X3947127Y22770092D01*
X4250000Y22785242D01*
X4552873Y22770092D01*
G37*
G36*
X96052873Y22770092D02*
G01*
X96395136Y22715883D01*
X96728988Y22623012D01*
X97050078Y22492690D01*
X97354219Y22326617D01*
X97637447Y22126956D01*
X97896069Y21896311D01*
X98126714Y21637689D01*
X98326375Y21354461D01*
X98492448Y21050320D01*
X98622770Y20729230D01*
X98715641Y20395378D01*
X98769850Y20053115D01*
X98785000Y19750242D01*
X98769850Y19447369D01*
X98715641Y19105106D01*
X98622770Y18771254D01*
X98492448Y18450164D01*
X98326375Y18146023D01*
X98126714Y17862795D01*
X97896069Y17604173D01*
X97637447Y17373528D01*
X97354219Y17173867D01*
X97050078Y17007794D01*
X96728988Y16877472D01*
X96395136Y16784601D01*
X96052873Y16730392D01*
X95750000Y16715242D01*
X95447127Y16730392D01*
X95104864Y16784601D01*
X94771012Y16877472D01*
X94449922Y17007794D01*
X94145781Y17173867D01*
X93862553Y17373528D01*
X93603931Y17604173D01*
X93373286Y17862795D01*
X93173625Y18146023D01*
X93007552Y18450164D01*
X92877230Y18771254D01*
X92784359Y19105106D01*
X92730150Y19447369D01*
X92715000Y19750242D01*
X92730150Y20053115D01*
X92784359Y20395378D01*
X92877230Y20729230D01*
X93007552Y21050320D01*
X93173625Y21354461D01*
X93373286Y21637689D01*
X93603931Y21896311D01*
X93862553Y22126956D01*
X94145781Y22326617D01*
X94449922Y22492690D01*
X94771012Y22623012D01*
X95104864Y22715883D01*
X95447127Y22770092D01*
X95750000Y22785242D01*
X96052873Y22770092D01*
G37*
G36*
X44250210Y41195779D02*
G01*
X44311850Y41154592D01*
X44353037Y41092952D01*
X44367500Y41020242D01*
X44367500Y40595242D01*
X44353037Y40522532D01*
X44311850Y40460892D01*
X44250210Y40419705D01*
X44177500Y40405242D01*
X43867500Y40405242D01*
X43794790Y40419705D01*
X43733150Y40460892D01*
X43691963Y40522532D01*
X43677500Y40595242D01*
X43677500Y41020242D01*
X43691963Y41092952D01*
X43733150Y41154592D01*
X43794790Y41195779D01*
X43867500Y41210242D01*
X44177500Y41210242D01*
X44250210Y41195779D01*
G37*
G36*
X45500210Y41195779D02*
G01*
X45561850Y41154592D01*
X45603037Y41092952D01*
X45617500Y41020242D01*
X45617500Y40595242D01*
X45603037Y40522532D01*
X45561850Y40460892D01*
X45500210Y40419705D01*
X45427500Y40405242D01*
X45117500Y40405242D01*
X45044790Y40419705D01*
X44983150Y40460892D01*
X44941963Y40522532D01*
X44927500Y40595242D01*
X44927500Y41020242D01*
X44941963Y41092952D01*
X44983150Y41154592D01*
X45044790Y41195779D01*
X45117500Y41210242D01*
X45427500Y41210242D01*
X45500210Y41195779D01*
G37*
G36*
X90992417Y43049383D02*
G01*
X91143663Y42986734D01*
X91279782Y42895783D01*
X91395541Y42780024D01*
X91486492Y42643905D01*
X91549141Y42492659D01*
X91581079Y42332096D01*
X91581079Y42168388D01*
X91549141Y42007825D01*
X91486492Y41856579D01*
X91395541Y41720460D01*
X91279782Y41604701D01*
X91143663Y41513750D01*
X90992417Y41451101D01*
X90831854Y41419163D01*
X90668146Y41419163D01*
X90507583Y41451101D01*
X90356337Y41513750D01*
X90220218Y41604701D01*
X90104459Y41720460D01*
X90013508Y41856579D01*
X89950859Y42007825D01*
X89918921Y42168388D01*
X89918921Y42332096D01*
X89950859Y42492659D01*
X90013508Y42643905D01*
X90104459Y42780024D01*
X90220218Y42895783D01*
X90356337Y42986734D01*
X90507583Y43049383D01*
X90668146Y43081321D01*
X90831854Y43081321D01*
X90992417Y43049383D01*
G37*
G36*
X9445517Y43067483D02*
G01*
X9596763Y43004834D01*
X9732882Y42913883D01*
X9848641Y42798124D01*
X9939592Y42662005D01*
X10002241Y42510759D01*
X10034179Y42350196D01*
X10034179Y42186488D01*
X10002241Y42025925D01*
X9939592Y41874679D01*
X9848641Y41738560D01*
X9732882Y41622801D01*
X9596763Y41531850D01*
X9445517Y41469201D01*
X9284954Y41437263D01*
X9121246Y41437263D01*
X8960683Y41469201D01*
X8809437Y41531850D01*
X8673318Y41622801D01*
X8557559Y41738560D01*
X8466608Y41874679D01*
X8403959Y42025925D01*
X8372021Y42186488D01*
X8372021Y42350196D01*
X8403959Y42510759D01*
X8466608Y42662005D01*
X8557559Y42798124D01*
X8673318Y42913883D01*
X8809437Y43004834D01*
X8960683Y43067483D01*
X9121246Y43099421D01*
X9284954Y43099421D01*
X9445517Y43067483D01*
G37*
G36*
X44250210Y42330779D02*
G01*
X44311850Y42289592D01*
X44353037Y42227952D01*
X44367500Y42155242D01*
X44367500Y41730242D01*
X44353037Y41657532D01*
X44311850Y41595892D01*
X44250210Y41554705D01*
X44177500Y41540242D01*
X43867500Y41540242D01*
X43794790Y41554705D01*
X43733150Y41595892D01*
X43691963Y41657532D01*
X43677500Y41730242D01*
X43677500Y42155242D01*
X43691963Y42227952D01*
X43733150Y42289592D01*
X43794790Y42330779D01*
X43867500Y42345242D01*
X44177500Y42345242D01*
X44250210Y42330779D01*
G37*
G36*
X45500210Y42330779D02*
G01*
X45561850Y42289592D01*
X45603037Y42227952D01*
X45617500Y42155242D01*
X45617500Y41730242D01*
X45603037Y41657532D01*
X45561850Y41595892D01*
X45500210Y41554705D01*
X45427500Y41540242D01*
X45117500Y41540242D01*
X45044790Y41554705D01*
X44983150Y41595892D01*
X44941963Y41657532D01*
X44927500Y41730242D01*
X44927500Y42155242D01*
X44941963Y42227952D01*
X44983150Y42289592D01*
X45044790Y42330779D01*
X45117500Y42345242D01*
X45427500Y42345242D01*
X45500210Y42330779D01*
G37*
G36*
X42240210Y43455779D02*
G01*
X42301850Y43414592D01*
X42343037Y43352952D01*
X42357500Y43280242D01*
X42357500Y42970242D01*
X42343037Y42897532D01*
X42301850Y42835892D01*
X42240210Y42794705D01*
X42167500Y42780242D01*
X41742500Y42780242D01*
X41669790Y42794705D01*
X41608150Y42835892D01*
X41566963Y42897532D01*
X41552500Y42970242D01*
X41552500Y43280242D01*
X41566963Y43352952D01*
X41608150Y43414592D01*
X41669790Y43455779D01*
X41742500Y43470242D01*
X42167500Y43470242D01*
X42240210Y43455779D01*
G37*
G36*
X43375210Y43455779D02*
G01*
X43436850Y43414592D01*
X43478037Y43352952D01*
X43492500Y43280242D01*
X43492500Y42970242D01*
X43478037Y42897532D01*
X43436850Y42835892D01*
X43375210Y42794705D01*
X43302500Y42780242D01*
X42877500Y42780242D01*
X42804790Y42794705D01*
X42743150Y42835892D01*
X42701963Y42897532D01*
X42687500Y42970242D01*
X42687500Y43280242D01*
X42701963Y43352952D01*
X42743150Y43414592D01*
X42804790Y43455779D01*
X42877500Y43470242D01*
X43302500Y43470242D01*
X43375210Y43455779D01*
G37*
G36*
X90992417Y45549383D02*
G01*
X91143663Y45486734D01*
X91279782Y45395783D01*
X91395541Y45280024D01*
X91486492Y45143905D01*
X91549141Y44992659D01*
X91581079Y44832096D01*
X91581079Y44668388D01*
X91549141Y44507825D01*
X91486492Y44356579D01*
X91395541Y44220460D01*
X91279782Y44104701D01*
X91143663Y44013750D01*
X90992417Y43951101D01*
X90831854Y43919163D01*
X90668146Y43919163D01*
X90507583Y43951101D01*
X90356337Y44013750D01*
X90220218Y44104701D01*
X90104459Y44220460D01*
X90013508Y44356579D01*
X89950859Y44507825D01*
X89918921Y44668388D01*
X89918921Y44832096D01*
X89950859Y44992659D01*
X90013508Y45143905D01*
X90104459Y45280024D01*
X90220218Y45395783D01*
X90356337Y45486734D01*
X90507583Y45549383D01*
X90668146Y45581321D01*
X90831854Y45581321D01*
X90992417Y45549383D01*
G37*
G36*
X9445517Y45567483D02*
G01*
X9596763Y45504834D01*
X9732882Y45413883D01*
X9848641Y45298124D01*
X9939592Y45162005D01*
X10002241Y45010759D01*
X10034179Y44850196D01*
X10034179Y44686488D01*
X10002241Y44525925D01*
X9939592Y44374679D01*
X9848641Y44238560D01*
X9732882Y44122801D01*
X9596763Y44031850D01*
X9445517Y43969201D01*
X9284954Y43937263D01*
X9121246Y43937263D01*
X8960683Y43969201D01*
X8809437Y44031850D01*
X8673318Y44122801D01*
X8557559Y44238560D01*
X8466608Y44374679D01*
X8403959Y44525925D01*
X8372021Y44686488D01*
X8372021Y44850196D01*
X8403959Y45010759D01*
X8466608Y45162005D01*
X8557559Y45298124D01*
X8673318Y45413883D01*
X8809437Y45504834D01*
X8960683Y45567483D01*
X9121246Y45599421D01*
X9284954Y45599421D01*
X9445517Y45567483D01*
G37*
G36*
X47990210Y44705779D02*
G01*
X48051850Y44664592D01*
X48093037Y44602952D01*
X48107500Y44530242D01*
X48107500Y44220242D01*
X48093037Y44147532D01*
X48051850Y44085892D01*
X47990210Y44044705D01*
X47917500Y44030242D01*
X47492500Y44030242D01*
X47419790Y44044705D01*
X47358150Y44085892D01*
X47316963Y44147532D01*
X47302500Y44220242D01*
X47302500Y44530242D01*
X47316963Y44602952D01*
X47358150Y44664592D01*
X47419790Y44705779D01*
X47492500Y44720242D01*
X47917500Y44720242D01*
X47990210Y44705779D01*
G37*
G36*
X49125210Y44705779D02*
G01*
X49186850Y44664592D01*
X49228037Y44602952D01*
X49242500Y44530242D01*
X49242500Y44220242D01*
X49228037Y44147532D01*
X49186850Y44085892D01*
X49125210Y44044705D01*
X49052500Y44030242D01*
X48627500Y44030242D01*
X48554790Y44044705D01*
X48493150Y44085892D01*
X48451963Y44147532D01*
X48437500Y44220242D01*
X48437500Y44530242D01*
X48451963Y44602952D01*
X48493150Y44664592D01*
X48554790Y44705779D01*
X48627500Y44720242D01*
X49052500Y44720242D01*
X49125210Y44705779D01*
G37*
G36*
X42307710Y45455779D02*
G01*
X42369350Y45414592D01*
X42410537Y45352952D01*
X42425000Y45280242D01*
X42425000Y44970242D01*
X42410537Y44897532D01*
X42369350Y44835892D01*
X42307710Y44794705D01*
X42235000Y44780242D01*
X41810000Y44780242D01*
X41737290Y44794705D01*
X41675650Y44835892D01*
X41634463Y44897532D01*
X41620000Y44970242D01*
X41620000Y45280242D01*
X41634463Y45352952D01*
X41675650Y45414592D01*
X41737290Y45455779D01*
X41810000Y45470242D01*
X42235000Y45470242D01*
X42307710Y45455779D01*
G37*
G36*
X43442710Y45455779D02*
G01*
X43504350Y45414592D01*
X43545537Y45352952D01*
X43560000Y45280242D01*
X43560000Y44970242D01*
X43545537Y44897532D01*
X43504350Y44835892D01*
X43442710Y44794705D01*
X43370000Y44780242D01*
X42945000Y44780242D01*
X42872290Y44794705D01*
X42810650Y44835892D01*
X42769463Y44897532D01*
X42755000Y44970242D01*
X42755000Y45280242D01*
X42769463Y45352952D01*
X42810650Y45414592D01*
X42872290Y45455779D01*
X42945000Y45470242D01*
X43370000Y45470242D01*
X43442710Y45455779D01*
G37*
G36*
X44500210Y46945779D02*
G01*
X44561850Y46904592D01*
X44603037Y46842952D01*
X44617500Y46770242D01*
X44617500Y46345242D01*
X44603037Y46272532D01*
X44561850Y46210892D01*
X44500210Y46169705D01*
X44427500Y46155242D01*
X44117500Y46155242D01*
X44044790Y46169705D01*
X43983150Y46210892D01*
X43941963Y46272532D01*
X43927500Y46345242D01*
X43927500Y46770242D01*
X43941963Y46842952D01*
X43983150Y46904592D01*
X44044790Y46945779D01*
X44117500Y46960242D01*
X44427500Y46960242D01*
X44500210Y46945779D01*
G37*
G36*
X45500210Y46945779D02*
G01*
X45561850Y46904592D01*
X45603037Y46842952D01*
X45617500Y46770242D01*
X45617500Y46345242D01*
X45603037Y46272532D01*
X45561850Y46210892D01*
X45500210Y46169705D01*
X45427500Y46155242D01*
X45117500Y46155242D01*
X45044790Y46169705D01*
X44983150Y46210892D01*
X44941963Y46272532D01*
X44927500Y46345242D01*
X44927500Y46770242D01*
X44941963Y46842952D01*
X44983150Y46904592D01*
X45044790Y46945779D01*
X45117500Y46960242D01*
X45427500Y46960242D01*
X45500210Y46945779D01*
G37*
G36*
X47990210Y46955779D02*
G01*
X48051850Y46914592D01*
X48093037Y46852952D01*
X48107500Y46780242D01*
X48107500Y46470242D01*
X48093037Y46397532D01*
X48051850Y46335892D01*
X47990210Y46294705D01*
X47917500Y46280242D01*
X47492500Y46280242D01*
X47419790Y46294705D01*
X47358150Y46335892D01*
X47316963Y46397532D01*
X47302500Y46470242D01*
X47302500Y46780242D01*
X47316963Y46852952D01*
X47358150Y46914592D01*
X47419790Y46955779D01*
X47492500Y46970242D01*
X47917500Y46970242D01*
X47990210Y46955779D01*
G37*
G36*
X49125210Y46955779D02*
G01*
X49186850Y46914592D01*
X49228037Y46852952D01*
X49242500Y46780242D01*
X49242500Y46470242D01*
X49228037Y46397532D01*
X49186850Y46335892D01*
X49125210Y46294705D01*
X49052500Y46280242D01*
X48627500Y46280242D01*
X48554790Y46294705D01*
X48493150Y46335892D01*
X48451963Y46397532D01*
X48437500Y46470242D01*
X48437500Y46780242D01*
X48451963Y46852952D01*
X48493150Y46914592D01*
X48554790Y46955779D01*
X48627500Y46970242D01*
X49052500Y46970242D01*
X49125210Y46955779D01*
G37*
G36*
X90992417Y48049383D02*
G01*
X91143663Y47986734D01*
X91279782Y47895783D01*
X91395541Y47780024D01*
X91486492Y47643905D01*
X91549141Y47492659D01*
X91581079Y47332096D01*
X91581079Y47168388D01*
X91549141Y47007825D01*
X91486492Y46856579D01*
X91395541Y46720460D01*
X91279782Y46604701D01*
X91143663Y46513750D01*
X90992417Y46451101D01*
X90831854Y46419163D01*
X90668146Y46419163D01*
X90507583Y46451101D01*
X90356337Y46513750D01*
X90220218Y46604701D01*
X90104459Y46720460D01*
X90013508Y46856579D01*
X89950859Y47007825D01*
X89918921Y47168388D01*
X89918921Y47332096D01*
X89950859Y47492659D01*
X90013508Y47643905D01*
X90104459Y47780024D01*
X90220218Y47895783D01*
X90356337Y47986734D01*
X90507583Y48049383D01*
X90668146Y48081321D01*
X90831854Y48081321D01*
X90992417Y48049383D01*
G37*
G36*
X9445517Y48067483D02*
G01*
X9596763Y48004834D01*
X9732882Y47913883D01*
X9848641Y47798124D01*
X9939592Y47662005D01*
X10002241Y47510759D01*
X10034179Y47350196D01*
X10034179Y47186488D01*
X10002241Y47025925D01*
X9939592Y46874679D01*
X9848641Y46738560D01*
X9732882Y46622801D01*
X9596763Y46531850D01*
X9445517Y46469201D01*
X9284954Y46437263D01*
X9121246Y46437263D01*
X8960683Y46469201D01*
X8809437Y46531850D01*
X8673318Y46622801D01*
X8557559Y46738560D01*
X8466608Y46874679D01*
X8403959Y47025925D01*
X8372021Y47186488D01*
X8372021Y47350196D01*
X8403959Y47510759D01*
X8466608Y47662005D01*
X8557559Y47798124D01*
X8673318Y47913883D01*
X8809437Y48004834D01*
X8960683Y48067483D01*
X9121246Y48099421D01*
X9284954Y48099421D01*
X9445517Y48067483D01*
G37*
G36*
X44500210Y48080779D02*
G01*
X44561850Y48039592D01*
X44603037Y47977952D01*
X44617500Y47905242D01*
X44617500Y47480242D01*
X44603037Y47407532D01*
X44561850Y47345892D01*
X44500210Y47304705D01*
X44427500Y47290242D01*
X44117500Y47290242D01*
X44044790Y47304705D01*
X43983150Y47345892D01*
X43941963Y47407532D01*
X43927500Y47480242D01*
X43927500Y47905242D01*
X43941963Y47977952D01*
X43983150Y48039592D01*
X44044790Y48080779D01*
X44117500Y48095242D01*
X44427500Y48095242D01*
X44500210Y48080779D01*
G37*
G36*
X45500210Y48080779D02*
G01*
X45561850Y48039592D01*
X45603037Y47977952D01*
X45617500Y47905242D01*
X45617500Y47480242D01*
X45603037Y47407532D01*
X45561850Y47345892D01*
X45500210Y47304705D01*
X45427500Y47290242D01*
X45117500Y47290242D01*
X45044790Y47304705D01*
X44983150Y47345892D01*
X44941963Y47407532D01*
X44927500Y47480242D01*
X44927500Y47905242D01*
X44941963Y47977952D01*
X44983150Y48039592D01*
X45044790Y48080779D01*
X45117500Y48095242D01*
X45427500Y48095242D01*
X45500210Y48080779D01*
G37*
G36*
X28316897Y62317001D02*
G01*
X28382233Y62279279D01*
X28435580Y62225932D01*
X28473302Y62160596D01*
X28492829Y62087722D01*
X28492829Y62012278D01*
X28473302Y61939404D01*
X28435580Y61874068D01*
X28382233Y61820721D01*
X28316897Y61782999D01*
X28244023Y61763472D01*
X28168579Y61763472D01*
X28095705Y61782999D01*
X28030369Y61820721D01*
X27977022Y61874068D01*
X27939300Y61939404D01*
X27919773Y62012278D01*
X27919773Y62087722D01*
X27939300Y62160596D01*
X27977022Y62225932D01*
X28030369Y62279279D01*
X28095705Y62317001D01*
X28168579Y62336528D01*
X28244023Y62336528D01*
X28316897Y62317001D01*
G37*
G36*
X29104297Y62317001D02*
G01*
X29169633Y62279279D01*
X29222980Y62225932D01*
X29260702Y62160596D01*
X29280229Y62087722D01*
X29280229Y62012278D01*
X29260702Y61939404D01*
X29222980Y61874068D01*
X29169633Y61820721D01*
X29104297Y61782999D01*
X29031423Y61763472D01*
X28955979Y61763472D01*
X28883105Y61782999D01*
X28817769Y61820721D01*
X28764422Y61874068D01*
X28726700Y61939404D01*
X28707173Y62012278D01*
X28707173Y62087722D01*
X28726700Y62160596D01*
X28764422Y62225932D01*
X28817769Y62279279D01*
X28883105Y62317001D01*
X28955979Y62336528D01*
X29031423Y62336528D01*
X29104297Y62317001D01*
G37*
G36*
X40884736Y64689276D02*
G01*
X41005687Y64619444D01*
X41104444Y64520687D01*
X41174276Y64399736D01*
X41210423Y64264832D01*
X41215000Y64195000D01*
X41215000Y63095000D01*
X41210423Y63025168D01*
X41174276Y62890264D01*
X41104444Y62769313D01*
X41005687Y62670556D01*
X40884736Y62600724D01*
X40749832Y62564577D01*
X40610168Y62564577D01*
X40475264Y62600724D01*
X40354313Y62670556D01*
X40255556Y62769313D01*
X40185724Y62890264D01*
X40149577Y63025168D01*
X40145000Y63095000D01*
X40145000Y64195000D01*
X40149577Y64264832D01*
X40185724Y64399736D01*
X40255556Y64520687D01*
X40354313Y64619444D01*
X40475264Y64689276D01*
X40610168Y64725423D01*
X40749832Y64725423D01*
X40884736Y64689276D01*
G37*
G36*
X49524736Y64689276D02*
G01*
X49645687Y64619444D01*
X49744444Y64520687D01*
X49814276Y64399736D01*
X49850423Y64264832D01*
X49855000Y64195000D01*
X49855000Y63095000D01*
X49850423Y63025168D01*
X49814276Y62890264D01*
X49744444Y62769313D01*
X49645687Y62670556D01*
X49524736Y62600724D01*
X49389832Y62564577D01*
X49250168Y62564577D01*
X49115264Y62600724D01*
X48994313Y62670556D01*
X48895556Y62769313D01*
X48825724Y62890264D01*
X48789577Y63025168D01*
X48785000Y63095000D01*
X48785000Y64195000D01*
X48789577Y64264832D01*
X48825724Y64399736D01*
X48895556Y64520687D01*
X48994313Y64619444D01*
X49115264Y64689276D01*
X49250168Y64725423D01*
X49389832Y64725423D01*
X49524736Y64689276D01*
G37*
G36*
X4552873Y69519850D02*
G01*
X4895136Y69465641D01*
X5228988Y69372770D01*
X5550078Y69242448D01*
X5854219Y69076375D01*
X6137447Y68876714D01*
X6396069Y68646069D01*
X6626714Y68387447D01*
X6826375Y68104219D01*
X6992448Y67800078D01*
X7122770Y67478988D01*
X7215641Y67145136D01*
X7269850Y66802873D01*
X7285000Y66500000D01*
X7269850Y66197127D01*
X7215641Y65854864D01*
X7122770Y65521012D01*
X6992448Y65199922D01*
X6826375Y64895781D01*
X6626714Y64612553D01*
X6396069Y64353931D01*
X6137447Y64123286D01*
X5854219Y63923625D01*
X5550078Y63757552D01*
X5228988Y63627230D01*
X4895136Y63534359D01*
X4552873Y63480150D01*
X4250000Y63465000D01*
X3947127Y63480150D01*
X3604864Y63534359D01*
X3271012Y63627230D01*
X2949922Y63757552D01*
X2645781Y63923625D01*
X2362553Y64123286D01*
X2103931Y64353931D01*
X1873286Y64612553D01*
X1673625Y64895781D01*
X1507552Y65199922D01*
X1377230Y65521012D01*
X1284359Y65854864D01*
X1230150Y66197127D01*
X1215000Y66500000D01*
X1230150Y66802873D01*
X1284359Y67145136D01*
X1377230Y67478988D01*
X1507552Y67800078D01*
X1673625Y68104219D01*
X1873286Y68387447D01*
X2103931Y68646069D01*
X2362553Y68876714D01*
X2645781Y69076375D01*
X2949922Y69242448D01*
X3271012Y69372770D01*
X3604864Y69465641D01*
X3947127Y69519850D01*
X4250000Y69535000D01*
X4552873Y69519850D01*
G37*
G36*
X96052873Y69519850D02*
G01*
X96395136Y69465641D01*
X96728988Y69372770D01*
X97050078Y69242448D01*
X97354219Y69076375D01*
X97637447Y68876714D01*
X97896069Y68646069D01*
X98126714Y68387447D01*
X98326375Y68104219D01*
X98492448Y67800078D01*
X98622770Y67478988D01*
X98715641Y67145136D01*
X98769850Y66802873D01*
X98785000Y66500000D01*
X98769850Y66197127D01*
X98715641Y65854864D01*
X98622770Y65521012D01*
X98492448Y65199922D01*
X98326375Y64895781D01*
X98126714Y64612553D01*
X97896069Y64353931D01*
X97637447Y64123286D01*
X97354219Y63923625D01*
X97050078Y63757552D01*
X96728988Y63627230D01*
X96395136Y63534359D01*
X96052873Y63480150D01*
X95750000Y63465000D01*
X95447127Y63480150D01*
X95104864Y63534359D01*
X94771012Y63627230D01*
X94449922Y63757552D01*
X94145781Y63923625D01*
X93862553Y64123286D01*
X93603931Y64353931D01*
X93373286Y64612553D01*
X93173625Y64895781D01*
X93007552Y65199922D01*
X92877230Y65521012D01*
X92784359Y65854864D01*
X92730150Y66197127D01*
X92715000Y66500000D01*
X92730150Y66802873D01*
X92784359Y67145136D01*
X92877230Y67478988D01*
X93007552Y67800078D01*
X93173625Y68104219D01*
X93373286Y68387447D01*
X93603931Y68646069D01*
X93862553Y68876714D01*
X94145781Y69076375D01*
X94449922Y69242448D01*
X94771012Y69372770D01*
X95104864Y69465641D01*
X95447127Y69519850D01*
X95750000Y69535000D01*
X96052873Y69519850D01*
G37*
G36*
X42247766Y64477597D02*
G01*
X42329154Y64430607D01*
X42395607Y64364154D01*
X42442597Y64282766D01*
X42466920Y64191989D01*
X42466920Y64098011D01*
X42442597Y64007234D01*
X42395607Y63925846D01*
X42329154Y63859393D01*
X42247766Y63812403D01*
X42156989Y63788080D01*
X42063011Y63788080D01*
X41972234Y63812403D01*
X41890846Y63859393D01*
X41824393Y63925846D01*
X41777403Y64007234D01*
X41753080Y64098011D01*
X41753080Y64191989D01*
X41777403Y64282766D01*
X41824393Y64364154D01*
X41890846Y64430607D01*
X41972234Y64477597D01*
X42063011Y64501920D01*
X42156989Y64501920D01*
X42247766Y64477597D01*
G37*
G36*
X48027766Y64477597D02*
G01*
X48109154Y64430607D01*
X48175607Y64364154D01*
X48222597Y64282766D01*
X48246920Y64191989D01*
X48246920Y64098011D01*
X48222597Y64007234D01*
X48175607Y63925846D01*
X48109154Y63859393D01*
X48027766Y63812403D01*
X47936989Y63788080D01*
X47843011Y63788080D01*
X47752234Y63812403D01*
X47670846Y63859393D01*
X47604393Y63925846D01*
X47557403Y64007234D01*
X47533080Y64098011D01*
X47533080Y64191989D01*
X47557403Y64282766D01*
X47604393Y64364154D01*
X47670846Y64430607D01*
X47752234Y64477597D01*
X47843011Y64501920D01*
X47936989Y64501920D01*
X48027766Y64477597D01*
G37*
G36*
X40884736Y68719276D02*
G01*
X41005687Y68649444D01*
X41104444Y68550687D01*
X41174276Y68429736D01*
X41210423Y68294832D01*
X41215000Y68225000D01*
X41215000Y67425000D01*
X41210423Y67355168D01*
X41174276Y67220264D01*
X41104444Y67099313D01*
X41005687Y67000556D01*
X40884736Y66930724D01*
X40749832Y66894577D01*
X40610168Y66894577D01*
X40475264Y66930724D01*
X40354313Y67000556D01*
X40255556Y67099313D01*
X40185724Y67220264D01*
X40149577Y67355168D01*
X40145000Y67425000D01*
X40145000Y68225000D01*
X40149577Y68294832D01*
X40185724Y68429736D01*
X40255556Y68550687D01*
X40354313Y68649444D01*
X40475264Y68719276D01*
X40610168Y68755423D01*
X40749832Y68755423D01*
X40884736Y68719276D01*
G37*
G36*
X49524736Y68719276D02*
G01*
X49645687Y68649444D01*
X49744444Y68550687D01*
X49814276Y68429736D01*
X49850423Y68294832D01*
X49855000Y68225000D01*
X49855000Y67425000D01*
X49850423Y67355168D01*
X49814276Y67220264D01*
X49744444Y67099313D01*
X49645687Y67000556D01*
X49524736Y66930724D01*
X49389832Y66894577D01*
X49250168Y66894577D01*
X49115264Y66930724D01*
X48994313Y67000556D01*
X48895556Y67099313D01*
X48825724Y67220264D01*
X48789577Y67355168D01*
X48785000Y67425000D01*
X48785000Y68225000D01*
X48789577Y68294832D01*
X48825724Y68429736D01*
X48895556Y68550687D01*
X48994313Y68649444D01*
X49115264Y68719276D01*
X49250168Y68755423D01*
X49389832Y68755423D01*
X49524736Y68719276D01*
G37*
%LPD*%
M02*
